<mxfile host="65bd71144e">
    <diagram id="3E3v4wR4rx2-MZz2OQwc" name="Page-1">
        <mxGraphModel dx="340" dy="175" grid="1" gridSize="10" guides="1" tooltips="1" connect="1" arrows="1" fold="1" page="1" pageScale="1" pageWidth="1100" pageHeight="850" math="0" shadow="0">
            <root>
                <mxCell id="0"/>
                <mxCell id="1" parent="0"/>
                <mxCell id="2" value="" style="shape=stencil(nZ3dshy3kYSfhrcTjX/g2rt+D0WIMhXWigqK3rXfflFL98yczJmvI/bOolFnuhtA/WRVZX0qf/nzy09/fP6Ujz+/f/v698//8+vP3798Kv/xKedff//y+duv3/f/+lT+81P5yy9fv33+27ev//j95x///cdPsTL+1399/e/4C//8IXfcjhxC+fjXj39Y69bT//3LX3+s/+3X3z+sT0PX50rrS/u4ft4Grm9d1+eD1ndZP24Ln38sXd/x769D15eM6+3vH7A+3ZL8/X4buD53XZ8Wra/l4/p2G/C+yb5/u+VG64esrxfPP5euL/D82c5nvR1wfvItyfOU84S8WV+yrqfznG9Vnj/fJpy3fOtT1xd8nin3K50n8OX6cjtsfYXnKXZ+9omF/Sq3OnX9v0/Um/XyvnPdFpyfou+71//7F1+u37tvf5/uV9X3nfM84W/W16brE3zPeusfz8/c+gTOc73NQ9fT/aqqT2bH89ZObfm0ns5bO2/ffX1D/dluber6Omj9sPV0f9t5Wu7rK9qjfu7O0/oE56fbeSj4PffXm7q+wvfsqh/2+gTns9+arM+nRn2zfhy6voJ+uJ+Wp/V0X7rq55nOG/1y/bZuh64voB+G2ru59Q+cn307kq4nez3OX39aT+dhnKf3XD/WbeDzyH7t9QXu7zit4X39RH0+brPrejpvQ/XDuP/Ly/VT78te3+D556mdntYf+PeLPH+/dfz7cl8G+zPz1j/u72h4X6b6J3s9+W/ztIb39fW0UC/Xb+vTdX0F/ba9Zfn75bbgfC7VP3t9A321bs3+/oHPL/7zyOcXfrN+Zl2f4Puv8+3u6xPax7Sva1OBBC+QLMIYrCG2QBsqgC76oTa7L/RZU9JD0fcxhE3bAqWqwMEC4nb0rSj5kdbHe9+35YF9TlkVb7+b8ncCcpO3wEGRQz4V7V2goulI+yR/vPu9oG7ZAvnj4esZlWO6360ngQK3eQsMeaSE4e0WEP9mC2Ta6ar3oR8cYFU7SwdHcPU8CKdAW+gSbQHxQdrFfahq1NrkfWi601sA73Q7jfyTAMEGW0D8hDbOW/5OQAKhLYAv3fSKto6RUGpqqrZA40cSbGILkK5P/byQd4GGzvUWkGhiCyQ63l2Vcaus7u+v+CSQwZ5sAXEAWjkhnXcCgvhsAVQzXa9oy+gCpKE+1RagGHwLSBDSEh+N7aVmFSAvYAs0+4WDPqv5qe3Cipqj2g6201MjhcqedjJXtV6omXkiN08CB73DdlY/WqA6z0v7TkBs3BbA0zpVCdRxBljvBEZTAbTT8zanCpBDlpYiarXzPiyFfCtDCltAdGttfLyXKoEt0GgflqJMWwCP91KYqdYzkHsNwx3qwm0Binu2gPgatSDQFEj3oQKIbB56Revd5XonsOQ+bDVDj5QUPN0CFTZuC0i0V++/+U5AfO8tUGGnA1/+eOPK4l/Ip+P8JEAA1RbIWQXI9w4I+ONnLQwpBgbcVADPkoHAhZMUuaiq3AKEOuWiV7Rsu0qftaiTuAVI3WfzjEtDIGkLSORdGiI3udpLVwwHAgteKpBAtwYYLPtQeB+q7XRBvRRwsLzDxZ1uakVLOg3xO4G0VCDTSze90+VAoxiQcFEBiqcDE/740nmhv7QF5D7kbfXotHZVAoFj0Vnqp1t7FxhoFB1HDuSRH0nCsv0vqMi6qpnAiul4d4V+4iHps3bF8jNj/w4+x2Gh+9AV/Y/zy78wP16gzPFDfMSiAoU2btjRqGew+U5A1EzkuPgXsgng4Rt2NDLf6aGxaOYkwBYQN3TbVcr6xemfKnDxC0uu6MHvMO3GHQjMBrL88bMmjh+2gNyHLUCYQGDFIjB5p6eCamlieLz1nGQ/dhhFaGvAxUMFyLsPTfrxPqSO+f4AgLMKYAJ8KRqaGBgMCHioAKVMtvlI8g71vOXvBCSJH5gWJcEPvUABs1GW3cpMUkFvZguIIgswEs7StsrHx/uQWAmUpGomEFj+BUklbAGCi4rVggTszI8khn0LkOYL30W+0nGGs+8EJJ2QDiwX2O6U3riDdzqrv7ROR/bd+iIFPHy475r6XM9QaDFYfaKTu9dLhHXXm+/Wd8mGYD5qrxfLMPhMZMUnBoIHJVtCE7MI4WBL2uFEUN6tlzi9o0Ld66VAop1n9t16BTTRa4v1gisjWh8RiEBQrBuLquuK3vxev3Q9meVSFaqv6OEVy2cUTI0VK+ApCBjs9Rq+YCRcLMbLZ4bz3Xp1mhGqKlX36443vFuv5pX31wqEEuufZgqRjUBTD+SePn23XqLBg79/0yzggZht6XreDj5vXe/7xfPcg6zHetSf/YxEn74P6c+h5//g/R1n+cfT/vJ60c8J04UBRen5p3q3YgUeDFjs9V3Xo1szFbQsfF+soKIgsBtooOAh/P2XZuUqusfVCqor6v/quDF6QHt9+/h9GCXb64faF6onqknj44bnZ6+X798QYw5E+eP6zs+fzgzlYz1hRXv91PUUYVUrGO7o/1Tzxwbq2/rCv8LzYNgv56Vr0UTFRMSxFk2SMTK210tAOfn5i+7XxCh9r5fzyTm7vX5JATPqh2qgL/c3VCvo5frlaoBsFCTRCxsgGwVJVDFsJbqJoZVInknAnc6q6XcCwwTIyEQ+b6oAeZW1q5aIgiRSo90i9IzxcyQxLX7GjR6qqKO+iE6elZZugUKfdWiWMnGtcZ3q26SKWP0W0JC+IiyxBYaBN1jevuyROJ6pSytAouqEPqtVIG4B8vDr0vqMLUD1Ge1QlZcG+nRbQMrA0kCIq1lXUeK6gJbU63ok/t8J6GddCO5vAamTiaQ5nKWWNPALz5pe2pCScH1h41q2UItrv7eA3OlHwvm1QNE7Hd4vfVZDA8L9pXcoGh5c+L+tqD+SuZqoVTXo4QHTTpuFywVDkC2giSL2gbfAsKxMppeulg2ofPisfi9XPhpmFCMVRV/JyvG2AAFXrVkqqmOiKIrvlgqQa7gFxKCEr0ob5wm7wc00WzEWFSCT1Ya9w+ALNFQvRWKHLpA1UEQLAO30sHeY3AE17R0WQmpbQN9hYd6nWVVXuVCVU7tqyoWqXBqVFC6s2QISVpULVbkUlwr0nl56qeNdMuqlKDu22gbSS1ug2i9QLNatIqqwR9atO7dcdH8lRfcDX6R2KzO7pV79gj5S43fIqvkKR9w9W41JRwivW4gYoBULSIxbuHqiV72iZfJLV0XVAyeCO70FJDVb1gmcvBZoml4OJAdsXG9Wg3hgZqZ3zfBVLv3fApIqqnxFt4BiVdxs3IdmWrcAmd1u7XKVfY0tIP1C9aI/c1oNYkVAfguIs76jU+rA2gJSuVw7WtG+VJFtAXIdtoAkTis3+W4BOa1bgIrah6OGE9M00RNVVYDyWMNwwHrR6JhUL20BKtIaSb3KHUZh6+jdNX8SwK9kWN0OcghE2ALiazRu5xlFa6MbG8Xh6cGM9RlbQC7QjiiwobVqYU0rWEIVDYtSyV/5HarCRREg0MY1VfeNk5xboCYVIBQ0mkDlpTufpa5RVut8H7rlgdmV3gJSDLEFsPN3qH3YbiMBIVtA2hcaG8VhgFTj2ugxFOdrjIaOqbHow6l7J9BM4OIXpJ6gM+HFWBpabgEKwMdS6HF7UBTtRse4CdB9mIeSWGwPKlGT9KGHL1wuOBrRJG+9lVRGEV34XQUI15hJG8PD5aJG7KSoQ2+4cVtA224b9s7MrKDadogIip/ZWiU7Iuszq3ffuep3C0hR+8Mhei1QtOOuTzx80whaOhMsbQFxEvvCCphZFVQL/wY03xaQkoG+0KucBkhtdwU/a7Wu/gNt3BbwNnQCc2ZTn+/h37wTkDzZYNdhC0ivwMhYmTatCn5kdHRn11KPkTF+mAZIhX/DvyCA1CjYrTYNkBqFtcZQVbm9DzK70wCpwfHDHC8YJfDGDaOIYOdkTjtLHbHKaZXL40IvTfus3Jw8lwZ+g/sSp9UVBy8JHY2l/T9BfEJEEYdmmgY7J8uqfse6+gVNTR/Y3rYFlAznwAaJlbS4J9hw6B2SVYMmPK1bQLTG5IBjWVpnC1C6eWWNHybnRYPQzCiS8KWz7UPB9FpQrMkjVSYdMVa0WVEvbQE5S2Ex6KWLhvhhMegdrA7zYQBeC1hh5Vae1Fa1qlV2dOzZWM51xrWzy9rbJpMBbQHRS1sAH6kp6rAFyIpuAQnA52S+m2Y7PdENXUb8MJnMZQsI1DK5oTQYGZcKEJizBZb9AtU6LPMEJnfRbgHx7teBZW/LsMp1ME9RN6LJg5WAuQ4rIYgQxJtdBSitE8ye8g4ZncQtIO7PFqCIfQ2FKVbGjN8aRpeZMVUbbKnylQrfuKmh5eLOli0gBYhbAM/S1Fg0NBV9pWkcrRWzZWspcrIab5xRGoRaoHdYirc+bvk7AXHhFvdLL+uSWtzpFQLGNItcFMehpWqLezGWkXdtAXSYliqmxewVW2DaL1CH9VqazFrcQbcF9MpdCuhxvXykbo9EqaY4G/YLF59Vik6uN84F6GysZZqMU35radS0LlwByzcvrl1YVni9BpvRZQZiXGkB53ZG38Eqz+Ir8Tu8uKOgyd7cUdZ9/hNog169BFrqV5+J8J+11F1fA9HKl1t9dUedxZvfwY8rcXa8vBDUaPj/EVBm635lFtUXaFe+gGoyLi0I025k4VQdugXU62OwZQsIGB/03/QLww5f4V9wF4sz1GuYrmR+sLjC8lm5om8Z5+3KHPpZT9EWQFe3nxbqydWlqpPVNXW0uFwozqZ533g0rBou0BSO5ITJISIIemmrWo8YhTauqRKIKIjOUtNqh6s4y1gFI5JjAQ1fuf3hRYDMHAWrGsH6ZFe3at5yMhdpOOfyCwNT2qsaYDQYMKpGan5h2csL1nT8SsVC8I51XqFU5KUvlLExLk0upN8CGrNzp9dLlIxw6dBCWQXQdXCkrzIkZc1Vs7BhT4qtR0KMBZwPHdVMMtCLsyjLeBYuGNSXpVJnwnq7AD6SClAN7WMEwxMujQbFSJWDFZ0SCkuLnweXxM6lqMC4yCouRSvHxKMxrTF0C2C+bCoONziQC8VoSRGKBx6K8S7ApMqhGE0A05BG/DkaxpZzaI1UFN9QvswYlwazqL3I+XGT0jTmq8EuXODcllWkmSORGe0qgC9tnsC4qNiwgqSROQ1pXX6DtcbLDDUVGb7IgSc0WZECkX3gUptZLcHGnYphDYxZnZJTMXtD6imYenqa2b2gYo9UlNVT4EtbC1GfXAhjTUp98p3OaoE640XTW5QH9vhGDlFqQjpXbHiTdWfd6oT1jbW3U+I3BJim9a33immXyOUuFaBiz2n9Cf1+HF8KDKvS7dxuMAwZDP55Km5bWoS+BQibGUst0BYgzTemWqDOnbtjqubrCWvVhtE2d3ZOovLABPAXhtXQsnOyBZTGfPEvdA2aGhNDh9232k26QMMaohuDaqMp+tOYGCkcBaeT5ypd8chaQ2qqYT0WW4Bw7FG12LMxedGw1sYtgMWeRbMo0X9J71C0+7gVNCjD4riWsSZkFEV0ow+Wy9wFtmtM2xyuiFWt0+CA7SjoV0ronGwB3bgD4dORFC7aAuRKD+PLqwuDpmEUfnWhURyHesZ1ckeQZY7qRGzm4YrcBTiv0625vnKd1/YstOeoo+/dLaSpbKe7VXxXZmzdAlITUpmA9TGo5i5QrrqaJGFRC7ejWYRSM57WbuBmTdx4aKWYD1qbdwLapMQcHr1pFVZlHqpuPdoP5qJ3AuLClXXV5acE3RPDgW7TdMrFBbKyrcLlQtvZkRC/dOwI6k72zuPGutEJBY05N4AqOzyPQeo2AbYwY1R0vQ4VIN3abdJAkAiS5jPCjMJDUbtlLQujcM10a8moKpvTdnFtTlvq85WE2P2jd+ZJgOiCm6XXClcwNcuWlYMJAqaarMxlW9Erb53s5PO1oYmjoCgGRfay3x/bxg2Qin5/plHQd2BGq2bJr8z5h+ZU7Mzh1ax87jH28rXAK+4IZBRo9g7cv9aMpf+Cd62ZQcmsyMI1NwGKp1vVbvzg8KCzZE3duaLP94LphDsVmwFSMW+Y+WAkhxJ0o0zvohtXcKZEhBdGIEN2uhVFQzNDj82aWGMmCu101kgxJz4a2VhzElrRltU+xDAbpjvSEREHgpvNzG6M/GEGJsm8poUuXLNmgMRI4mOA1pMAMp04jTn7SxFTCSkUl9s9Jm49CVDVVjWzm7j1vVq3ZeII5dGGfhdo6MJVp/VvWLpQp3oCQSdPFGZDlUDi7oFq8xiCTh7OUjWjGIMkScAGaaTCtJM2hzrx6MvaX9DJ405bEfoWwEdqWrQV/PPEAWiV94n5L6pxFaeEhcO1qW69IKyvBnklnqtXbVZmkDfSI9k0znRcEVY6nyROlC964xaWL1Vjd1l8MKwjlRVrtd4bHtNRi14e1sNBaaIMqZRIqDaXltV2zQo3TGYktQkAPLG7WlvzYL7QZIlB1sA25mEgGFiT1o5xzL3XawM+ojHVSJo6VsBWI1/kKaj1MGCcGXYPg1cxJ1NtdGBD56jYSG2eOF6cXQa/ZzBk68QACuaL5ZQKz+SYFsujtdzrJf/JcN5eL8UrGfereBCMBT7FZqVyCq0M47JlhvWuJawJ/fdi8WxCH61YOHvw+ena+3vwhJOm2WSeBxcAmTL6Exa016urwhNCmp7nxOfTSjEy30dzCi4Y7p3sEvVhsWnYhffXkV3MUMXECb2PxI1QzOMoPJGmakaYKfGKRe2VJyRUtRfMiB/opzLcoz4pRmrDc5OKnv+GNSql2Fx7nqhgKUhu2y3Wetx5f4vyOzF4VQyhGLy/RhfIZXalGPcApmhjwo8y0OP9zVpIzgU8xetmsQykWMHPwrrcYqQxjMkGS6aux++TtUYwAgAWUAV68DCzrBY4XZgkw3sSZ6RjEFhVAXzpZKzhmU9pehEQE0oc/KkS6l3o6fQiqMeXtvnMW4BKCSK/IC/N3TPl0NAkMVNbDMZzfngWkNTpBT98ccyqYa41LzWXF/zw2YaDX/DDx300unccRWkDzhPTNYaGkJ1mVqdsyaiY806PNO1oLPSiYoyH4Z84/HWqmsk8ei/CYPHDEw84d+LmhJ5CBM6GpZPrnp1LmslQHpmku0DBbG52euvC48d9lmu5Gv6qzOecBMlDFVmuWPiSLcC5iEjzeJFbIhP9mLHzJEB6KQTkHZizNTvzOXPBBYhhAjg4tWtxZ+ZugYA9LIuIR8Oa9C48pWx1LJlplbNV2l9gadma9C6cmdhXCV4Onrne1GSF1aOdttL8whPwIo2ZVQAtUFOTVTJPRK8aMZTCk4et5y6CCHoHj9kqz5iu6tRf8JLnagz0PLU322Cm0lhrWJxUeF5CtsDnMXzvnYDY6XJh2K3nrlwYdptuWi4MuxV3Fq6fyNYtUHjwS8yXLCqAU6yzMT3ziMRsxJyV+0KylY9Wbh7ONqq4Jp6TbdncmOtGAocVFWb+SodVg/JgwmyD+urFnT4Ux6s8ZSUfr6jSQc0k43OpTFqWjG2lNlTGMWNIPiuP90uWYN4CdJaSzZeqPLAvOXs7EzdvAcm3VJ6BkqwzsU483mnaZ51Y/RZz6JcKEEaRppIaVNYaybz7yiSvyZieK7MvJoPxo96BBbRwnunekwH/LWHmK5l3/6g7eScgn7WxmklD4+nGAccW0CaMggnmZASprWB6agfD4sI1pmBNXfNr0YRBSqArAL0FyG9NVqzQeJhT6qoEGheNRBGK7EPHJHl6xQ9PGFmgGB8vUBt8NIy+ojFuugUk4GhcHpSaEfsz1WGyzErjUUsBDslLLwz8khUVtgs1Y12unedDp2ro+IFwUbKB4VuA8g3JJph3Tliloi/dGdxMxZr0MkItyUnAuQoxFXUSe+ELlDXJFfzw9EhZTVZvGANtAW00ZEaNZONA+sUVTdZtPFiRWWVETKcBJ/FRPfQkQGBOSprb6DymKKqHpBH9YAfLSI/HgQFHMnKJwcNgI9swVIACvy0gHaIjMyWNRpYjM7uRFlSMwux3NqK5MIGN4sUxc4UIPlTDDJ6GaCPNg8MBn18LhBomHpxJo2FbgbmrwV9O/ecKwEc/LT6PFiAxW+G0E8oF/1MB0MHX2EjKxsR+man4ULRlUw+pemCDQTRrkB48T8HGvMT8EOotNi7ri7lKRqGTkOvFekYml2WaDxyEBvj3lbH8YgiTJZQvBhMaKRG38Xej+i4IO3Xbr8LzxRRZuKBhstFFwexBTW+qf+bFDEOl3w0udKq91zhtNp57arTjnXssXvCa40BcTVRNroBsxi4/cMiRwcGTJ0FZzfDk4W42PmXyMOn6gqUOK0S1YGMurhcwFmAmdChWUHGgvi3GQM18WUXt72LOi2IklRzlW4d/MKsR3G/0joWTWcZ2Wjjz+oLRElO7iv1ckHJa/UgMBiDs1L5nwxjOCp7XBUypycGghoT9tcGDq3NoYtSunBo09HoNrLi1qGFxhXdS3HexPklGjz4xZjiMiZMr4I2/bvHAg0P957WwQuswslLu7TIgfXFpw2G8/wxlHqd1e16Pzy/29Inm+Y2A9qZdC2R7ItxhAQ0Xz/Wzop3LL6rcxlc7dtiJoIjBWbIX1g+8+vuksV49PzXhXK/f/+OPn75/+fEfv/z6229/fv/29e+fn///X75++/y3b1//8fvP93/688tPf3ze//W/);lineShape=1;" vertex="1" parent="1">
                    <mxGeometry x="39.4557208483281" y="30.136837203389234" width="120.74402050477453" height="88.0210158873966" as="geometry"/>
                </mxCell>
                <mxCell id="3" value="mid sirf teen jagaho par ho sakte he&amp;nbsp;" style="text;html=1;align=center;verticalAlign=middle;resizable=0;points=[];autosize=1;strokeColor=none;fillColor=none;" vertex="1" parent="1">
                    <mxGeometry width="220" height="30" as="geometry"/>
                </mxCell>
                <mxCell id="4" value="" style="shape=stencil(nZ3dshy3kYSfhrcTjX/g2rt+D0WIMhXWigqK3rXfflFL98yczJmvI/bOolFnuhtA/WRVZX0qf/nzy09/fP6Ujz+/f/v698//8+vP3798Kv/xKedff//y+duv3/f/+lT+81P5yy9fv33+27ev//j95x///cdPsTL+1399/e/4C//8IXfcjhxC+fjXj39Y69bT//3LX3+s/+3X3z+sT0PX50rrS/u4ft4Grm9d1+eD1ndZP24Ln38sXd/x769D15eM6+3vH7A+3ZL8/X4buD53XZ8Wra/l4/p2G/C+yb5/u+VG64esrxfPP5euL/D82c5nvR1wfvItyfOU84S8WV+yrqfznG9Vnj/fJpy3fOtT1xd8nin3K50n8OX6cjtsfYXnKXZ+9omF/Sq3OnX9v0/Um/XyvnPdFpyfou+71//7F1+u37tvf5/uV9X3nfM84W/W16brE3zPeusfz8/c+gTOc73NQ9fT/aqqT2bH89ZObfm0ns5bO2/ffX1D/dluber6Omj9sPV0f9t5Wu7rK9qjfu7O0/oE56fbeSj4PffXm7q+wvfsqh/2+gTns9+arM+nRn2zfhy6voJ+uJ+Wp/V0X7rq55nOG/1y/bZuh64voB+G2ru59Q+cn307kq4nez3OX39aT+dhnKf3XD/WbeDzyH7t9QXu7zit4X39RH0+brPrejpvQ/XDuP/Ly/VT78te3+D556mdntYf+PeLPH+/dfz7cl8G+zPz1j/u72h4X6b6J3s9+W/ztIb39fW0UC/Xb+vTdX0F/ba9Zfn75bbgfC7VP3t9A321bs3+/oHPL/7zyOcXfrN+Zl2f4Puv8+3u6xPax7Sva1OBBC+QLMIYrCG2QBsqgC76oTa7L/RZU9JD0fcxhE3bAqWqwMEC4nb0rSj5kdbHe9+35YF9TlkVb7+b8ncCcpO3wEGRQz4V7V2goulI+yR/vPu9oG7ZAvnj4esZlWO6360ngQK3eQsMeaSE4e0WEP9mC2Ta6ar3oR8cYFU7SwdHcPU8CKdAW+gSbQHxQdrFfahq1NrkfWi601sA73Q7jfyTAMEGW0D8hDbOW/5OQAKhLYAv3fSKto6RUGpqqrZA40cSbGILkK5P/byQd4GGzvUWkGhiCyQ63l2Vcaus7u+v+CSQwZ5sAXEAWjkhnXcCgvhsAVQzXa9oy+gCpKE+1RagGHwLSBDSEh+N7aVmFSAvYAs0+4WDPqv5qe3Cipqj2g6201MjhcqedjJXtV6omXkiN08CB73DdlY/WqA6z0v7TkBs3BbA0zpVCdRxBljvBEZTAbTT8zanCpBDlpYiarXzPiyFfCtDCltAdGttfLyXKoEt0GgflqJMWwCP91KYqdYzkHsNwx3qwm0Binu2gPgatSDQFEj3oQKIbB56Revd5XonsOQ+bDVDj5QUPN0CFTZuC0i0V++/+U5AfO8tUGGnA1/+eOPK4l/Ip+P8JEAA1RbIWQXI9w4I+ONnLQwpBgbcVADPkoHAhZMUuaiq3AKEOuWiV7Rsu0qftaiTuAVI3WfzjEtDIGkLSORdGiI3udpLVwwHAgteKpBAtwYYLPtQeB+q7XRBvRRwsLzDxZ1uakVLOg3xO4G0VCDTSze90+VAoxiQcFEBiqcDE/740nmhv7QF5D7kbfXotHZVAoFj0Vnqp1t7FxhoFB1HDuSRH0nCsv0vqMi6qpnAiul4d4V+4iHps3bF8jNj/w4+x2Gh+9AV/Y/zy78wP16gzPFDfMSiAoU2btjRqGew+U5A1EzkuPgXsgng4Rt2NDLf6aGxaOYkwBYQN3TbVcr6xemfKnDxC0uu6MHvMO3GHQjMBrL88bMmjh+2gNyHLUCYQGDFIjB5p6eCamlieLz1nGQ/dhhFaGvAxUMFyLsPTfrxPqSO+f4AgLMKYAJ8KRqaGBgMCHioAKVMtvlI8g71vOXvBCSJH5gWJcEPvUABs1GW3cpMUkFvZguIIgswEs7StsrHx/uQWAmUpGomEFj+BUklbAGCi4rVggTszI8khn0LkOYL30W+0nGGs+8EJJ2QDiwX2O6U3riDdzqrv7ROR/bd+iIFPHy475r6XM9QaDFYfaKTu9dLhHXXm+/Wd8mGYD5qrxfLMPhMZMUnBoIHJVtCE7MI4WBL2uFEUN6tlzi9o0Ld66VAop1n9t16BTTRa4v1gisjWh8RiEBQrBuLquuK3vxev3Q9meVSFaqv6OEVy2cUTI0VK+ApCBjs9Rq+YCRcLMbLZ4bz3Xp1mhGqKlX36443vFuv5pX31wqEEuufZgqRjUBTD+SePn23XqLBg79/0yzggZht6XreDj5vXe/7xfPcg6zHetSf/YxEn74P6c+h5//g/R1n+cfT/vJ60c8J04UBRen5p3q3YgUeDFjs9V3Xo1szFbQsfF+soKIgsBtooOAh/P2XZuUqusfVCqor6v/quDF6QHt9+/h9GCXb64faF6onqknj44bnZ6+X798QYw5E+eP6zs+fzgzlYz1hRXv91PUUYVUrGO7o/1Tzxwbq2/rCv8LzYNgv56Vr0UTFRMSxFk2SMTK210tAOfn5i+7XxCh9r5fzyTm7vX5JATPqh2qgL/c3VCvo5frlaoBsFCTRCxsgGwVJVDFsJbqJoZVInknAnc6q6XcCwwTIyEQ+b6oAeZW1q5aIgiRSo90i9IzxcyQxLX7GjR6qqKO+iE6elZZugUKfdWiWMnGtcZ3q26SKWP0W0JC+IiyxBYaBN1jevuyROJ6pSytAouqEPqtVIG4B8vDr0vqMLUD1Ge1QlZcG+nRbQMrA0kCIq1lXUeK6gJbU63ok/t8J6GddCO5vAamTiaQ5nKWWNPALz5pe2pCScH1h41q2UItrv7eA3OlHwvm1QNE7Hd4vfVZDA8L9pXcoGh5c+L+tqD+SuZqoVTXo4QHTTpuFywVDkC2giSL2gbfAsKxMppeulg2ofPisfi9XPhpmFCMVRV/JyvG2AAFXrVkqqmOiKIrvlgqQa7gFxKCEr0ob5wm7wc00WzEWFSCT1Ya9w+ALNFQvRWKHLpA1UEQLAO30sHeY3AE17R0WQmpbQN9hYd6nWVVXuVCVU7tqyoWqXBqVFC6s2QISVpULVbkUlwr0nl56qeNdMuqlKDu22gbSS1ug2i9QLNatIqqwR9atO7dcdH8lRfcDX6R2KzO7pV79gj5S43fIqvkKR9w9W41JRwivW4gYoBULSIxbuHqiV72iZfJLV0XVAyeCO70FJDVb1gmcvBZoml4OJAdsXG9Wg3hgZqZ3zfBVLv3fApIqqnxFt4BiVdxs3IdmWrcAmd1u7XKVfY0tIP1C9aI/c1oNYkVAfguIs76jU+rA2gJSuVw7WtG+VJFtAXIdtoAkTis3+W4BOa1bgIrah6OGE9M00RNVVYDyWMNwwHrR6JhUL20BKtIaSb3KHUZh6+jdNX8SwK9kWN0OcghE2ALiazRu5xlFa6MbG8Xh6cGM9RlbQC7QjiiwobVqYU0rWEIVDYtSyV/5HarCRREg0MY1VfeNk5xboCYVIBQ0mkDlpTufpa5RVut8H7rlgdmV3gJSDLEFsPN3qH3YbiMBIVtA2hcaG8VhgFTj2ugxFOdrjIaOqbHow6l7J9BM4OIXpJ6gM+HFWBpabgEKwMdS6HF7UBTtRse4CdB9mIeSWGwPKlGT9KGHL1wuOBrRJG+9lVRGEV34XQUI15hJG8PD5aJG7KSoQ2+4cVtA224b9s7MrKDadogIip/ZWiU7Iuszq3ffuep3C0hR+8Mhei1QtOOuTzx80whaOhMsbQFxEvvCCphZFVQL/wY03xaQkoG+0KucBkhtdwU/a7Wu/gNt3BbwNnQCc2ZTn+/h37wTkDzZYNdhC0ivwMhYmTatCn5kdHRn11KPkTF+mAZIhX/DvyCA1CjYrTYNkBqFtcZQVbm9DzK70wCpwfHDHC8YJfDGDaOIYOdkTjtLHbHKaZXL40IvTfus3Jw8lwZ+g/sSp9UVBy8JHY2l/T9BfEJEEYdmmgY7J8uqfse6+gVNTR/Y3rYFlAznwAaJlbS4J9hw6B2SVYMmPK1bQLTG5IBjWVpnC1C6eWWNHybnRYPQzCiS8KWz7UPB9FpQrMkjVSYdMVa0WVEvbQE5S2Ex6KWLhvhhMegdrA7zYQBeC1hh5Vae1Fa1qlV2dOzZWM51xrWzy9rbJpMBbQHRS1sAH6kp6rAFyIpuAQnA52S+m2Y7PdENXUb8MJnMZQsI1DK5oTQYGZcKEJizBZb9AtU6LPMEJnfRbgHx7teBZW/LsMp1ME9RN6LJg5WAuQ4rIYgQxJtdBSitE8ye8g4ZncQtIO7PFqCIfQ2FKVbGjN8aRpeZMVUbbKnylQrfuKmh5eLOli0gBYhbAM/S1Fg0NBV9pWkcrRWzZWspcrIab5xRGoRaoHdYirc+bvk7AXHhFvdLL+uSWtzpFQLGNItcFMehpWqLezGWkXdtAXSYliqmxewVW2DaL1CH9VqazFrcQbcF9MpdCuhxvXykbo9EqaY4G/YLF59Vik6uN84F6GysZZqMU35radS0LlwByzcvrl1YVni9BpvRZQZiXGkB53ZG38Eqz+Ir8Tu8uKOgyd7cUdZ9/hNog169BFrqV5+J8J+11F1fA9HKl1t9dUedxZvfwY8rcXa8vBDUaPj/EVBm635lFtUXaFe+gGoyLi0I025k4VQdugXU62OwZQsIGB/03/QLww5f4V9wF4sz1GuYrmR+sLjC8lm5om8Z5+3KHPpZT9EWQFe3nxbqydWlqpPVNXW0uFwozqZ533g0rBou0BSO5ITJISIIemmrWo8YhTauqRKIKIjOUtNqh6s4y1gFI5JjAQ1fuf3hRYDMHAWrGsH6ZFe3at5yMhdpOOfyCwNT2qsaYDQYMKpGan5h2csL1nT8SsVC8I51XqFU5KUvlLExLk0upN8CGrNzp9dLlIxw6dBCWQXQdXCkrzIkZc1Vs7BhT4qtR0KMBZwPHdVMMtCLsyjLeBYuGNSXpVJnwnq7AD6SClAN7WMEwxMujQbFSJWDFZ0SCkuLnweXxM6lqMC4yCouRSvHxKMxrTF0C2C+bCoONziQC8VoSRGKBx6K8S7ApMqhGE0A05BG/DkaxpZzaI1UFN9QvswYlwazqL3I+XGT0jTmq8EuXODcllWkmSORGe0qgC9tnsC4qNiwgqSROQ1pXX6DtcbLDDUVGb7IgSc0WZECkX3gUptZLcHGnYphDYxZnZJTMXtD6imYenqa2b2gYo9UlNVT4EtbC1GfXAhjTUp98p3OaoE640XTW5QH9vhGDlFqQjpXbHiTdWfd6oT1jbW3U+I3BJim9a33immXyOUuFaBiz2n9Cf1+HF8KDKvS7dxuMAwZDP55Km5bWoS+BQibGUst0BYgzTemWqDOnbtjqubrCWvVhtE2d3ZOovLABPAXhtXQsnOyBZTGfPEvdA2aGhNDh9232k26QMMaohuDaqMp+tOYGCkcBaeT5ypd8chaQ2qqYT0WW4Bw7FG12LMxedGw1sYtgMWeRbMo0X9J71C0+7gVNCjD4riWsSZkFEV0ow+Wy9wFtmtM2xyuiFWt0+CA7SjoV0ronGwB3bgD4dORFC7aAuRKD+PLqwuDpmEUfnWhURyHesZ1ckeQZY7qRGzm4YrcBTiv0625vnKd1/YstOeoo+/dLaSpbKe7VXxXZmzdAlITUpmA9TGo5i5QrrqaJGFRC7ejWYRSM57WbuBmTdx4aKWYD1qbdwLapMQcHr1pFVZlHqpuPdoP5qJ3AuLClXXV5acE3RPDgW7TdMrFBbKyrcLlQtvZkRC/dOwI6k72zuPGutEJBY05N4AqOzyPQeo2AbYwY1R0vQ4VIN3abdJAkAiS5jPCjMJDUbtlLQujcM10a8moKpvTdnFtTlvq85WE2P2jd+ZJgOiCm6XXClcwNcuWlYMJAqaarMxlW9Erb53s5PO1oYmjoCgGRfay3x/bxg2Qin5/plHQd2BGq2bJr8z5h+ZU7Mzh1ax87jH28rXAK+4IZBRo9g7cv9aMpf+Cd62ZQcmsyMI1NwGKp1vVbvzg8KCzZE3duaLP94LphDsVmwFSMW+Y+WAkhxJ0o0zvohtXcKZEhBdGIEN2uhVFQzNDj82aWGMmCu101kgxJz4a2VhzElrRltU+xDAbpjvSEREHgpvNzG6M/GEGJsm8poUuXLNmgMRI4mOA1pMAMp04jTn7SxFTCSkUl9s9Jm49CVDVVjWzm7j1vVq3ZeII5dGGfhdo6MJVp/VvWLpQp3oCQSdPFGZDlUDi7oFq8xiCTh7OUjWjGIMkScAGaaTCtJM2hzrx6MvaX9DJ405bEfoWwEdqWrQV/PPEAWiV94n5L6pxFaeEhcO1qW69IKyvBnklnqtXbVZmkDfSI9k0znRcEVY6nyROlC964xaWL1Vjd1l8MKwjlRVrtd4bHtNRi14e1sNBaaIMqZRIqDaXltV2zQo3TGYktQkAPLG7WlvzYL7QZIlB1sA25mEgGFiT1o5xzL3XawM+ojHVSJo6VsBWI1/kKaj1MGCcGXYPg1cxJ1NtdGBD56jYSG2eOF6cXQa/ZzBk68QACuaL5ZQKz+SYFsujtdzrJf/JcN5eL8UrGfereBCMBT7FZqVyCq0M47JlhvWuJawJ/fdi8WxCH61YOHvw+ena+3vwhJOm2WSeBxcAmTL6Exa016urwhNCmp7nxOfTSjEy30dzCi4Y7p3sEvVhsWnYhffXkV3MUMXECb2PxI1QzOMoPJGmakaYKfGKRe2VJyRUtRfMiB/opzLcoz4pRmrDc5OKnv+GNSql2Fx7nqhgKUhu2y3Wetx5f4vyOzF4VQyhGLy/RhfIZXalGPcApmhjwo8y0OP9zVpIzgU8xetmsQykWMHPwrrcYqQxjMkGS6aux++TtUYwAgAWUAV68DCzrBY4XZgkw3sSZ6RjEFhVAXzpZKzhmU9pehEQE0oc/KkS6l3o6fQiqMeXtvnMW4BKCSK/IC/N3TPl0NAkMVNbDMZzfngWkNTpBT98ccyqYa41LzWXF/zw2YaDX/DDx300unccRWkDzhPTNYaGkJ1mVqdsyaiY806PNO1oLPSiYoyH4Z84/HWqmsk8ei/CYPHDEw84d+LmhJ5CBM6GpZPrnp1LmslQHpmku0DBbG52euvC48d9lmu5Gv6qzOecBMlDFVmuWPiSLcC5iEjzeJFbIhP9mLHzJEB6KQTkHZizNTvzOXPBBYhhAjg4tWtxZ+ZugYA9LIuIR8Oa9C48pWx1LJlplbNV2l9gadma9C6cmdhXCV4Onrne1GSF1aOdttL8whPwIo2ZVQAtUFOTVTJPRK8aMZTCk4et5y6CCHoHj9kqz5iu6tRf8JLnagz0PLU322Cm0lhrWJxUeF5CtsDnMXzvnYDY6XJh2K3nrlwYdptuWi4MuxV3Fq6fyNYtUHjwS8yXLCqAU6yzMT3ziMRsxJyV+0KylY9Wbh7ONqq4Jp6TbdncmOtGAocVFWb+SodVg/JgwmyD+urFnT4Ux6s8ZSUfr6jSQc0k43OpTFqWjG2lNlTGMWNIPiuP90uWYN4CdJaSzZeqPLAvOXs7EzdvAcm3VJ6BkqwzsU483mnaZ51Y/RZz6JcKEEaRppIaVNYaybz7yiSvyZieK7MvJoPxo96BBbRwnunekwH/LWHmK5l3/6g7eScgn7WxmklD4+nGAccW0CaMggnmZASprWB6agfD4sI1pmBNXfNr0YRBSqArAL0FyG9NVqzQeJhT6qoEGheNRBGK7EPHJHl6xQ9PGFmgGB8vUBt8NIy+ojFuugUk4GhcHpSaEfsz1WGyzErjUUsBDslLLwz8khUVtgs1Y12unedDp2ro+IFwUbKB4VuA8g3JJph3Tliloi/dGdxMxZr0MkItyUnAuQoxFXUSe+ELlDXJFfzw9EhZTVZvGANtAW00ZEaNZONA+sUVTdZtPFiRWWVETKcBJ/FRPfQkQGBOSprb6DymKKqHpBH9YAfLSI/HgQFHMnKJwcNgI9swVIACvy0gHaIjMyWNRpYjM7uRFlSMwux3NqK5MIGN4sUxc4UIPlTDDJ6GaCPNg8MBn18LhBomHpxJo2FbgbmrwV9O/ecKwEc/LT6PFiAxW+G0E8oF/1MB0MHX2EjKxsR+man4ULRlUw+pemCDQTRrkB48T8HGvMT8EOotNi7ri7lKRqGTkOvFekYml2WaDxyEBvj3lbH8YgiTJZQvBhMaKRG38Xej+i4IO3Xbr8LzxRRZuKBhstFFwexBTW+qf+bFDEOl3w0udKq91zhtNp57arTjnXssXvCa40BcTVRNroBsxi4/cMiRwcGTJ0FZzfDk4W42PmXyMOn6gqUOK0S1YGMurhcwFmAmdChWUHGgvi3GQM18WUXt72LOi2IklRzlW4d/MKsR3G/0joWTWcZ2Wjjz+oLRElO7iv1ckHJa/UgMBiDs1L5nwxjOCp7XBUypycGghoT9tcGDq3NoYtSunBo09HoNrLi1qGFxhXdS3HexPklGjz4xZjiMiZMr4I2/bvHAg0P957WwQuswslLu7TIgfXFpw2G8/wxlHqd1e16Pzy/29Inm+Y2A9qZdC2R7ItxhAQ0Xz/Wzop3LL6rcxlc7dtiJoIjBWbIX1g+8+vuksV49PzXhXK/f/+OPn75/+fEfv/z6229/fv/29e+fn///X75++/y3b1//8fvP93/688tPf3ze//W/);lineShape=1;" vertex="1" parent="1">
                    <mxGeometry x="189.9957208483281" y="29.996837203389234" width="120.74402050477453" height="88.0210158873966" as="geometry"/>
                </mxCell>
                <mxCell id="7" value="" style="shape=stencil(lZ3bsiTXbUS/Zl4r9v3yTMn/wQhR5oQpUkFRtvX3Ajyu7q5E9yrybXh4cKr2DTuRSKC+1O/+8eP3f//hS0n/+O3XX/7rh//5+pfffvxS//SllK8///jDr19/s399qX/+Ur/76y+//vCfv/7yz5//8u2///69/6b/62+//Lf/hf/9Zjfm0btblfSvbz/J+5jj/37yH98Mfvr686tBO9pWg1bBIB+9XA3Wsfdng25/b6rBSmAwj5TUoE4waOcbPwzmsWDQPZ8v8GJQ82eDto8iYxg4rW2cL/BiUBcYxDGMI8GgWz5n/WHQjwlPqPsYUw06DLrOo/VgAK9U27FHeKUGBuV8gReDTWNIRwrTWuAJZR5jq8GAJxQbYtwa9IR61LBbM0xryUfaarDhCXYgk2wNO9Nw4uyN83WlSzpGB4MWDAoe0Zx1a9i80RHdR5bfX0eCNwojsJWnjdGPcXVKthczDKCpE7PNXgtsvPPp5++3dCw6O8e6jtfON//+/++Ax+/bnoD3sfe/7qFuR4k8nh60bt4F5nPo+5sXT7DlzKNf33+Uo9KOe0zfw6CfS/LeoBz7egiGXQpwT5knKVeDmc+ffDo19brnZjsSvZKdwuvJn/M8qe9PftGbcCU26Ee7ztIqx2B3J/5xVdx3vnDySjZvcHDsHI7rSq+BJ998vEzrmrhwfnKvZ3MtXLjaj3U9DGujB7azPoYabBrD1st52/6FV2rlPL0Pg8K3edMDZwbjBmBct8aueBO2pZjHDGgMPZ0X5cOgHQWm1VzQqGrQ4ZUMt42sBgu8hjmtIWPo58Xy3o2lI1c1KODHRlWQZAYVzoMB7lLCE8CzTrvI8h8yaG/WYcM6zHFe9i8GtJfm0jNtBpW8fQnTWk/X9t7A3jhs7wSvZD4iiUHiV1qKAOwnGZ5gfy9dp3UxHN75BL8vzphcpQ1xXZ9gE03u3iZRnjD7eULeGzxAzsOgns7zk4EcINuOjQy6glXb8HQD7XBljcfafzIQhG7QIROU7LqXDJsQ1tgGda7b2/wIoVs3EHTVEP2YgVxZFmGSm3GDgPfoALmBAMp+etuPBtc7zu4kChriLBnEpSvL1mFeX8kxND2hnxHwC0gfvFsliDYwQRe7X1BXAws8OvhWP3FXR2YICvdSUTdjGI0uRfMacscZCiS6xPxSlzEkBCeOjiSenOjuDbCJX3KqAc7D6grh8sOPvDeoegM5fAevsfI5xIeBRZiwcAacBd1bREEnzlxvlTsOPaVdovU6q/MkNz7d0l1/P9ElXUIAhBvPYcPVc9vxI5puaUTZEXWPcczr+zTcdebVqzgk9Ecjn2Dz+fu0XubTs0TcGNCbS5ejX/H9ez3vveffJ0LC0HDX8RbYP22ey/MyP0RI9HO7PNeLrhzz5lWuHJz/+qCMnvsN47ypnnGcAfinIEwYlXl6mfe/b/MvMRhGIzUHYI6hgv05Ob/mUSZsiBKdXGWmMIQ7znbSEywYCY6agvMcx7DZYKqBvSRFL85iX72KTwO4OWexww1LmNYMxC/aytNBtjEIVWVbkS59mxM5CS2fz/y0DgKzLfq+4W0kGLHom0IF8z2CadtGLOVEjyDOjMfBYcp1HTwJQudh6/b2NAs4MDtwAuTNJROJ7Cf6updG5nRBV6Rj0TctnG0EIUmcNKSkSlIaeUwkq8yrihcbNzxsU/7MLmoK2exe0JCtsKMP3NN8gNb3N5X5OfHEDaGLXYVCVhn4yUS2d0Vrc57xzHuDqbkqj4RhlkY69+aLAWHa8aDXHgZ84kZT3sYMGhE9j/vyxYAYa+enczAgCJk0VHADwrQlTOvGzTdDcO4GsJdsXXUv3RhsTZS4AcyScyjxlWAMy/xcCwYUjAxN0PlK0xP2Ua5uxoMHiiKzYuc5mHuqmsywpaQD5JGwoLeNTsBibXWV40xsfgr/5QYalZmhEV4pnfP20UAQ6+TQeej94J6KprUrX+A0DL1S00TAHQ1TNMPdOKzyPIGAk4Jxg7OWgpcWAmkLzuVCsXt1EF+QT5nAC6tyQw+LqzQwQbHnDEe0MNaYYZYsWsLoduqZdlaFEgFVw+eS0RnbZpb4zWDjZNWKOAEzwIiyBWkCA6weQiCX6hB0WDpofwLliMId5wEHPSEQPTZoCisNmkdpAjky3/3hCYtQZUiM2UpjgrIqJ174PNSs3JPtVnpC2YqMCzvjssITNsZxTk4JF1tQL2FPED659rtXkiyUoXF8QpAbGRpHhiKrzMV2Fx1RG6I4sjbYoKlKwcE1GYQslJ1BcjOeKL6+kp1y0pW4ius6aBdmwBNcJyY84OSAI4T4nS+U6DU6Uy09BWkGn+leNH4wA6KHLeDIQpbmk+775IxLMCAI5ymkpQYEEkfAfG5AV1bI1bkBDNoBWwkGdMctBSduQBd7VlXjzRNmSJfcDNrzly0YgJuxgEPoIl9pwktJnYDn/AkvBQjXWUjkyQwhQjpO6wqxqJ2QmzFocm9gSGOzJGDdk3sEsJpKau1eJa9h4YXwGpUlASMwWJU1h7aucqbtEqOAwxyjeA0HieQ1arhFWdXYwqAdOpDMZyip7vCHVb6SpXARGRNSOWA+GkMNOgjHrSSGCmSOzRLKraoKWDwVQq8UVL4Gfyi5V7Peok4ys4HEorVgpFiDnrMORPeRq3xO9CfoIN67JQYnOyTICpObRa+sp4b80+YTns/xPmGNqeGA/QSTWFtlwa46ozOddWvYnyARu53pLmnNhGC9h7SOPZOk/nYbjEDFU8J+FD3T/SGP+kg95mDASEA4gTuDHbh7puJn0HP3hGMwA01vcpZmPPzcy/YmGDrmG8k1wp93ehR8QtUUszMnZJCUGDQ/Qr7VYeh1t5pfSqyIrNdp9VuU0uShksVLJCjE3xpPuwEnLDQfl/kJQ9kfgw54KY4waNbJ+RPEzbAuyPem4KWGBULmtiRoaoMDjhSSkBURWU/B3WfMA5mBQDh7AkqKQyzq8TQHflq0UO9mSae1Ijfje2moAV4o8w0ngNmyoH31a5INRJPf2FW2oQVC5pdopR0kynnYKKVosfhl8wEKWpPKYoq2ghJvIVj39HVTAyJo29bArzKE60Gp7fVqfOJa0CtSxN6DsK5xdqCnN27m5ohqHFeQOWmRI6vICTxlBK8njg7QUiTQHkz4x70Ujihu7+hbKyq7/DyEWbphpfXEZZ7Wodoi96006KG7tTGJ0KaqterGxNF7AzoPgausi3FrCwCLuUrHGjF+oCdU5Wae8/YJnIjE3vYvQWkvsxWgm7DUwaZVxtATBhw2RJU5LlwH38xFZ4kCPz/yYsBQuoUsfuVChOet/ALhMEszFLeWibGozYm4e4vY0QlsHYNnOJgCFvloGShPdwp46hhoHXrMWi5MWDypzJdpJfmFxXEijnCmg2uFZiDVaNAz6Sx5TTYRgyXAn4Q5dk/VBtxK3tslJOIqB9J2TgGL92ahzQyqf9ssKKWuSrX0iukEC15VicBVYTOFPNDAhPZYWn1hBphOGLq9O+eyRijZ7nziRmAS+8Ds8QjiOTdgCbYcIJtWapLgksUZ1oGeEJjE3viVAkh03TcjY0mJuKcicBKrkTJWtnkQFigvTOClUBs+EcJ59BzuaYoUa+h54IJYpk+1uCizOjwrk1hZ61B24Fsn1muYc5e8qPlWTGgHoOssMpdKl6BqIZBYtnIzhStunRwKmhMCus/r4zTIi2nspYVqeTJYT6FZxWBBbGBD88AsTQvlrf4EeqWpl2Ke7GZSaHGzbgWxoQSL0H2fIXFUOLdbdB1KZ854qFLNCxxucruBesSCp66q+DpQujCDovyGoF0lQIebMuOmqLKxEHOFYgPz3nQ/eJmxGHBKZIXQsm8e9DvpApFqK+bYGZGtrKhysOZkBgp4dAyPXQW81YAW7k3avyM4eSMsYDnSG+lCZzQTxREdA7838osbgxZKpTt6DdsI4vkGCwtcpBKapmDKfGoc5wtHBiGkMQPyGn6+ZC81lkkmrXx2JMshvsCfcdPoogcJSeFeQFXByWCpZws9ULw7DuvI5H7onC0zRCbeuzdMTbkWTmBowRyKxbbqvTdGWQ5/hMzpGLxaQC9KhMY9ikpXUa+BxExPCP1DXMzABhpPM0FbQoRioI5CS6/alHuaRe5eVilah3onJhW/5AIPqpqKdYqLwXoLfd8Wnrg63iEyCjiWcgJ5cne8pFGW9zjjKKsFGEpsqIdIEbcSoxuyZd5Z7qYuKwBdCvx6aJqSB7c1DIFf5o4MrsGSQS88caOF7ngbI3a7diVrWRJyxnaxi/zCoTQB3a4MlsvCyCDUi7rwjAomahDPJTyiKyQsLGAmsL52YHQHUo87SJ8rC/W9x1BIHNFK7xkMeLfupfF0T3gp7h3AesWCOjMQ4VmfmI/LKeTMBwfU8Z0Ga6r2Uk3Vc8d/mletncxIMO3QSXQ2rlEKvf4MvxdugqJ9ijaCDdt9IpxZrJPcSfM6i6HAWhoq2iEk/cUKaN1lu9RxJNQomQEpz2KhohuQpmrrSrsBOaZQbOkGJMeO7QFvDIqCjTuDdCpGfqfBCJUrbsDERgpjoIUz9L/CLCHXkrVzhzt0SozuMIaCjsmVydLLIrP4J5RzuoydMqlFFR6TK7mc8xKDxYUoS9n+OVjL09XfT24B26pi6XmjXcihNJg7g7kmRQwSdzgeGmaNhdNaQ+p18K3obUtCuEvyIi/0ip1UueWnxGWdm4SU0NKtT8RwpYZ6hsaBXH7TDo2Aa96hmdBGzitPjfwag29DzlJ90yoqC3Jo7NC4ECXXUDGx+JVqUJNyS55cgpCMC+RyCUmUjKDPDFR4v1B+Grvy3rRFskFLTFM4Qf1sav4SBBGlm4O2LfO16+3VJAjK6JeeWZzTgEsyYvPlhXeo/2/pcMDVD0lj3ZvWTmGVuYlqbaq559ZdNTSPrqhcqoHWLBj8tFDtUe5KJsVZZOSW21RYxQ34XPu75Pfp7/eq401YcNNDAwvuGt2DiiphSDJCN1du/PhkeJ+/T9BiTE2BcIucsTVfx9WhXosgB5gVKTXkZTGMNFyjBU+YAjUcL/6hIvXk+Rht1Ue5wJUDCGE6IhRsTY50uvof7q+6ZuDauFl/bLDiVxsFzSnkuRtTBSX0xBzYinpXDQftHuncOiS26aRZ3SEnZtsC+9wOFQd7y0emFuTcFMb8O6gBvLSDDYScqxVLbPZWrFlvWu9uZfOc2KJXCkKRuz63O3R/69zROBqwZDQa9Bt6JIyhN94aIQdw08wtTmvfKEXZW1Xd4+aIhn6j46Z3dShUtdgLOc+lrNPkavUdOrLMhkBkT6XDJ0dGOxC95sspjvcOReGDDnT379CmbLEucBd1xpvru3aQyG2+3tZURO6MI1NtIlBwcpkL6PXrCQu398qa597svWf4pM7m7OcMhUibO7LM0M/16RZ+Jze32fPFDwm88N2fgJhsps16fP8awggGBA1TWIiNYXYPh3o/0NAnMCyOyQywQrK9MUDNaBDKujO8kTSE7UoBXlthb3ALihZI0s2SN9dvBgOK/L2yScbALShaCgeic2uc0HFoc+f0GlrN7oY4tDa9dx3V3YgmxIBL7v0jVDJLmb/Hs1TBthM+oYQmF2vjneXt54V75i9rGeqU7P5iSFay5sQWE7059IC8+QiRQe0W0kMkOHhqUF/4c8IOOWwNbzRDYwj1KZO/oZKDE/AqA4palS40+EOT1DVovVGXha5mrjsk4lmzJJ07MQQBXu+4jUIxpbezw9/XcueBot0UKiOZN096F95U5aZ3VVqkNQrVRBmTqqHy37+Qh19o0857DRH90hIWDz/pUCZlGQo3MMlBCmiOgLpU2KGU7MtdP/ShRFIeeNHmpQWI/n1JwFRxV2Ruw+/LHJiJQsesaQSQKwpXywyCeg5wY9lB5pNg12BZaoCEcyw74G7lNTCqme/NGnLnbsBFlDoGrn5tTUkuGzQtnDfDqWqAhaCh40m+yTuX8JHZeicQ0w+5NGTy+1QawD/kQtT2DtTqTZ1C+MxHvhFBx/KPjhIdL6IMqjjSGY2oihvcPSeUEmWuhBihN2Zm8OxXfayqoTHET8BOVJSNQLzd+NYROgu46PMPdRvMi7vnrJDJY9W080Hhu7cEPKP4JHNr8DHfNMi96Tv8Bz+vfW9g/3h+zfuvX3/66dvHwF//v37923707cvh9c//Bg==);lineShape=1;" vertex="1" parent="1">
                    <mxGeometry x="203.71048814677846" y="80.05238714975084" width="6.587824932899855" height="5.139086394921096" as="geometry"/>
                </mxCell>
                <mxCell id="8" value="" style="shape=stencil(lZ3J0gTHkZyfBte2yj3zTEnvQTOCAxgpggZiNDNvPxmCenPv/lK4Yen4qyqXWD08fih/+tdPf/7njz/k61+//frL3378j5//8ttPP5T/8UPOP//jpx9//fm3/U8/lP/5Q/nTX3/59cd/+/WXf//HX37/93/+OX4Z//S/f/k/8Rf+83e5dt3mFVL5+q/f/0tKt5H/73/5X78L/P3nf7wI1HmbzQQSCIxbWiZQQKDehj1hThAot1zeBfLtom/Yf88EcgeB65anCrT6XaBM+4Z8W/BKZdyu+i5QbqWBQLvlpQL/bys/C5Rb6+8C9VZgH8repqUCC3a6XLdLzlK7NfjoPG9JXqnfrgEC/daSCnRYpVxvUwTGLcMq5XKrTQUGvdI+avIN81bhLOXr1uXwrVuGVdr/u1wqsBYITD1L+5kTdnovoux0TniW9r7W8S6QWeBx1B4C5b4znwWKao3YSlAC+36l943L7TZplZIJdH7CdUvy0eOuCz8KzPvhf/x+oeIbdx10/33cQDh6++i/n+2ydQx8QLut9/cv9a7Wvvy+vh+jrXMarOjWDu97XDq+T71V+T3fnHq73jes7HtASvjW34/Q1vsV3n8r3PfvrRnvWbkbmcfv6115fL75amprw2uZdX+3Kc3wvdskva/PttW0X/k23r+3pbsu+/a973+/PVb4y+/b+/q3juet3Nb7+rRx63h+xAK2dbvIsbjfvvvv+3U/4V/Ov6igvrUirE+79ff71cv9Db/cX1FAvd53/Mvvx/t56Gwtx63I78etgZKear77RIW4fZx3fTWuu6X6+Pt1v32P36f7jn9TuPn9go2CHstW6fIFo6IGTY8NfQj0u0vyzcrIHgxe023H5FKOebSUIrC1HL3SPqbvqzS3ZYNjHS7T+0fPgu7y9oDau/c7KwtME2j8SuvW3q/m7Pev+uZEybLOcddOnwXSrb8ru/k47t/8OjndW2CQNi13Y/EQWPcg4JszK/7E2ueXnmDLunbYQg65uThrXyBY1u1AiF+3BRZFIduLe1/WxTZwuxClqwA+4eGUPQTa3U5/C73Eg98CGBgt9YvWY2e+hY/iwW8BinN2gCqaeAsM8nSamtotQEqgdrXla+CN265BWSpAyruu+za9CJC3tp0JPUsDV6nl+ye+CpB9NlV5Emi3MU0ADMp2QCSzcPqGqfYhVgleqVtmYT3M9meBpGomdhqs9HZCVGt0vHG9aby5BcgP226FhMBboJDjsxWZ3ThSxn3dA4mXO02u/PYsijyhYiwytrq/VKCSQLH7UDDDM/YbZxUo5L51eyUOsrcrIgHYFkgUcC5TAglP67zUhV4XGsWZNRWxBUgvzaJO/bai+Er17n+92mmKyrs9YaBB2f97mDdDF2i/sbih+yUrOd6POPYhkO/uymdP+tJQae8Mmd29r+X9G/beJ1Az++Rc7ujSE7J6lfvAU7Zwn3717ndAB/dhC2i8ke8pzc8CVXXrDlDI7C7LFkYEBMc7XJH3bwhdCFojXBERaBgjbsUoqxT6nIKsrrq1c0I/rMH7E3YYPWkfLE+1zSTp1jX0iraOemkLiBXdpp7Csi2wROCheP5/BS7MHWwBORrbg6Lgez1yFw+BfnoliYFqxXAg9kGekDG3HTstCagLNd8WEFf66Vx/O97yhO2+U4poWRWjVMzp7Ssq3kx5VH++ag3JYibWrVnThuXCtNtKmtfYgRp+9P57knke+A3bokmUlTlzGBZN0u31Xjn5LND0tOaCRYltp8VZ3xH2olfKdy/1IXCh770tmpisNNmFm1ZY2XeQPLKuBiV1jKe3gZrvujVxUWIbKC2WlntU9FngMoGMeumZonsIXPcb8lmg3y3awyNDL7RXNQ8TUwg9qxM68CB1y9l1zPFFjlesD57s9oiDH0oPC087Rsz6eyoNt6J/v6D7ue2MVknu2uBboN7f1+eRtv+WCdCyFq5nLVplSOjc1mT1Ti4CTDX+6e6gfEsQiYeU0N8pRVVdujuin39/aco3Ydi2j3tNsp6kI6LKJtYAk/pxXMTcoKvjiczCKe6lIVu9x6HfcrcSsbX7gfqWTa7i3KEBD40pVRU8z1thDtUntL/JzPfE9U9Jz//iv38ZKuLCD1hmMw6uqab+wmSQndQkWKA0KEtg798xjzfuQdmLGaYqoeVr9wnE7JFa7X3Cyd3qWpWOuioZGM0EHRR6VwczDijZeLVfewfp/S2QKIxumrr+hauKU/Xn9qgJIrM0IV+49GLnuQx0OPb10Acsrh6Zht5hCp3QfYXlCmwjRVsWZT+x8Q+4yTelUiw2I9cyZd2FyjWFVPSY1oF2cgtISnR7CogKqurib1eEcqgB8nn/6MYufuoK59rOEeXjk/miO84nRE049O+rFJkEesLUIsT2ByuZg6VBdeNgbkcxSezfo570TUBi5O0CUyouLP77K20fm0y4A1l65Upkvbs0L1mpSUiTpsnvPrg4OjSu6Qvd9q3GpCg3LgaPJE3FjYR6qZijsKO1DMu69agU2ge74tuVFdd9sK8fINChAp0gmlMxnaNgjFyWhu2RdKWyX7pXQV4EqLYTmCnDYFDIuzWp5L0G5yq2Js32DaRmIlPnT6Bq6vrwDYSk2opRjOLhlVrRqDpWiUuXLkB1wmZonsGgjeZHo2DGv2fFvw3Gy/XHUXsRoNi0d61Exp3mbIgU2rfWoGTfsFTc1ksokNXG7WfSxu1FlOpRZwTysPLrVsZkdkdXnGngyEhgKHgmgGr0SlNLl4eaQhSXDGpHdnoLSK2zTYS/z0vTNI1rzvPSZF/AB0AvBYpKXId892S/CTR5pYvTuslqCgMv0MyqyGrDYHVm3Yft6JL7Mw3Nvg0AwUL2Nwzz7jE8SRbPDDTse+PEikbrA+VQl/oahVFP+3gvC8nI9x5WEc4L/da4opbxp512JRBxLH1DVWV8yHNG7VTyVAUv0Hh4qa8ZfwrUl+HfL4xEt2LU1NxCsxv41/cnpIm9SFsxaocKV/FCz1k7CKUjm8UPiYFYW21pxp9R882c9XgCZZyTZjATh5bVm5cmhsfbI5OAIy3E81RzpdPCpFU1OEJO/IRLn5C5OFrMdQj8Oty40jUxGTeOnPV2z2K83OlEr2QND1trUCpwhzT6Snwftp7TAu+F96GYvxRxF/UwLMUvBMaUQa4CuSscAwXM3UrI1GbjGb6oOVB43BSeU7gxIXfNoRdG20SKUTJYF1rR6JyTdFHi8PjSZa2HaDdrnrgeOhitHSP6MqkS0zT7c3BOisFCtgBFimVprSSeQIrMiiuVOw72/x5ZBehOV2sSqYd63rD6zaGg5wUfTjBv+yC+dwT9sNOtaBfmPq2EGIqaqgFPsKg6VN3vrSRFtqMFSSLEjYNviHhElMDEnMD2BLpovoF5viiEm9agO90fvSoveomSajsu7KJbK3szBlfb2ptg5fuVxIXbegRbEouhPBZCjHoyR5f7bZuBK8MzJvenmyfQ8IruME/c0Gdrx7cbpyWpgh5Z9P3JEzKnvLJ6lZmLiPswL6uqUUY3cpX1DwlkQz1x0/0+CFpYyxiAZ/OMc+Yks3nGmbX3s/T/4sIR2iYZDj1XbjKeig45ILeiOcuONzUdevtXhJZUQ7E2y8xtk8k8gXAmuKvuj8XT6dLU46GTOZl3vzVfIQiqtRo3RAJPdU227iZzMtUiHlqZjfhgmyva5anfu000GR+7/pXZJGIH5AGVq7pZq7pbqZGLm6p2024BSi+nrsYq1Cadomkea0cw9r7+cipqR5/YO5Sjqst+fbZVom+Ig1RtlShGNDhZ9I5RIFDUtXoWYL759ct8YmyLN0RH5cxSMQjLtnedEhSXpqJqwl6DwANUFaB20QhdpLp+cZ2sap1s32h005slTicX1twnHmg/vexVOvpidX0AY5NAYOaNgeLwBPWJL9Rj1f36i6uJFl/FE3inFU+X7ib421nSV8qYpYyEuKzSoam2K1HEgXjjafxejgbe6aw3rnCmtVzq4tbExDvTyDcKRnDZWi3jhhwwCIaYodJdruqW1IW1jaczeBcItiy2DxLMRE8rqfuqScd2QKNa+/SBsyOSXVaUwr73YSwlkz96qearh8OXzHXo6E86xDdsHJ3WpjWmWjC9HJrUWmkQ2rHMOUnc0Z0U2hE5EyI3yVpjelq9bxboEu29MI1Tm0ZwhYsh1SBnoWb+UNgaKRBSxpeuUmFahzKMo4iLIaUqICxyuXQ0kj1hIvAiAOOX7gOV7rKF3nsZCDwS2QVL/lL0kI0H4slI8C3OlW/Yp+tEOSZP4MavZFCnYCSggMPCgUN1PTVNH7SMqjJZD1Q7QOst/9YaB01NdWt0p9ATHFE5GbM5DDxyYRt7BE3WLkqp2WwBR+eGi5wNjcjgkYiykj2BrGhTCP8WoFxulNHsownE4/mDziD1Yj2Bex8waCqaXu5cLC92vPuFZ2mrLQeqEoa5WgPeiV/LCcUmImYiZSAOFjeZb89C6pWtc6S4FOndGpbuWtIIpTEpVyD5BCZUGCtoDU5bLyGnyNDk0rOi/1lgWkf3xZwiFsdFKEg4u0ubPOrErqVuZDCV05r7qGlOgNtUmkHDtwByuzRLU3TE2TU3uxxwPPH1r640+XxDl7VdfB/cZGVU916vjONNEXtSpHfrGKE8ezVetEYGgSjUCUAy4TdsRSbVxH7gIXS8Y2NYtVEi9IGu9BYQiE3nZoxihj248/gJArwYbBTLNMaPC9NFxWBzfWGzf03GNDFRLz1z0C/LiumipjmB3pHraF8g5eNonOdbtnGFS9nJSB4zok3aJ2+GMljNQG1b22KBc6pA4w60UPfW40KrFEhvY/Kkslc35NLB7PauVd1WEeoUWEH5aAZeBBpRXikxZjPZKl3oCYxsObKFGzeK1R8mI1uthSvQIaA1ot/EWEsoC7c/WrT3/gbEbFoiJBJS8Erd+kNbxn3oxvLW+E53a8ZoB9K2pS3qnVMtbVjXAKeAAwAjNo7jaYfYdE72NwNIxoEnf+lSyNk45L2X9UsV9jUsBTwaepXh/kifTkfCs2rcDoMvUDXK7LHwTteuzslMWL8PL1WYTA8IsmE8ow8qum/7kO2VCAsSbuilH42Hz2zcYOaVZ5b7ReCiC1TV7I6BoeWH9idu/GxDFdloGItG0GRdZeRghVVeKkCV125FyFODVdG03RYgvbSVijIss3PSja8pjBhD9NUNzexrLKXDGAw5ixco+gSCXgw/S0xdNKqmWoKake20NhwObsYw9snB4UBf2mA1Dyw+w+iMeYLJs6H3IVCZcrNqtDsb2oeetdI0udFtX6APzI1sp1XzMXdRM4j+ujDJ3IyObAtgusjYSYIQk74hKwxmCyDY1lItk7V32Oliq8RBk+Rm5sBESGQdhGKlY36pfjpLRKJTs92HyrBqs3H7PlCqpUzdh5nQE4icgAjwUBUnMhqM8Srm842JNi6q+KJbudcoqvjyhHaqZSndPSPu81BkTniVcLyzlUS2LsSyf9UU8NaFVNsNehiJ2A9TiZKWm7chpguUL2uPzdiMkaxkHhQQVJqyUTIRwxPvxbDZG4uLX5Zf2g4RfkMzHrbDE6qmHvuFzkmyUm3nDpRk7k9nw54M2ta5Ar4/WsmouFQbBTxzf3DukTE3jkMRcn7g3cULZJ1AgwnEszE3PvvBv11RpeJYiP/Nlj6dzA2ZjVQumq95NFk1f4k0X8l64yb73tF0llSASFeew5FebBzCJJe6oduKYj0umZ1uuKzV4EjzMAmhayPD7KfWUkHmzI6rFN1MWQVICezgVSP2cWr3EA6VyUX55oM+2NFtzaabMN9roAJcgFPAEtLMweHApZmTk0BSrMNJoGjO+CRQP+wDCnSF582B2Z8o4lx/5AlbuV++rMwOku2jKcrasaie1s50Ik05I+JO0zd0rT+EmmGyj2KuNHLWLm1ZmVywmJZZH5O7K2wWzyH784wWXnIzSDZsrK/BZcNTBJQfPzE7SDfmdw5epxE1dj6tO3qWKxruD5F9WDzdOSE1l4FUEhZSYwKSOYmHSQjK/M7ae1rvXeMhpdNaYxob9mn3YZuYTKfVidyZ62x2g3oygnZa0FQbtxvZqMXKs0e27yJeZWA5ScCirJoQiBk8MNbii6QrRidSmIg0ctDWxEUhzTCq0HKg/qyqNUrHquVIH0ZkUnUgwgt7JdLeW6lIzrjw0MUg7jPK/oPZ9Y8m52QbdnESDx/drS5a2Ch6xa+wG9odZ8xw1WZDxUpHNdNsWGM5eJUWi5aBwWuz6kDwIzAPjCiyQwd7qC2DPh8KeHq8J9cU+4e2fcpr1GoDJhbeuGCIGCpAWbiarWXvgMxZxuKVmDhmWsPEgZqmWxWf7XSpH9oOEUafNfCLSukhk2hYOLoPQesirzQ5xLfMSZ14NHK11kme5vAkTn9ZVuzWcY5e7mt+Mmq9nCWqi+aiufvCCNrASpsypj6UXI1+raFe8qm55ZACbsb4kxAslK00VQ7kN1bFz4fRnEPDsicC/JuA9vmzFXXW7ef04M8CyyggKnPDZkU95oyFVE8XPUcNfBNQRjguuoTmu1QAkZtLa1m5MqeQ6dbMVfyy7Gg0zsJZDBTkTfSEqb5GZvenGHlmZheufDx8zIukG9cYfer3oXGzwfjAoYL9D0N97yDK4I9W7g6m5ywG8Mhc0C5GvJ8L1h/C2TFaF2ySNcBTLkxBbTSpuWD1uNgI7XzkexaUV66YmylG7595hLbDhp8G4OsV9cNH+2DNaM/W328CShbYT9x/ze40XlHj48gcNDl1WWZuij8uUI2e87AP2QbbcOEoJucsfSW609kSg4dZLNkaV/afICTCh+EYib2ZofchCj1k2K0eFwtNje9dsXCFOXqzjXktPDErqmXyBMbNZKPRPuRmsk2If/JhfFsl5Rmu3DRuU5XqYeKA+RqV/dZiBYtamNCqGGMBQ9tKVbhqTUzP2TXvvcMBnFVl7QyH+KFMdX/K4g68yzhCJjcFfmqHxog9m3fP82KiCFlUAEeZN92HiIGYSUXpMo7EKMnuNLaKXVoiLGzjWtYyZ7DFUk2xGuNUQ7+12djjA01qmwrwKDw5rFmvZahKTtvpaWViFGcXLAUTtN0aJkrBvMaH5GbhiQOePmXa4EjQdhOglgznP+cJwMPoMg6vNOqHb8BOl2H8tux7j6U94IfDN5OR+rLPF+gM0xqEzJnV5jYeKNuaHb7FT7CepoO69xLhYY7VHNbCmnkIq8Wila/otGl0W9tS7n4a3rsyYXoAbOWVeIDASvoNjUcULJtB3woaxZVtaFTDloyVP0yvoOzPytZFeOFObwHttcw8Qjurr/FsDvi2rMLK0zvmyJZBqvrE7M80AtBDz+t09CkPvprW6BtYf75xOi+GA79ptazBs8+n5YzHQmd92mmdzCwU8zEEUlXRSRxLg9fQVNT/MAwWNnjssfE6zInae++rQkgOY3gudU7mQu/+A/ZnIXz7A7po8ZxJxy8dBBwhdRBwDNZBwFFe/NGBI/tjApYYPAk09VsPGxdoO98HErAGosMqtUtTXnOdMIl+lrDMObRKMw+t9V1LhJONYm0fTis2TBgrz2T+87I0yprzlG8VN3Qeplc003wcxxXjmwm4Kj3BGG22U0fZUB9GMdmKOuHrZN87V7XTk9lgskFIJgPP8qXOyeSBxcnK/vNigujxod2NnMTUPzSuIB+ZHe9oJWZkv4LcD8zexWY1ZrTTqXzodMHJolmd9Se89JuAVMA7oylS0vJaH3gfUtJXeo4U+CYgR6NX7B1ISY1i0GXQR9sEjp7QSUw2sawdxgsX43VgDql9+ORON87NJCMlbJzcTM5NwUjmbLCwYNqi9KntQ2MLlK2bs3NH6nNa0svGYVbaGJM7B68+hqcfauxGnNUZvh1VfGtGo/A4+6DQi8ucyWKgzGSpxWZm8vjyYpw5o3PO2IZ3jY6EHB+GzjIpYb0UaDMW8zpk67BIzExalaUq2qHZwVIYPdvpaqCtQ/PNk2b3xTlBGp+kh2/7SyhQzLBz364zz83BU3WG9Q4w708z+PYTqvwtpFEnsaJu7UZfP/MpBSwVv8m9ljvw0+PNmPVuwx+2N4Pp08t6/BhzMox/aXBRfljgF/0P3BqjnAj1NHtIGxsbegJbuUsqPlpZmC5DvcqObbjdunXGAaM7zSPj0tTTKr9ovsx8AkpbwmOpgo3PnHUs6xjEMFQlfbTNSQ/oPr2St9YXpsCx+zC5O6F2ZXiajTn7qwKeJqOLqpF07o+mxGA10ql5MfNcVe29jwZZ0ejYkLPEeO/qw7APq+SntTI/3zRPgGOgZ1/Lq/tDJuvSEmGfuHHNBhX0jtDnZmWdziBGHw/WmbGgTdXejYc7dgvA9zMpje1lzn3LqWl8K2PtmmIkQvd5QouH/16GRBhYEgnSHqNjpWXdZ1PHOfConOFoioGB32g2ZHNy5bVaT9PiwerOrsoUB9EvKmcpcyHVisH7aGDP69SCRXBvsfujhK88HbXbxrXB98HYwg6z3vtlAtxQ16YlQngfmvWxdyaHbNW6Oblf1LvM+3G2jlKOM21JaG8pER7Y84yqrh/6gaoVIdeJxkfUfegRZhtWqokDpMqaAgenT533ZxTGkZluHTyPuBjZ0dN9/yaQly4rRVlONdEnRiilfbCiyF3UtT+u83S34hfoQJcxjGL5kDlZpionT4K6rPe4n5BqmiMrJydRSXZ4GHY1Xum62KtcBsTkGbLNaEsqz5Ddyl38pcqudBuqBGpFJdCsBzwwJ+ScGCzsMKEucgL20WQfujUFViYV6ZaFq5PbcD9xAaPZNfhFu9Bf8mg35jhTg6llsBpTpEVa3NxQpAG1VrEDU+9+AYHcNkYiNKMMbDzuJ3oGjeo6kxU1hqe2mALHJgU+6bW/6SWB0XcOmorzOiSeCWkZ3QALMZL5MgFsjUmaPn3GLN8S5Ur+dSSS62ZQsMevKYnCFqD+uGe70ItHRnY6Z21sjNCSK686l4YZYtPSMmdnzHqyLpHO0LbUtWuq86jN1Izbjsf9pPoB2oaDnSxiDypeHmCs1O88RiBZorw1nqJUbGoMN1ynaoNsmEw7yPDMPhxGR0mCtvKonNStO6Ex3Z5PYX00F3873jpljzGJ2Y3ioaZYDUbPyjiGFwq4erCjm1QJHIggiu104YHexbJwh4brGPNnQH1K0MawXANXU+YkPLxqr0QmyzuOuKBdhyH7eY6fs6CXecqG6uE7DoZVJHNirvhiwOSE9+E5kvvlPlCkWI2JsTKjvs90qdySEbwp1jV1mCSrI4s6nqViZZ3KrDzFkjn1MB7RpjO0Izmk2OmDZ5y7UUJxMmfrJSkcNZ6Wng3fGp4xvVLSPpRtgXBCXVJ1HyxV/EoaKR56LYvRWnHWIVbJzxIJ2OSbylxeeRjlR2Yn0SZcnzrwkinjyfmlYm1WzBxRLOB4JpC+ZrBE4DB024KmcvGEiWyd8lwdCN1qhByYqxzKXZQPlOPWh/I09d8iRbkPmZlUInNiq4SVJuufLgXrD81C/MJuaLP4oXTEazj1e2FWnmptuIVJnOswK3phQbs29b0rTyupzl2UMOtQrZcmzi9zxQtoqx7mxy2rNFVUxmWo9q6NA/D2oR2adnofNeEjqx2xcMUMyhZAmuhp8QOz3EZbukcopIyrqfuBvsa2cerNTI6nfQg9E42mromQOjEnkJwnkfVSSh+mpVOFw9gyKnMSGulhlFEJyGPbXLHdqFl/X+FGZfMPM08rsu+9mJlPIWqFOyVsjHQZ3EOjyYbS8e8P3d+o1uB+qb9QuP1RY4bCA6nSZR3NPHAkGSQvc/NWANvNNiOKvCpke68yJTQj+SH8LA0vTRpa2swMK0xLI6t8yE8mdRdyxnOarY8pZ+aC62rMQ/9RVGKzLDOP4gsGGPmG48xpyTTkC6saH5h4LrSc1VpvM5dBqsF34qO5eUudW05oNuvgzMyH3brRojG2uC0dPZYrNkl0CyeDLfFAwWpXlLR87/aEhamJ4EEwJh5Ea06jL+WxXd1o0Q5prpiY6LyztEo2hqIMriPaWMfCLdDdag4na5XNXeBerG7VpcoXKAZtG30pQlRt9FjlRg8HwdbM4w8sx/oEknwLxbQ8W9A+7MjKGVUPgZKykfKwjtBLlwog72y1GeyNWz6t2yvmclHMsDTTcEDYlWEZ0MZsc+7sNeaoLFq/qg29sZLtaHAMvZ0dPa2NixTrAyCCRsBlm1oa+Ab4htw/MFMhG2mzpCwX7ba9+aAEmHdWNd/k0qZVjAs3enygka0nGlnNZRymcJnJKqxmvMQc2T76hqkTGQ70dPvwSYQbf4LyAEZ7kwfznWatep9pAp1nE2nRrPAY3gwnPwR9kHkfPhDVXghMicLN+yqlxUCtov2V6ZCfbFpHTBzSBBxIXqkzGicpDVTijWvWKL6jImxW6doumXjYXzM0fxT/iVPDzG5iBslugLnEwXQ3WOHeBwqauk33SMxSMGwM9j5LlOYa5pHlw1j4Yt59xp0ezUJLRpwOa2bMPGg7xu0YuSgRBg8Pjyd6M8/xtS9ZhwPhl2tvMrsxv00Cjoop01k+zHwg92cWPa2H4QTTzW7iiT1FsfaHAnA8wZskiK/IoC/hyfITFCXI1VYnXmuMHZtGddjYAk3DXTXu64uzZKA/ckNnUjsdLQe0Spfi1HtGzTeM9S/g/9TyaZQxvSH6YCsB7b8fSKAdDTcCNpuY/RnWltQXj/JO1oXKNem+bGxX5oh9GC8IZ0+79W0MJrCIqdbWekv7sE+OXKDQ5zy7z/vvDx1r2g3cUWuE62CdtLTTzZAsozMEyXkQOmNlpt64EOAeUR3Q1k/NKroPB4FPQ+awv9JcuNF5wLMR64x+4v/1fcBGD2vpGdzzUKp9NDPARJLOmHiw0cMZLyojKC41KPtO07Jmq/KNwiG+jQ4YGVVlZFe9LYkjdj3eF1Y4PJ7uiwXMm4keIKrnmrPeObQMCJLYB2bX+jAGm1XlhzHYBfVSsikrz/zoZ4Gh1cqemDdqWOvt4uJXt76NeQJUO9cP2TiHCjee7pGs0tT4xm0BB5shWZZR7DUeeZWSlckXHw3zyCqz8yYbbV/ZSVyWlG5YFl02QZEpj6e59hkV61SdVPmkmml4zsr58nsfGoD1Gfv7bKCtsaDwXNqmFalSmejCONt5Pavu72EyRFX3OVpWCEVkCDYOoasB2Dhbb+CYzFllq5lkJpYygotT0k3TgGlhhrhZuorDEUv3Ri4Jvrdr6S1xt8Kw9+EB8Oagpgtrsta6s7jr5dIUzESnP1nOkwH1yeCMTDGUbKg501sFJEMSC5jqSJYVZnzFMwv3OJ+o3sJb0d8fhv+JveBJxs/ZOM/fH2oF4j0x5jbSY0l+j8h+88OvUxu79HxczN5qJG8XYkmqjfO9mH/WWqyYC9zJCi4kiN7ugqAFzrRIot8Y5GHJwYR+YmtWO0L/fjuFAiLhmCa6rCVZybC/ZMMvsV7RixaaDql+uy9MKuj4EeaieFIkPPUtukvJKgkX+ukRdMqByEzSZkjExC0bY2gyNzFUMJjj5Ux3TuZaJ30aSAM3jU3s2ZL6WaBpDiTuMT3BqlKheEng01A90lzrUkDLAfu37Gg8QaWfBYp99MCdXtWQebysqxnyn83HsuxvgPtoxoW3JVbGnQ69cIXTlMsimsKluC3gUF5KwK1P0CXyAdcy3oeCBfxlbev1cDRsrGtlPbaWcRvxiK90GbFo4/HRyyY0Np4BuQUEbts6gp22gBIeM6PTshEU/UL1vQx6caA0iNNnrfQUv65pGTjmp9wXQhmdBmZzl81E7cwJsgwoNBIq19U1KB0FCY9X07zMaHj6lk32GNzTt2wq92CI5LJAZHAGbgsIOmomfkJW13ByxTIMhE1YofLgsunok5Mn01ja5sRwZFp6Zl3oH06jx9gCpCunjTNZCRMW08qDi7PqM6leWgUP37x0pxcTNA3D8u3jSEH/dslE3y+eqjdsgNBq7FZWRYPEpaUnGFfRFqBExMgaiYWtJzTIpfCRNTj1YuMQ1+SqqzXFLJ5Y6oSWi6EX3ZAU4RwwhF5XaeHx7n741olvSe502Hpm25aQ/sXWfw0qhz2CmqWqdj8tVq7RCG/LhDyH1uR6+OpqDW6LJwhVaxxYB/Rf/7BzyFdf1dlYTFFQjdFy8dyAKB1LtnDiKhUDYK2JkVzMj7YnYIPoY4r9qxagJ7iBOGJVpS61DoMGjKp6daTsKDbNdh1mL0+zio05oIbWOBfX1nLXWDEcHBIwIul1mL1cNFaMYYE82kOQc9uyk//jZBTrOs0zkeLLZEbLZPsQA+N4xIqUI+ah77bbZDN2XL3ncHJLtpNGzUOKOyuhd0xyIoFkbuWFLCLJmh+2881FDNmGMTB1Mo3fteG2TYNrVezTGYr8284N/f1uwQa3THqScjHXgDpvnavSVb3Dzhgka4fpzJxfPjDSofpSo9AzZtGzXvyeMNVgSeW2mHPMqNQnuqpJe6QaX2IrqmyPiRIZl1IYHBgvL1XuB9Id4+ysC42BpXoqs2Jd1nTGvKaXaqDKiP9LsSuVjZk3I3JW0iBHwdWBv1eU+eIxWNZ+Obhp2zhhDgMGVb+VitGgUYwVptGsul+FB0Q7f97FxOmqD6OqgkX1aolwAilMazjv+HvvaG8YLCebSZzP8+nedyAXfoKp0DhUDN/yFniEPjU1Golh1tFpJG04B+fJ2j8SDzFOxrL+xMl98xgVPdFx9Eg27u3UuOuy2jccGNW8gF8RoBSHW2phBz5Mo+ZIBT86yCdFIHPIlbXVNB2JfSW/+5zg+C0KlLR5IPHIA7FoPF3IfOpzZNOFgemOleVOLzzd1djAD+kBa0pbuETBXWa/59ZxTXMyG8RlASDr7KRIYH7/Zk4Xj9oOaKe+PzLKJ8s8cE7qU2U+0wIljS7Txf0PnwQoDPrwSkf0yLBrQ/UsX9R0iFRs1xIzDPuxCAFmm5Nzlw68DmeB/Q///PNvP/3+L3/9+e9//9dvv/7ytx9f//9ff/n1x3/79Zd//8dfHv/pXz/9+Z8/7n/7bw==);lineShape=1;" vertex="1" parent="1">
                    <mxGeometry x="229.1314964820814" y="25.677678665006013" width="8.97125796498369" height="9.164253018180917" as="geometry"/>
                </mxCell>
                <mxCell id="9" value="" style="shape=stencil(7Z3L0tzGDYWfRlsW+969dpL3cJXlWBXHcsnO7e0DREXO8GDmY2mXhXf2L2JIdqOBg4MLP5Tvfvvp+18/fsj7b79/+fy3j//69MPvP30of/qQ86dffvr45dPv9l8fyp8/lO9+/Pzl41+/fP7HLz98/f9fv/cr/b/+/vmf/gv//ipX+7ZXl8r7f77+pWyl/+8Pf/l6/c+ffnm+Pm/7uFxft32+v76sbSS5fgy4fmwtX65vW9/h+raVebm+b73A9WVL/XL94OdJ275frl/bDuuT57bW5fq0bxUeyJ5XBdI26Q72xtcnSrZlDQTysSKnQN8qCeyHCpwCa+v5vUCa294uAnbPAVphD7Bf72BvNWCVUt3S9R1soQesUspbuupRycdDvhbYt37dB1Ottt4LrG3KwRlbr3R9kt+3RYU3mLoJNW0LToIdnKtaVDuZsGn90LLzetsU2IK+5ev71nkcpZfX27m96kQztYLfb1uW6/NW4X3rtq4a0SoeNLM71/VpY1v4/FkMy37c8c361KvC9YL6Mw+7eV7fjzu+U9B8feG+Dh1/dwTGdcdG3jIJNN3i0bYExjGNbV7XdJg1hXc2y9Ku3mOeb/VawMz1dZVm3mZC69ivjzTb8RPvDLbeYWw7vIN5BDmYc+EdSt3mVTPWjha+mEu4HoWVDmPzWrXt966qscrhFl8L1MNUnQIVjZGd9XzduNWOv7w+PWZ/mwqQY25dHb8JDNjpntSHuACsUrcnTipQwMLY+RITZqtEjnMUtcG2D6TeIxhh2+lKRmM/vN6T8mV4BzsuKjAPRPNaoAf1bggvTJnF+ds9aVnXiQ1Oq7G2Rneoqny2bmSKXTevumQ7M8mXm424qsawIwXq7Y90PUBmvQlHmiIMcQ/srkxA1LvfLqvgQnNY5B8eqvbsEUlg141rdqbhiJqA+NBW0KebMo/rTre0ZToPZnoF9axjZ14LzAOEnAIDDZl5A0HPtW07vLS7D4l4GAzbicvXfTB73kmgqZkpc2v0SHVrV10qJ1p5LVD0pc2JkRFwMyMCpo60DwFue+QE+zCmnmlDXAnuYNhFDJmHqrBKw/D19UxbFFNglfpUH5cTxhiGCNdVvQ0QZXikZoZRQjcOGlqwfCbQ4B1a2AcTIA9kUUIKj4QCBuOTCixYJVPm1XWVKPIxZRb/YBtXGZFJLObRAQmkwzCeAgNpCYv2RJfKjtGh/d68vkMxMEG4tR0e7elMJ4rqw0v7QhP2zhqReQQKR9S2Say3mcoEquG6KTHlYoEZgr6EZsYElE5iD2QC/ap85hTJ8vmBlLAsIcAyG6FxXD04tXcxULseIMMaFEm7Ybzug1sqCsvWcVye4A+9tLNogpdOZXlH6wnNOCrGomWpbTV7XsFUmplZ8kgDkbEZMkH35mIaCJipzEIdrmMZXgtU5aBcgGKgqbbVHomCJoOEuqwDaTGLgabsdMczbTGQWG/bBwpex0lGPu008VD2ewJOTJeQ6FpbkXBgx4h9JhWw81AJ8+VtXt/BTtwk+FMVa9hCE/Y2zCcQzqwGBa9zBGQ80WoY0BUj0Jjfc2QsBFzBnTaBKgIJscaMlObC5IGHquIfOgZNtkpVPFBhKN2Dy9qRXzKB/XqmzbQNeummPJ/zQRQDVY2nCycETFsVVc5tkLYmJQYdTNBL74fPPAXKsTPvjqhkTTynQNg7bJznFNhqyMaljlDaGYDrS6eK/JKFA1Nwa0GH0k/u8xRI6EX7qZungC00LKuFA+KBFgbsrQXWDkkKB1O7PhAFx3Uoj2ivTAxZrcqS26KS7a7xkepd9FAledUPn/cuepATbao3CZqcT/wc9lHOMbDeTmsT4puK+OyAkmWNyZlH+uhdMKCMQEJcbE+s6bHCILQoDVIa3yGrl/ZcMEVA6bByp8DCKC6fscJTQENu3fdVmJmOFIJje+F+JjIC9tKSfbAzSA7rwWGcAhVtgAcDcod5cGbvlK9LuMEZbNMcgbkGS4mZMc2RmgCzhOQdPCGyqwC5RHPieoeK3qEGL20CxLbWMyP+LEDYvmiOxh+Jwo1xGJWnlyZWw7yDZON8Hwjbh9xAY3bJXzEwxnSAPFCVpCsn1Q2YCyNg60YHyKC/7IOnmSl6CEylOTFSbwtf5DyYE2vEVPZjX5/MDBU3jFDzYk6M0hUeqIrl67xKS4GAncFKUdzSbLkXwjCfK3bJQSi99NIkp1kqygKZgGR2zRZSFDdmwMUZWe9HKPzEVNIBGgGqG9Ygls+0VaqPHM1QkrOpehteoqqFHuqbTICwvRn3toIAgcSpTjFVTgU39UAmQOnslvU8JE4F25EXU5k4XrcjL5ksw3yUNqpNjYCT2IRbiwKsfKYX3gHdGdSblK+Gl/bSNyormMryWThA+Y0SzoPXUJFAU7dbuKzA/lmArmE+8qJOigfMN0kgK59bM2ONsA/15h2SnjgDiWT5LByQfTD9bXSHXV+6lbsixyx+mk1lGeofWsETZ8onBLAdWgrLakhnG9DFA3Rm955WiWjBGhhj+wuBxMcDPIF1Ik9tETUVzFkgh3BXQ1Y572r4q4ZkM5aoFDUCttBEPJpDkeRaTSwQKn8q1yH0UEtRK2YfelJWozamKYa63cpUfwuVcHUi8Vinlmx5sSOskr3iCEagkbnPoXChcPnirukKD3IoylqaZ7pBlSWCxJNveudQxCm6AGeB1KFwBsW9QchZorkPkWKZSEiZgGTY/SGZLpKQxgRu7qD7cEtIlawCN35ayZyGZZixwNDL6GlZh1L95rkJhpbA3Jez/vatLi0VoCjLc9HCqxcGWKG61bABFeeZ+6hCqt3QrUmhdGZtbaFYNY87/5CDABGDhu6Fk3bMxxUnwknbKiH2jgmRhokpxy6hGIlQpe1DBIkU0pg3kDzTjdVw9kfO9MIj6hVdoWQL4c+uIc3DAbwF6yGThba1BXKzIZpxkCh3mFhL4eBfIBwXhZWkxrhx6ZwJtG+iiwwZS9K/daQpTEDZ0I5oxo/LCgJUyDMVJLbOZH9wivbSlCB0G7FUgAJwE8hX5Xsg2bcCsqwF1dsfqasAmZk8tKDKMdpNSmSoAJW4+8YVFSAYWl6FNJnc7q5VAt6xwpGirlJmRJa0KKwxbffocXraacKtJXjRxtlpE9D6KK7LidkBEyDKq+waA7XOPSIrPFLnhripRTB+BxZQq9EQa+RQNOyrRPm48SJix9TU0Go+32k6D98qYPsgnZWevL0pkpSQJjPQLUoye7aXtLUpN+N+muOHFeIHDMv2F+ge80BZwzJHM8RrhG4gx0uUyxrKa5Sb5NfSqvvCZqaFar6SuCw5FF94YQHdoWmfS+FSUje9XV+6w3nw4jzZuMqrNEM57M3G9dBROrA3oQZTadqK9OkfAfjxkH8E4P/3AbhXj4fCNqpe8tEBU1/6xlRqnwtnB+yICtCtO/Yoex5IgiZ2WWZmZB8qG2MHbLEikQRGyB5nJJm93Fz8dMLQsjcd4WBGgPIPTgHLxk2szBlJ8ZLdgTCfF/BmXSXa6R7QTG3osnroaLrp+7JllUq1yk1WbQXem9saWw9pnR2xt+dkQvxAhWctsD/2E5jmDF0oHuIT1VL1AHnEzmnOFrD3jV1SgYFNh6WFEpLJNEXW1szGIDGHMn0/tITuQ89UK5gBz7FuZuemkv6iquUmYpcz7XQR98lr0qXgUJAc2rgc3RMnsJQTsL3Hrqw9oBmmWkoOmI+TLiW03ngbFwkEJtEbu7jXXwo8HoMt3hKDoUuRMF8N6ea00KE4uSlVLScKfEefCl5KnLWsM5Tc3qJ7wRop47CMVrX7Id2ENCEATztaby+K7CpAcVyPwwEwAd572Led689DdXjiPuIREuBevU3lS2FshG0DtUx5RZW8Q0FaY8TxSQ1JhxnSoq6sVKiW1Cylhdrt7RVy4BIPdinqsbxolx6paCtn5uTxDL0MmUeQzKINHE6133RAhfCBSDgT0BQKN5bNPbBFO3d8hF7oR03Ja4GhyQEP4Vlbtdyb+/XsPKQAyIhuHTkUtTQeELIr+eMVt3AHx+rXdzBDRechmpmesZ+7V8VXXhYMyme/J9Fx53Yjx2vySDxaq1WN+/pEutWrt5MKEKj0DGG4AwrsSpz0if6khMKcPlH5nIkvukoE7nNgvGwf6JFyUw6hc/jg3QyhdYDUOy3tsfJogMa6BZbCeXKamjVCcuB2NJ2Ye6/OoxbzQGD5sCR6h66qURvysz6uT5B0QQT3qEJ+gt4EHWyVlBKY6Kd9WQPtTechzUDoVuTUUqSXEjKPaWlWJy9updmVlPZZkBSglDDvo2LuK4fqbYMOOAxyahL/sQzvjIDi3Jvi06ITFFJFWuPBlT5jPo43hCdPfICcQbsKTI5PQgF6xzVyzk5sN/bGtVDc0TH2bi1k1pgSHIHGQRPWc/BuCIl7aFjhYnjn0q6/P9ifB+c5EXyOkJReyLyNqhHuYzbnO9wmBRGJB/eMGSLcG3Qbp+TwHvgItDAlh8CqIXR5pMwz/3ysYRhvRCd/hgF7mcuofPKVsCU7KuoMVbOeqSSBFZJFHbMaKxCaN0HDSsETZjQWK4esd8MwfYVIyewTcd0+2E24vYSc0goBaKuIDFcgcAxV0QFaIdvqZDbtQ9JqnJ7wANnGCQxzOoS0NRT9GVglbmLGeaqDRyn2cIeFrNUM5f8joSMxIyD1oIOb3X3Ogkw24WocM2Q6h4ftkg9vkeksg21rCe/AyNDWRGcJcW1ATOXMhOrdi9pWE8Ck3VLA4PQGefSuGQEzz1Q75lmSqgKFJy1I4DO5sssiVrFLfgdCSVWZNHtp6gGKPdOTa1pL6NV9NIG+g5ISxwyeQFayMmk+MJUGWYUqwcHh4WMa/SmQt051iCnMQ9oRLRmAV/Q5MCxJoevOe3ZIoGnSzgeKUTzZFJD1jFUgqSrB37g+OgVG8yZpl8JIgJuaVhcI5Z009MYnyIdsKwVvj/Ewz3E9BdEtzPHkaREmsAKjSeReilm+dEuXhLgeGZw9VOM07EjwjwtIhizzXJAQnXgehI5oV7f7+GTCOyOghH1BH1dSQMY7GoFS1GUlHsVeWoiJBzZZl1C9nDpP4ilhWhFXnNZglxKXIPkghihArOzQA5RYl5woDgJIdtfATfBM2D50xlnioQM9tMPYxn1bSsDPICGykOq/GfFqTlYoH6ddCUqHiXyZ07MzNDN68TBFimEWqZ9BmkAWPnpSGGvMEQpIM0aKFg6IYy83Y5tffc+DzsPaQ6fUwpyaz9uWUjAe7Lbit3bKXSyqBdXcWrXKC+6aKih87rk49h0DjtW0+NJ7T2iMedAlR+MUT/cQ7U4szl9Du+7ugtcZcjlc+rLC5JHO/QJrqQfq/HGVtfQAjR1ta9p3pR0cGtO6zvD5kIm9hisQTDNjJ+AKSbXJ0xr9awrh2wTkFVdSKnEyPT6XUomTM4lzaIjyILXe2UrJhtpDYv1BmCRix5y0z6JhqStcXG02gvatxuMdh2IH23uKj0fRArjF+GeETw0srsnrYRjp4mL7Hj5BZQIUHzthlVUAefUUpgPtXMVnlk6nYN5JpPDll8Vd0GHCxFrIhdTwXabFtSaPAapPW0fUdwlsy+qckgofNFs3H5XbNYPin+PgmEN4hJU4VV50eOFcSADl0OVmlonMscFIKR0xmIaTzEMd7OSemxTZFv62zNIM7ehchaQPZB6IOODwacKRuPtRbYYbBVrSwJvw567CpKye8OgEj+ujs+B9wwg17zLE39cOV57cFZJYZj3o2ITOzYfxeHO9EiYDay5Djsw5S0p2hwrkzKXjynU/KM7Xlkv396bNIXyIsXRsCOtaj1Z4kk7IExeupllh1sNA55FymCDG35xIIbh1neJCFM3M8sQk+2fNzDbUaT+UoTwBv8wRcl1pR+Iwh5BnITjy7LwAbQwLvdpB2FhuyYv9PjiAvIQOpHJbiCZqhIm3EoZRcnmsdyddf3+/m9siZmjHWZc1DFVhCOUh8viW3w9hDpdl13Dseci3G80i15N+1tAamFB/7HqJJxKiLb9ef5+m4DzGqT70h4oxahg2kTEIrD2QTXeD5MQGFRzr8M1fRL693v7j8fnlHz/9/PPXrzc//7t+rtn+9PVTz+XP/wU=);lineShape=1;" vertex="1" parent="1">
                    <mxGeometry x="274.55772300296786" y="71.73914636946736" width="5.114752785893316" height="5.965281012675061" as="geometry"/>
                </mxCell>
                <mxCell id="10" value="" style="shape=stencil(lVlJcttADHyNrqjZMXPO8o9UxY5VceyU42y/DxjV0ByA7JFusowWsTYWnuK7Hw+fvt+dgvvx+vL89e73+fPrwym+P4Vwfnq4ezm/yqdT/HCK7+6fX+6+vDz/fPp8+fv7p0Vy+fTt+dfyC38uOE+tLaDg/l6+cOTz/y8+XsQfz08b8UwlDuKBHB+Le09xlE+UHZAv5OogXyjVY/lF/fH3G7kA5CtxGuRFwwbsjYW8GwGZfDkGpEi5jIBKOQKPOg1YjPIAUHTIJCoRGF1C/70VIG4ATyhVGx1FJRBmDlTGJ8QM48AS1jEOkakCL3EjVonkKAEbauheXwGBKki9mqjyCMA21EJ1zNVUYC7V2nN/BVQqSKXWfdIBkiyo3JrTkc6+O3of4InzCAjE6AlB25ATeQSIPTdXgHAIcGuT3xvdmpk8SA0BKA7ItSfLPiATjxVXHMUGAJKtY8VJSSGWbKKxAkRqKA6S/UolURIQX6s9+1cAU0Yq1R7XFdAoACJrwqRjarCDJCCAMBottABtaJTGXOKEU6Np1lh4BEVaAKNbufbsOgSMXhLiqdhoBagex6H1hrYC4lQlBUi4RC2gUJi4VQGYCqoHC5BkuQkgTJVuUkmYquBs1QChe9AfdgCx8/m1gARblgDyWKJCPBMbVBcV4gnYrWwAFdFM6y1wBTBF7CXV4wTA2IY2soYQTwBe8k5amtJJ/IArqAUNmOjE5gkVA2LRAEjftf97C0CRq5o2Nn44QjhjdUP5yp1LtwBUc2sqbN2EEly6nLEaNl4BmCcUlH5MwTwB7Q8CyCbUaExcGi9rQMShjsatsISk8babAK0XzLUqtT5FXmt02zEaurXplWMWuNZHhWtTo+14acKuyQBgeq8t6toCqnrXvaJGvbEa0gDrdXRGNKxHphmVsZ6mZ2S5W6OTWfdmgGJX3CIWFlAFMWlClskmbc66ddJILc9MWjWbGp0MA6yzbzZuWMBkoLGAychkAZOhzAImY58BzAZLC5iMrhYwGY4tYDJ+W8BkwLeAyQphOvtsSbGAyRpksnW2aK3L53aVw4CkAKF3gEMSUCo5zK1Fj4nLwouMLpTVhixWYYAayWRpryiXMsXR6OUsgJ6QOpNuDw/I6GiMdvgAFHVXXI4nSKWgbciMVfK6US8HIPQE10llc2JCJSocoQ9AAbK3ANR9M3t4o60yfJtDHLp6CamozSzVvoTsA7KOQ2JygFuFVNSlPGV4JqtOn/pSgAMTM7UxDslRBm5dSn5UKTI+Gzt99YoZurUUimOJxgCNLl4f4kKFTVFyM5jjOhqNJa5VAUIfiPYBXt9ofe2R2X8FkTRVeuER9FKEdS75AN0aXL8Ern2aAtDIJz0uSboj3tN3jdTH3n2D9ZEiUADaO22t69v7kXjQ4iC+5jrh+kp6JJ6UOGq0Tm/Q8gVw5Krqm7iDv560ZxzUnbVnHEhkp1c8vBz5zuHXiqvLrYMvY7ymHtev1wfi1fw66GE3viSdisuHt/ex9+fHx8vr3O3/9ftb+ery7jd++Ac=);lineShape=1;" vertex="1" parent="1">
                    <mxGeometry x="213.16907753386346" y="90.93821077400557" width="7.124865127494488" height="29.499082703099894" as="geometry"/>
                </mxCell>
                <mxCell id="11" value="" style="shape=stencil(nVrZktQ4EPyaflVIKl31zMJ/EMGw08EwQwwDu/w95e2Q20rZ6WDf+qi0pDqzSr7Iu++PH789XKL//vb68uXhn+unt8eL/HWJ8fr8+PB6fbNPF3l/kXefX14f/n59+fH86fb928dFcvn09eXn8oR/b7ggrsiCiv7X7ZfkQv3vhw83+afrM8iHQb66zOWzDvIhupYpIOUBEL0rngLCuEIsriUCiK6WASCJrxBdGAHJHtEIILjUBkAOLggB2BHHFbI6IQB1dTxzsTOTHbW+39Vq4oSYrboaR3l1nui0uJoG+WZ2J1bOTv0oX10gJsgujE6h3nmin+TSqE+N3SS78oL70eRyYfIy6lOLy2T/EfWpzakSh3BpjMrg7cBkgfXfzQKRGNhPCsouByavY9irxSmLe4xiDc5HpiAPDmT7JwaI6NAtu0j2Lz1LrfLBNfL85OK4/9poXkyujc+vPI/mrr01gNUp0Y8FzKifkqn+y/R87xpxuOr8aN9cnFB58B/LcEoCvnZtrym09sJzkLBk1H8SGpCtp781p1uKpAk0jQEphWZosw7UjJMy5p2MgPsjjgBttIDpLLIUEfrfKyDxLQWMGYuizKpSdBEA66mOAFDGQuuJ7LB2Q54zx2WHnuhKSJ2Q7AMsDMfAuZf/I0AePcP05vkKbbSD0kwULFGNO6q0dJh8HUM5UWpgGpTRkSwymXzDVMcrjT1OPMhXYjJzMh33H2mk2fGgFgs1mKkPGGmmmUjMnKOTNl7qLdGCPkNPHvulwPQxHmDxKeIRydgTrGBnIirNgia71+d9gKJOF8ZDAEYnEwBKP9V+fo8TgDPGWjsBWs3saYJsETmvpWBG29ukVpFepfcB2h1n0xgwVm2kMkNVyDR9GassGQHMDqrYelidYmcwQJoAys6gSE3FqDgHYHyuZOAQoAhgGWMH0HoWPwJg9W+UHRmgTIDKV4AkYADG1xbDAUBpGTG+ju7duOFaTyobAOt77x3BBsBqpwFCRIBwAKRWs7QyO7Te9W0Aham1YfE0wMmWMB6M6vItQSu7BBAPUTx0oa2FAaROKzDuad46HZp1y0s85ElLJyFaJzuwCYefGk7zDdbg6drfbJ2J76lmBBRS2A2wExA8C8Q5qFlialPqU8qV/hyQete7MURjvmEcfYqgyBor7Zx/432ZGM7KKKaNzAGx89NNGY2sN6xIuZfKTlaoAbtt8ZSdWLPcxhWWBpO154qHNlbJcmWeqIDR3EKyccpINoLSmmWe06ZeiQWQaR2Jq/Suep9JK6p1mUuSQxsnjEilme8Z6YSG0k5A7GytBjh34pPdNnEZSjTCVH5KH1vty1es0a3Pno/kcUxI+aQZFH0i9BMdAaC6LQ0ybyahWbVfEgfIqFI7FG1vE+oocOJjgHnKwIjPckQYfIjzHABmtmAWfkMACSnyhszMhPXT0/HlfENgvUng4yGdaEliavUTY1Ve3NAzktBLjmmClqxSsdLWB/Zrmx4pqW/dkTcTSVYUWveBNZZDp+AHE0l4vhUJRnnWrmgd23ga/AVbvZpOJrYwCqtG8Il+rAjDBDzScpB6UG0m5pVOtOEKorU+oTyYsMOEVAMtgNI75VU+0QiwGIcbhdIvhQ5uCOBacGmYiP941OfSzfzRDUfmczBMQip0Ih9xHmz6ZOPd6WL2zvSO7DvGrxG9Qm8sYObUeMYybjA+3/yZTpCQcVWzONFPQ+5R+P4V48s4HvMfxYSbT8qSRwMkzgDDxG6MsdFJcMAVlqEcc9GAfeDi5RwAQXx2Wx9QSyevAwS8Rzx53WCdXd8ZnfLKDfdYQq+Blqt9ZIws6c5XIkKvyUwexw/9AUfypaI8I4Bx6oS4vGCVPNmPTP0oP69M92pcnzJ1o9xeU5Y78Yf/8XoLl7cP93dpPl+fnm6v4mz/x3dv7Kfbezvy/jc=);lineShape=1;" vertex="1" parent="1">
                    <mxGeometry x="212.01459992900578" y="90.68624886717217" width="8.633599150406805" height="7.827553224941031" as="geometry"/>
                </mxCell>
                <mxCell id="12" value="" style="shape=stencil(lVvJclw3DPwaXVncl7Pj/IerLEeqKJJLVra/DxgVn4cA1SBv0kz3PC4AATTx7sKnHw9fvt/fefvj7fXl9/u/H7++PdyFX+68f3x+uH99fKO/7sLnu/Dp28vr/W+vL38+f33///uXjux//fHyV/+Ff955zlpjbad5++/7R9Y49/8Hv74Tnh6fbwitmVQZPgWI9zPemRAh3uYJ78cD1/higpvwwaQG8NE0P+GjqQjvjW8TPpsAxlNpfdKEL6YhfDZlXp8G51u9ifN+OWdc+ZhQaIHmATlvMiJ4Y+cVddHY9DEhV+PYE5LxGRCCCfMeuAyNIlVjmRGVYVZrwjXFi0CDBNscy/j6IpAhglWKQdh1Mw04TiRHmydNnlPApEMZq34RHDSNEPkcyHcieoIfpnkRwrD2jwhxXlbyHge8nwg+cQJaJSIwW/LJZDwkN1srOWgEG9cJswORh3o8B9s4Abn0glBNAQ7UCWwfGjxUJSHYcQzuEtxYhn1CBT69IJAP+iNCGEfbLiEafzbpNHxwn1CPNi7kw50mL0eH8YJQTT5bpVNbopMqHi1rdPC4XxAuD9knNHyQcUIw5WxI0SS0D4EHlJhMRLaUxogvQsarVE2cT40ek8Ck4xX3LwKFSbDTtCa1cQJaVhpxZnNopiJC48lJwjGO4jSbQ3KmgGXtX8/xgX4C7TQNqc2TTrQMKLAXPulEIQsREs9YUx6frAneBDbpgqNoMznMhGo8Mr5s6mzeqWHjozA+JyfZ4ieQQ877kNWAEgVBiaJ+3ofsYaYuUwfKMyueA0sdcjTlKHXICadwIhPIWT2XGKEchl3KxrXkZCYUXPAtCE4zDU7wowTZJYRhLLuEeBjjSsLHvSRknHtLQjkl1FE57hIosB9tXKXAfrRKlWr1ozhN1Smq4xYEKjiO9qFGGBSXhHa0rFUtODghH+attRzm3kTQjhlGqKf7gDOBBYGM7+gQaFarFCWhnBHIWo+WlQgom1kQTs2bCEoE4oRwmEq3oNUPLIq2aCyeQ7acAM078LBLBGitNGI2hwSlll7mNU5AGhwRauSEjAiJi4hEgFGU4j5bpQwFKcrImKjWlICSeSpNBJS3BikklrEzH+lLTJshAiz8yjgYbwjQ+CoXpIgA1R+qbedUulV83DfhD3Uk1x8RmDxLBKQXE6GJJ1TgD1Q9s+y+S9pYGCyOE1CC1Qs/Qaio8LPD5W8J2PiYSE6EdqSRdQLYB5950dSuQm1JcG1ImZfe+vPqYs0QJYryCOkPhAeHsecVfseDfaPsq4pdAGtkeU3W8cCQqJ6yHI+KjcSryo5Hv2+HDdwQ0LHqLmH1loBWVCgUCiFYccLgIdHBLTcBTZr83wtng4KD5YKDsm1EkPsAT/rKRRPF8CjiVulsaB/oCUfeSbbHDm7VOxO/3VAe0fj1iXLCiMsQ5QhzIwfZPCPFvalyCJ/j41FUuIS2zbDjRjq+GdfcKJg3A6cfWuRmZBb6kBL6vQhRSm4xat/d5GX44GZ2FE0Qv4/SryiiPs7vkgj6OIG85OnNDDWN3d9MgfMo3Ddz7DysfTOJLzzeK1VCGSfaZhlSh3iyWedUYQ+4kGrC/nGltsKjUlDica25wsNGDIHH1fIKj8pxicf1/gqPBAWBVxQLiceSyAp/tJ6KqLPCI9VI4rEsJfFY95J4LKyt8Og8l3gsDUr8oT0r4qbEY/VU4BV5VuKx/ivxWGCWeBwvJB5L5BKPNXiJxyK/xONbBInH1xQSrzS+cbxy0SLx+CZH4vFVUeM1vXIXJfrqlMuuJu668G1a4/m2cl0nroqV+8DGq1vlwtGJhL5faaKEOPAMRbk0dXkkwBeh4ic03vfWL37BmnrRitevloETUFbJhxRxpZd5TZ8CNNPeysSu+PEFfDcMNmkHA31vsGT36RY21VCqziRrpU2BaqU61xq9EQI8oTcPek5ArRZU3bLsVWnmcF70ZmQY/pwd3VUXATekiPNF6XiReNxSI/G4Z2eFR01BEo+7jiQetzUJvNI3JfG4MUvicf0p8bi1TOJx79oKj5rjJB5330k8bu+TeNw/KPG4QXGFP8qnlRZLgVd6OCUeN4lKPO5CFfmB0uYq++5xH63ID5RGXZEfKJ3AjetfSqtx44FM6WXubfNsgXC3dO+CZzPG/diUHzTWLY1LXPqa6eXuyno+Cve8877B1jNaJRY1emjDejmTXbuoj2RXyy+ce28/upxK3FCVtwco9LLmNoeVGEqBHCPgNyCSsFXlHQtKjVnvJn6Jg1J7NqICtWwqNcrJSyjlCo1X8IO5eC/FTl6iKeKCHb+kQ3hudrBWJzxLlPFLRjR+VhzgWo5+3/OXmCwaf+LFioVuRqW5E7+P5kvmEjkexL4udfD1QVp/vaTWGzzSOuuQyvbwzcmXwtB4WuQpPp5vy6MpeG89mxB38X41cSxiezh+a26DQH/8fEnv2+PT0/s7frff85f66KP3FwLD5/8A);lineShape=1;" vertex="1" parent="1">
                    <mxGeometry x="238.389267231745" y="46.60172877113459" width="0.5707439943888092" height="68.74701017850516" as="geometry"/>
                </mxCell>
                <mxCell id="13" value="" style="shape=stencil(lVrJchs3EP0aXbuwL2fH+Q9XWY5UUSyXrGx/n0ZYgIiHmQfyJpH9htP7+uA//Xz68uPxwZmf72+vvz/+/fz1/enB//Lg3PP3p8e353f968F/fvCfvr2+Pf729vrn96+X/398aZTtrz9e/2pP+OeCs8aIMQ3mzL+Xj4w4//8Hv14AL8/frwC1igsTvRWfCH2RkCZ6JzYQ+iS1AH3NhD5Int/fSzWEXn9+pg9SCb+lis8TfZRaCX0SM8sni7WE3kmYn1+6gA/pc5E8y0dfkPCbo5hZ/taIdwRgpdQZwDWcKnJgnXjCQkpS7Azw4ohMUxADvxCokSblAYw0ii3ngFiluBmQup0cA9Ss/QzIXfHHgCQZ9FDEED3E0O1+AKoYYknRSZwVp65MX8lInPWgvmyIr4XSX2AAnBiiuBC7qQ2AF0P0EJSHmWkX6Cv5KhmYjpRpnyVGBDCH9lEi8DBC1DEgiJ1NQ0NAZa/kMQRrDKjENLxbXqlKJS6qANCDtz0snAHczIN+YpmUxtcD4MVHDpjjmMotEp9ugNk0VDOZ/YKVBDyoi7JfMFJmF/VFPNP0kjubORJNq17B+IIVR8KMmhq8knpIJjw065+lFIJ4BvCo6ZCoaWhQgdgaco/nhwCNcxmYrpKIeWvohRQXbS8ijgFBCuRo5YooTvNNnJmOkTKtGS3MDhQTZ1rfeA6VsXAejIRZrJqTWJhRgJl50KwXiFgrmlJy1FgraiF5GigrqjlFcUREw1UGfaIRo3bDH/Qaylmlt9AXSZxfoK89Zd9Gn0f8uJHeSuXyAXpHK9WV3t/5fHWje+SvpWW+6/mpR78b6XMvvW+zNy2NLX9+QHrmYCu9ehC3t5m+GEn3yKfYXlOe0c/+q60D9y+ospWe8wvxoXiaX2u3rkEfej15GrAAoAGC/IACIOMrgBVSrbMBkSaeaczSfGXaTSkgFgSw9lQBqOVCrUIBKNZK1ayZxlQEZBKnFeBmQDW0X2u5LCOgsNSklRcALC2kWnq1CChMcb63pAPguC2FAwCLXtowgi1Vz/WQDgCJ6SFjUV5DN/izQsoVBCQm1mE5AxBpuakAaL8UkNkr1UXTiZabCsgOAdSWRtAdgMxtqfbnXQEK56HOiaQWWohoBWxBrCoGZnxL6K68tGgls0MAqy3UlqDnVAANlfEIwKzV9ed9zJFG+3MWyVBzvKItGPkaPQkCWUJdhMSmQoutVtpLJWzWKu9bch9sXtGzhDiayyt6VsC3fLjojBmqdYv/K4DFsLDE4Q0g9RL81lcqPUzfyrR+vUiJSbUNvRY10yJg9X9uFwpYFc0MT70z32XZ6p1l9U7e0KZZSlvvtAfew9u7A3o2qO5j+BtDWMIefhMjEw4vN0H4fnqMFjwrpCVk87SzDDk2eS3hoHOTONNic4lP5ZciL9IyMuH4odUWRF8R9y5tc0PeJ+BAUenZYsQflF/MftwSV7S+Y2VCHx5cF5CE3nQPv6JnoXTU4NclMHn/Zfa4qbFNr/xuLOLNkp14l7B2RrwNMdi+b/ocg/XHrpHqi4ZbOzWUz64VvLfXxPi5a2YlJaSnHc4yHti041idbdp924dDN44TLMb/zbjC9uHWjeOQlZ6PWxb6zTjHov9uxkVH9GwcZdGeN+OulZ6P01Z6Pq5b6fk4cKXn48aVno8zV3o+Ll3p+Th2od+Me1d6Pk5e6fm42mIVuhmH277xux638+fP8WczzndYRm/WBQ7vQtJYgZzQp5nftu9gm94eXQd96RuTk/oBtn9tY8M2+ji+bSshIv+MY7e2c6Ljf8jXcRPfDO7/Q+0L/rMeAFd/udeYZ11GgMVcortz7WNgctiWi8wnKybhtr5k+07Ta6oBsPRwwy0trufNm1uk1Ja8rE70uO/crJHV8qBy2iyqGwB253wVroAAe2e+bG8A4IGv813ABenmYEABMOd2o60+Bmi0mv25zX/4KhwmuK3FZAEmoy21ww0m1mVj0k5D+A0DmHc7JuOnIbBjaecthAc1tQSv5OnVUDC9iRkAR326OSS8kqXmHQIWgpYPDjQKgYvaQiN9KJiqNPAwsUaDtXI7xuKnUnhQxo8eYsDu9WOAegwYyXsAwu4CDWzJ+t2NGzT4bdzHr+gsSMnSDkcLFuTB0BZEKzQDkzTKQg44tSpURlpRgyVlmqLLsrjiLVdZLrcCbZFbxwdRkpbMZbmE2Wz0lxMPjdrE+ZU+gePwiwqLFmF6UD6jh42V6Q84o4ekYOgtbJuQ4Puw47/qcUHMDx7rol9Dw0SNB89nFwAJa+ANfe4V4xU9k3/BmdiG34IlpKHXl22yHoGeBbk2Acbbcea/dx+b3wDQPz5u2789v7xcTuOvv8dbeP3ockfvP/8H);lineShape=1;" vertex="1" parent="1">
                    <mxGeometry x="236.76596273615365" y="114.05398658380122" width="1.688914755881414" height="33.122889938923244" as="geometry"/>
                </mxCell>
                <mxCell id="14" value="" style="shape=stencil(lVrZchw3DPwavaJIgheeHec/XGU5VsWxXLJz/X3AqDgeNmd77bfVCr1D4mhc86Bvvn589+XxIYWv316ef3/8++n9t48P+stDSk+fPz6+PH3zTw/69kHffHh+efzt5fnPz+9f//7ybkiOT388/zV+4Z9XnJmYDlQK/75+EySV/7/49VX+09Pns3yT1Bf5KEWJfJIcFnkVJb/fu4S8yGfpnchHsbrIV7F0W75lyWWRN8nk/LVKSOt9k6R8G1BcQeuFY5EUbwNyF40roM+fuASozRtOgNsgkiNpkrje2ZUayKWTn3hVqmu12W1ANGmrV7hatRJAkbJeWqNUYue43UFVGnmCSQG/K9KIGdp0y0O+SSGOVKSuRnCzJCKfJbXVrwNVqWKcZdcAUVCSsposq2RyniRhvW/OUpiJpa08kV2fxOmiZFvlq3QS+Lt8E6PnqSBvNGri/LUpX4Jkqs+82rdE6eT3k9jq0EWpvXTS5iGfpTbmP8ASpYqS8xT059IlEv+v09sPHg0SaLyAP1TXMDmPSVz9vyrVZ/TwWAO48gB2htA1YqpHMPO4LBGuzEPYSauvT2iBH6lJXY3QElWq8yh4ReNeNMIGnpAnd18DFOOslck0t3IBBFqrk8quAR2ZujXqqepKBECnycOZv8CRjMayVslrUdGDFAYwTOJeZ1RyJCfnAIA09XYN8GiHIylNgE6HYb10d8JmhGGYxHuhanWCA4rpXvyQIw2GCwhgl3aKgzKhN1ptOscBCzuAZU2vvqAc7Ed5dQ2wzTU65SWnRUgk3Usdwho1Td88ATrJnDVjyWmBGq5uxZQDWBHsRS1oyQ4euQZ0yREBxo5kM9kfAFcD8dYWMeIcYMT52pagTSkJOJMCGTvAiB2cSdvqGpZnirkGeH5ICGDe6kwKRYPxXsGZFEp/O+rQa4A7c0MAK6ucSTvYwesM0is4k6Ja6/zmVseWFQHGnpCkrxHnTWgmIerECLWGAxo7UpmFwgE42tBrQEUScADVUt/azk4N597fwDWMOp87M1QzdlDbLQDGtPFWXrHFcEC9AygIYD2DA6CEM06VDgjbkRjzuVoh7Q4A4SXb+s4Ywsz114i4BYTRkHNAtA3AZjBB+mY5NiRxQGmbIdiRwiTrs6nvPGHTK6uwHNA2yzH6Hlra/ZtwpQP2S7M06qYOO4DZYeu5B4A5k2KVOO7A3FUnq5zVypxvayuH4e4AdtfgAGQyowWTHR3MGcCcL03fPMcDN5yurvEDMQoR9AOI3RKUOH4W4JVt2KI6sZziqR8AnZKf58W0ASoJoZF5AwJYs+i5HaYOnnnZVMCrh7ABWCXa7OIJkRWWfeaoU7nRGaBhl+8ANkdwAEZ1nYx+q+yDvsmLss7KvrKFUKEVkJeucStdaTWtczh0AtBLp4snsPlSC7hocGJg1UO1jQaUjrlHkwJaOrL9NaBt1UOaSeZWo4W+FGkA1b0SjbSl9mYRpl7fM+s1IG524HM7b3jreiRvRzNrqTsmXi9mmS95045P6LT3KwW11Bsl/KI4rHQAy6Njdrsaziv4zp4Q5oLkBGBrnzGthjsUuj/IBbnV6bmReMheC2wTo84AAVuIweckprVho9Uj5SV1w4GWAr2DJtxqNN5CJMMu3/mcFUCpoqWdnlkbNAbrq1qdnhm3poTx0DgZpy3HOT2zMjF2JOOmNO3GOufW5zkzW55k7MHHJJuv3yqsWb04YU8IOKlwtmVUaTO8zuN+EqFtWw8ode46B42HfKTTn4J76HqY8dq1cdBSjjn4tVfgrKjwOcu2rxvDVLrvAgs7abL92JaeB2cS/gq4Xx37NOIQAWvPzJctAYuqO/vAXb7S0UFAfxv7TH5f2K/y8fuR5w95pfObrSPJiVY7W2meOfV6JbKeX21+c8P/DfbnvDDv2Dwrn0yO/d5qAFW6YtnXdRqnTW7RKOSOxBuqdMyDD0ClBaQGnHJ/p4FrQMfx04i7O1ufFRD5ZNJrKeDdWCigblPueMxBbrYKUDXTjeMYEOMbOnQYW7fNPl2yjooaXiWhK1NvnWAJ5U0rG0f0+e8pH2ij4/IZ5Zk+bWtQAzWYdYz8MPdF1/KGzHhn0rHtPu/K502e6cdwe3v3/LAe5ol4TJcayjN/MFyGBdoEniZFJwAbTxkuCwJd8vz0K3l35f3D9/f/Pjx9+vT6+uD5//i+oH/1+q6hvv0P);lineShape=1;" vertex="1" parent="1">
                    <mxGeometry x="265.10913892222" y="81.21179334841096" width="8.840141903669137" height="41.990740282579516" as="geometry"/>
                </mxCell>
                <mxCell id="15" value="" style="shape=stencil(lVrJct02EPwaXaewY3B2nP9wleVIFcVyycr29xnkFSiiQTal21umSczWs5B38dPPhy8/7u+C+/n68vz7/d+PX18f7uIvdyE8fn+4f3l8tU938fNd/PTt+eX+t5fnP79/vX3/8aVL9k9/PP/Vr/DPDeelxA4K7t/bDyGKhv9/+fUm//T4fSdfpFaUL+lc3jvxCQExE4DdHwBBWiWAKs0hIBFA/1tngB9aHQOqZFDaSfPngBjF5Qngm6gSgKIOXqWQI6U0rrcBqkRypOwkw5GyNOKHXMSVGZAks8jwaCVzpWeAImmOPe+H7w8B1S9mdVKIDjWLm63UJEcir5Ln2NOh06G8msqz26pU4gRNEtokX2hYqEoKk3yWTK7fPEZFkliIfEKDRgnEY9oGN7zJJ2JPreIdnCcwect9B/qy86uTkNGeRL4WtL9SsqvhIEJdIyFt8QJJYxYiEVqS1DUtiYstyzxk2RYkx3lsIQn06Gla5iRl1sG8XInXchAHdyg0jFJbjqQ0j1NF8op+ZPYxIIvOjjZKjgyQ0NMxcwI2iodUUHHESsljXUtOkiMAqzEACDS6DeBnx5kZIonW2LD4m6EbcZwBgp/z041aelbXdL5DtppArBS3srcBslR2JAMAZShXWrFMFZ7TccnpYjTFqr9itFqlY2XnANAGsb0TYKWxcT8gII0cfC+g0upvgDgDjJwjv4Ob/aDW55HwjkZksx80S2KOq6MN3ABVlOS0AcKc083RnI5F2kwzVoEbO1JBHZpxKwdAR9IyLbkxjFDbAFvSngJABx3EcwbQjIDCdLCmoiKAOm7Lrx2A9QHR2HsFsGi1xvBjd8iYD1c65JGQ77WS1cy0+IEHX5yZ78rTBVsHA7BByXTQggDW38at3uwAdO5JWB8MQIksYYp650b7cRZMZb0Fs+s2tey1ZmcK2MMZILNgCkswNc6VRwBKTHakJZjYiNuVXhIisxJkZg0IYO1M99zHcjThsNEBjJjW6LMjccABk30sg3Rc4v056vkdPggIo37sCkRg0RoXnomj4T/19FLkLpIaVj56kXEJOywr1LQqpnG9fSvA+R6U7s0GZ7I8B1+fNXmBqHN4XzVMK+CiJVsBF03fArhqK1fAReO69eb71vhCh9lxhQ9yHTCHRm/vL2rWfCQbIGjdXQp13rZ3pyk6s4YNQXTiWJo+G7PoAFFHBu8GucBiyXrpZVSkOa2YQH14JHdIyxrXDsnMmpZtYKdnNu4uFciojYV3X4HCkdyYBY8BS7ceVDxbOzQk45DpniL7sVLdrU4Ye+eEwRccbe8t+nEjVamny3Ikn2nGlYz9kg9jBjkGNFyqeUcH6rqsTuroJc62djAOZLrLMaZOEBi0ldGIi5Ygnl2/4lbZiyf62hAJBnJjXDmWj7hV5h1uK6M9fZNn59l1zG8KO+Lh3oJALo/12tmB4AELr84t4Nq60DRTRY6vdEekZfSNb2tfVkMsIBI0YTSL1zV0o/axgIY6axnDNqw1YDfSn5QQjcu2x9slMXvaY3UbKohPtN/J1t1AEmRKRH1LDErXUVPO6DoCESklouSQrv3lMAlEYZkc2INARbP2Z4kkMvrmfNmlsynJL4U5JEpG5qaSEVAYwC3L920Zchx8yHYmH5gKC5tmaiM/Hmnt5en1/XJ+9kDZYY/az08C1eEuyeRZa+SGf3YOYHtMh5lm8my9sJJ1Ghu7M/mK8syebjyS28mzZtONvddO3pGkcUjWIdL9osc9Qa82xJ4ffYPhWt4+vL0u8e3x6en2tsX+f3y9wn66vZoRP/8H);lineShape=1;" vertex="1" parent="1">
                    <mxGeometry x="270.6341309941104" y="80.1095715927188" width="4.646106188604934" height="10.42471831904487" as="geometry"/>
                </mxCell>
                <mxCell id="16" value="&lt;font style=&quot;&quot;&gt;&lt;font style=&quot;font-size: 6px;&quot;&gt;arr[mid] &amp;gt; arr[mid+1]&lt;br&gt;or&lt;br&gt;arr[mid]&amp;lt;arr[mid-1]&lt;br&gt;&lt;/font&gt;dono sahi he&lt;br&gt;&lt;/font&gt;" style="text;html=1;align=center;verticalAlign=middle;resizable=0;points=[];autosize=1;strokeColor=none;fillColor=none;" vertex="1" parent="1">
                    <mxGeometry x="250" y="115.35" width="90" height="70" as="geometry"/>
                </mxCell>
                <mxCell id="17" value="&lt;font style=&quot;&quot;&gt;&lt;font style=&quot;font-size: 6px;&quot;&gt;arr[mid] &amp;lt; arr[mid+1]&lt;br&gt;or&lt;br&gt;arr[mid]&amp;gt;arr[mid-1]&lt;br&gt;&lt;/font&gt;dono sahi he&lt;br&gt;&lt;/font&gt;" style="text;html=1;align=center;verticalAlign=middle;resizable=0;points=[];autosize=1;strokeColor=none;fillColor=none;" vertex="1" parent="1">
                    <mxGeometry x="139.13" y="140" width="90" height="70" as="geometry"/>
                </mxCell>
                <mxCell id="18" value="" style="shape=stencil(lVrZchw3DPyafWWRBHg9O85/uMpypIoiuWQ5x98Hky2Olo2ZVvRmr9BDEmcD5EU+/bj/8v3ukuOP15fn3+/+evj6en+RXy45Pzzd3708vNq/LvL5Ip++Pb/c/fby/PPp6/X/379sktu//nj+c/vC31fcGKG3DZXjP9dfYtD63w+/XuUfH55W+VRAvmci30Jdv59D7ES+hqSLvARNRF5DrIt8CTkS+RRKWuRb0HIu33uocZFPkR6gl1AAkMMQAshB8woooZMjtDE1sgN6KGRLrYYmqw1SSESpTYOuRjArCNtSDgWsXEIibtRSiLClGioB1BHaamczXCeHrs5wuYfBVjBHGCtghMFWqEHXFSSGoQRgrrmuIIm6RtXpajtApt6OATlUWEFDZoAUMoRbob5URqir4aSFRFyjtKmTHdCnOx4DLAOsh1ZLSQygGECaZxI5BpiW1hymEjqJh+K8VUsQsoKaltZDq8UgSZPag6wBpKY3olb7s6zxYJ/ogwAq5qVtk40ASmjrlkoMQlKlAVJGAIsHVcwapmglzqc+2Vs1IYYzu+IKearhDAARV4SvYN8TBBRmadsxaMlOxdSaMC8ZgIWohcsALe2WOQPIQABzDRkzXHZADZmsYICcEcBqnOWICis0mgQMEAFgv7AzuAAyQCP1QSpmDcuFSiLOMulYt1TjLABngAQAq9Ps0Dqr8g7YvesYIFjYDTCI84kr7FVoybKKBoazqke3FENZna9yX7KqrGuIWuUuJM1Y3UctdXqGvFe0nSPGmZ6PAWVy4B2QQie+lHXmiB0gfAUJebWDcbTOzpAxkRkLZIzMePxY7dDa5DdngLjGQ+s0eydLAmvEvTHZY4DR2nWFHiddOQa06cw3AEbhDABUuqdZuY8BlrbWADL6LuwMFQ9tgEEsnQo2TF1mSJ0BwA6dc77k+JIBGJVOgtx7a3LYllwV7dz5rEUC+tN3RR8DzEywQuNbMgq3xrR1dlRL5modAcyXBhKBPiaBOu77QlvNNuLMtSfyUOCslRXW9YUM8pl2xhW9YnDmU2a/diPPJgGKsTneoTGo/1HmL8eFZBLsG3laqaY2dvk6LXic77CJHo0OAvK0zo08O2+edOVGfhC2kCaB2uU77UkiJtNt9EP2E7HMmjyjCo5EbvJk/xGb4RTjjNETQPILkICJWMU3eeKgtro6BRGHiC4gLeCpAaLbT+XfF5RnDmryTj9stGX6aSjPEkpECrLJc4fw8qQImMN5eepAxdmLjS4jDoQ2fdL914zylct7f6DyxZ23c3n3fZbgokvofJ5l9lrl3w/I7BegBkvOodl8IGK3vymIGvggIGmCOAhILu/OW/h+nIGVf/9D8umgwrAJZ0JmuQ3nacVDfbaZAk7k1VXURiteHyjP6L0gWbcKz8i6YEdjjIMFgDpGo5RxFJfghCbo6vzfOAVhWHWWqxvGx0Z8bX7tRp5eVbiEG6l9B86KO/fPgfrfLlNYnxHxAEbqWYYzUg8eZwDGca3PAE7QOekzAEy6rPWhjYkgber8Qsq6Mbjw6pwXGwC7MT6SSc5PDUB71uLa6P1e4azJxd6Hz6GSm7BY3824gQFgoG6dfWNqte4OphODJ8eOhzYAG76lgQ1c69TSG0FwExZ2DWcJu8EMp8zb2rOhD0x+m1KKszVZa4ppMlnk2aQLB1eJdzVWAuDQka/QMGtsN3nsDAN5bG1z5nI2cYTOsr7TKaYZLjtA6RWWZKTKVXilEkwCNdNDiyJ3qYleMBkARpQ10u5GipvAc3Yn1Q3Ux7zJO5vAw+CqdNqwGKCthy6Nj+zd5Lfwy0oDDHexwUqcDHc5w0NUHak1AEvG6tqQorSt0DRHbTeAzFZws7QiNN1rxtFSEXrhagBIlYW7twpmbwMkDoCiWBLlGqo4fiiJjigN0GFLu2WOAe4hSNknDMeAOgeSE6C8wdaGY1blD0Hsz1B2lc+kdLhb5kpH9nZEsIOpgb1YKG5Mtt3ZsvcEji+Z/7JEZvE14NCRXodajoA+wNKCMoDTkvDGx1LvWOuDZVtWsqwaKLy6EPo8oAryVnmn1yjY3L7d5B0DXDcjkQMacg2r3PTJj2VveCPUaRWtLhkbmWAjdaMikJeMrrCIaxmpQ1Y6szH+Bcl442j8rZYCIE4GdQwYGA8b9SVq7dkBCr232xqY1Q7WFVXifN0Zjg/ChnuE1GiAWpsNvFjpXGgUfOMoswgfyzccZSdK94ZrHSJ/szhwEBNpjtzGWBnl+feb+z57E7nPuf/393v/2P6H+z5/YwptTKR90nCDhshvG6Ob/EX65OAYwCYf+6T1TV7e0RCemI3i324ybjyORczHX/m+I2//eHtS/O3h8fH6Ivn27/gE2X66Pl+Wz/8C);lineShape=1;fontSize=6;" vertex="1" parent="1">
                    <mxGeometry x="187.37595539337366" y="119.86426872711559" width="32.25743676351971" height="30.979264385964928" as="geometry"/>
                </mxCell>
                <mxCell id="19" value="" style="shape=stencil(lVrLctw2EPyavaLwBubsOP/hKsuRKorkkuUk/nsPsgZF9HCb0U1aoglgpufNS/rw7f7T17tL9N9eX57/vPvn4fPr/SX9donx4en+7uXhVf+6pI+X9OHL88vdHy/P358+X///+mmsHH/99fz3eMO/V1xwsQxQ9D+uP3gX/H8//H5d/vjwtCzPDZY3sjy60JfliqfLe1qWR+fJ8uRagOW/8IfLs2vr2ZPr5fby4mQ9e3E+317eXMrL8uqS3F7eXVvl3lxvRO6qlvWu4jJ5fQgu+VXyqulKABHPH5ILkQD08SrOoALigB5XQHVC9BWySysdQne9U0Bdd1B6UqkqJdZLK4WEKHkAYAe9NCHROBJQuk253QIU2EGmKm8B8qrppEbGjxTBDpKr/NJhlVIqrjPyKaCugO4iv8MvW5mA7KcYbgFkNZ8cJ7uOAQUVlwund3V1vUNu1KBDQ4vOMl9xDJDpTzYHE5wE4h1VJqsPKNl5wiX1trJqulR6afWIeWVr6XyHjDZdhBqQekXwGjVML34MaK6uYq16SLaDuLj67VpoSEveyarpWmlQSxG9RlV6kzsk4wSqUoM4smTI1wJVnNoXHKlFakBqX7IqrvFoqPYlq4k2bkBqXx4AGhHJpdW+4urIWpv+/BigjhHu0KlfUvsCA+p+eqpjQEKxdvWt5EhqX35VXI+uEgNS+4Kw2xN1AlUTLtiB60HNxa/20KuLJOyquSTYodHUoTYMu527e2V/W+2hC42iyv4qCGCpXtt8xJYuqfNkO2w+YgNsmfExoM6YuQMIuXTbfMQGUBNldxAMWZIoW5WbISGgMYAeYNW05EnHY0Ce+fgOwCxOuZlX7y36C6G3clM8AoTQe1BtpbecJN6aOBsASx2UORWO1Ki7VyLUhgBGPiUCxAcFdKIH1SuKtc/64BiQ0bdKp5oees0IYGwVq+lOo6hKHcnXZ4g5BqgQQaxCTVQfg/cevzApCQbFAWApnPfGINQxnWzRDYAEiPG4IoAZhAjmDgNALqGPIfkeAKYIwYiyk8MxomPpfbZFN0YqM5e9BYA+xgAwvnZTUAstLhXgjVxZDDrcoZ3cwezQ+A7ZaK5ysTYjVlajDFXbHTggG4NgCdDb4/2lGZc2e9kDmCs7MrnGKrljq+aeRoyqWTIgJgMaAL7DgUEwuoppvZ0bKQj2fyCsR6aH6pixn1373YCCKb7w9okGumIE63koBe83BMeDdTGRkdqQKbWGofP8AaXEC9KRoZiUhpXtmgNBq1W2uvxWllUNgOmhW19WqQn1hh1OBWRCvl5MdK9U05rt2uS1sCOlg/SYRS3N2EtGAE2PvSlTEi+EtiRsB2DVXzNV+MhOyZG0coLqbxRCRA/NGlCY/D0GxFlz74q5yu7gZ3dlVy7SorojvRUQWI1c0YBGHUI0XU0ve/CX7RCxO6ilETOgIuYOZYaAY4BqGorqRNlayjSXXXOD5SclmrI9UBMt3mVoPXgXCTWySZmU8MyR5Yq97NFkYl0pZeuqOK38M5syhZl37htlRKzJZPiNt4BSw5RpNPvYDuq2oBUX+JES1mZ1a0YcA4Lp0nZam0WTxY2mK2vraja93mG0dYkeoqkvR+OY9bLLbHXvW9PsSAkbNIVXWtHM2EZ7nWSiY3wFM0jlL5vtyAwf+xEBn1qIHUKwoZzpe2Xeyw4F9ZAbjXF2ipe5psPWud4AfBCsgPi+cVOa7ckJOBtoJfQaZyOzZEZmJ0M5c4ezsV/CKHo2WEyz4bMBTkaXyYxfT4ajCbl0Nn5NmN2/WchNKa1HCnxEECLa9BhSsyNFbAsE/p3AmMPbQTsDeMzIxitYlYVhWii5zYCt0bx7Gx5sXpJORDL6+UIHigmbV4mqK2Jgi3zej/lI5Kqa3zNsgqeTR4+5iKcx0zQZPJ3jeNSqp47do8fyVO4eRweeSsYjCTz99MPjRMnTwsvPKmu3nDDSI4HPlvf3vR0CJL9qQHfgZyS4sTyY5cxjojvzs5a6tfx9H3edLNc/3r4j+/Lw+Hj9DG3/HL8705+u36yljz8B);lineShape=1;fontSize=6;" vertex="1" parent="1">
                    <mxGeometry x="237.04283065004392" y="146.2644318763826" width="11.906419285138554" height="67.79950369048957" as="geometry"/>
                </mxCell>
                <mxCell id="20" value="arr[mid-1]&amp;lt;arr[mid]&amp;lt;arr[mid+1]" style="text;html=1;align=center;verticalAlign=middle;resizable=0;points=[];autosize=1;strokeColor=none;fillColor=none;fontSize=6;" vertex="1" parent="1">
                    <mxGeometry x="210.3" y="214.06" width="100" height="20" as="geometry"/>
                </mxCell>
                <mxCell id="26" value="" style="group" vertex="1" connectable="0" parent="1">
                    <mxGeometry x="364.89655203498955" y="19.966866154109027" width="134.92084461743093" height="136.19748228881303" as="geometry"/>
                </mxCell>
                <mxCell id="21" value="" style="shape=stencil(lZzJkh23EUW/prcVmIe1LP+HIkSZHaZJBUV5+Hsn3K7Xr25WnYreyTRuvwKQ481MvOSf/vj8y++fXlL448f3b3//9K/XX398fsl/eUnp9evnT99ff9h/veSfX/JPv337/ulv37/9+fXXt//9+y9r5fqvf3z75/oL/37DhS2EBUrhP2//MOfW+//+5a9v67+8fj2sj0XXh0rrcz+uH/tfuFhf03F93wp+T5f1bWu4ftbj+rr1dr0+bknOp2x90voq6/PWYb9xG/L9aWvwPWmL47g+7id2sb7J94QtwffnLR7Xj7HNQev//7WP9X2r8P1lS/m4vm0B/n7ZxvG+RtkqnGfdpeWxPm8B1tuvz+P6iH/fpOt4/sM0Il6v77rfPrYRaL3Ic+/7DZ6uN206nk9vKA9jv53H+or7HaovvWwN9H1uOR7XZ9zvVPnpCeVt7v/v0/pI+mgGSC4g7ibpCtCOEtHNJmUAxF3AdkCbqMIGKEcda2PrcKYG6MdDah0PNaZdJh+Atg3aQ9rK8ZpbvQMM+YWyW7JzgBmWo2C3vP+JK0ARQLr7BVGdFnkPZQuyh8CfZMbrKHx1svMoqm3Vbpp/YRxlqXZ0Z7HqsVbTf9AfA5SjPtS6ZVKgqsJXC1rs2LYov2BOiFxg2y3QAxB3L3QFECNQ5u52zwFdN1367leuAOO46WK7opseu1d9AOzu6aaHmpliho+kdapnLhEjIwMUOaXAxzo1FskDT2kFg8dTyiatsIcV3R01Lrddy68A43hKuW6JABavHf1/fmj5FaAdRSMntK0WUUnEnO1P0C+kLR9taw54cStmO16ceb1Cn5T1k8xt3wDEkFncQdJqgHo8JQuEOv9CP96DRWaTNl3cHuoeSlwB0lGW7F86iUbZigNEEu+y3+sDkNG2rmBVAKbTYFttiyErAC/OpP8oSya/lI74eNgAuOm63+sDEDjBsHs9ApYdoZtu6rIMkOimmypQHJhjGKAKoKNtXcLcFZBp084DxRt96Jq3xccxXAGyACpv2jS4KyDwL3Q5JU6tDDCTAigSMCskyZXFaBTNGECypfiwVFcAoRcsMJ206aEeyACVFMj8dFJA4j30YzRj4fskjRsa8xmg8R4kJzMA5fTmPoLIUmB9mMp6GKDSpqdmWQZAnZ5qlyYG9ytPjLKeotY0VaPt0Ph7pq6nv28uPEqWiN+/XH6Q9ZFolaBi1zDCtfXCk5gdp78fVSTMWMAF23rJ6wufT9SYPmOKa+u7hGFb5O8Rr5OQlrCgLojjxDjS1kcxLJhL2nqJ/+MefV+tV8PF8pA0mA/oZG29uPGADi1nzYUfxPDVeglEwh7KXK0vTdYnXt90PXk/Wz/0PCnst6xAsqmINJutFzYiMY3qeMuMNKGlNWIfCtKWljcFycp3X3u1fgjntCU6z672trM8D8e7Yhkhm/kWpxf2HZ3zwM7gmtPLcEIlqkQvTw8mwgBdvCTbLEvYhetf9A1sumRNWSxEo9DAAFPcakexKEVTRwuVibcoVe1KfLjyc4AF40fBM80kzSkWyIqljpgJluEAGX1NmWpLTXkoCKxB2U7TBsrIa9Sq1AptQZ1r0mA8MUNVH5nlE0mAeyiOSuG4dNF8woxkTOxqU40zo9ZBNKpLisyqDTAa1WUgZqYoX67DRRUDs6jqzEyeyCq0oJGvGR6yGi1qNlsiRoItqeU2LacsqmUlCUzLM+h0c7y2aTkFRwaYwkU2FL5mZkv2MDB8aU0NmSktEX+ta3xnSkskchsOEFH4mqskmQ6SAvWoIYPpIJV2e9pd7BM3j7+Q1Ymahgz6haJRswl8AdHozZU8IipQ78qnmvySY+9DnaJJF1FafSoR3pgpHC7VadwiMJIq0BIWMDPDBOFoNW5KgKO47C5hOjWqWm+7e4pvR1OH0gvvoSsH1htajTE0EliVZxCNMTXlsbunapgBxGrY3ZNDmeanpTjPXKQB5vHiRsQ0ckblLQxAJLIBmsS5afcYVwAxMyNhvDSTZlYGIH0wgHDzJr+U6xmgTwUQLTezkgWDsxMDSKyxNAREY2Z3rAX5GgOIyxqPwuY5oOxn8gQgBZoulB4N6dFZlWIwHaSczwCSUw4u9q5WJfmFgVn0bLsVegKQy5ouuh+TxbtpnmgAMmQG0IaeiczK7NpeYVpOqa4BpFxgALy4rsL3bkeuALIH03LKsuZQ0TAAhT8GEA80I5vKoRXumZDAmY7Xnpw/zKEMwjI8vAexfMvw0ClN11uYeQ/TbTrzsU71D6blkY7VBYkGSPALMfiGyoLW+Bxxt4uuALyJqYWbBSAVmtr+MG+6vqZyJwtA0jT3PphnAAtHc1dHZXcD1Ok2TVo9tVln3QNvWkKsddU3APcL6Qbg9oCGZu7X9ARAY3l2D9TPuwDuk4j5PZUlYvpOpRX96Jk+cE/gmcol6mk6V2s+WG85yg3ACTjV3NbBep27uYmP6lz3Oncjfu4mbj5Jy3q3m/4gYDjhyPxJQ+O+yaWo6UrKkzu5DJCdr0ZjObSjzgAofN3JUsLWLwNIuXQyi2UAtUyR76GfRDQ3nyRJh0Vl4yayTAog5mHFri5QxGigaQfRmNgwagCpIg6mvSzCl3631X5Pm67KC6w8nux3dQ34D6rtKg8S+20AKrwshZQRgoa16GWtkwIoyFojFS75a/QLrvpoAOIrl8oLoGAtyPRruBQZTympAlkSjjedHFWR74gEIZoXr0XHGtU/jIT043TDLgbAJDy6Y+XeGFNIbeOIrNPBpfkBM97h4pk+8ZMMINLab9jE4UYiuPl46Zd8UsNw3dRF6UfukjXplxT5ZkrDhFkZ0YR1lOEoox6QNx5RFahN5DaGm9NoHXvr7V6FJ2sNuQ27VykeNY5mendjFxnLhHZNSmVHzCB6UXO/JhBoD1mFrw6sNvXkqhwNW4O741xrwQme5trMV/GTanJDaa+a0E83V1esjz7yc4Dr/yw8wrOmY6RMOLieVXaS6wHomMmt6ZjjHkrlPSTtgFnNACAazbVQFeaNm5udLAlzxRZc5TJgJGDCLPFSnlh4qa7/Mw9UoNpdnb2jqTTpF6eYG8atBghH8c4FHXutWnLO3HdSiytqp7vmAolbMzeBm35pqzxXampUh5IeDOY5ILgJBG6gLq4lNVXcQ3FJ05pVhZteCuma8ck/FNcgsZryqHemqjGOTJYXF0rHsbeFnwOyDmvFjqxucc0FsWG2ayovAVbkzrMSdQI5Zu7/CWoqY0KrYQDt9OJc1IyKhKFrSpS6/4ZK6+Tuwq6VnY5VxeyqKOxzs4sbKiYbuer0QeH9usmXjLXj1U15tEjcapddAhe5mzVr/xX3/uWsQhowps9u6p3r/WZvp3bL3nQHN90vzSBn1z4WMb9d3cF6/iifybXYcTd38vdLvEeOGilwZJHdgHPG6q/vLi98X657nfOj7Ft9kNFb3feSvGD4uLr7pZuD5Tlobwa3H+agrRmDu5uD5rQTA2w/LTF5BHI6k87dvsk1BcWbmUlXWok8y70GUNzUDTk+/7LB8jJ8SL5jGcdpp1brI79tsGZaigJwjHNoMBuZ4VlyI8eaMW05ma/KWPZILsk2AOU568ULOaXCA1ndzeoVJApS1+QuMluYugtx6t00oDA8kdvx17SQA+DFNe2PWTPwPDOpI5ADW9hWiNIUgJtu7qYnWj0/KHozlLKsdFQAPqZT3aT1zSRdVSJ5NbPTHqoSZzeh0clIcGZb7JiFlO/moGXi/SYaTH72heccTkazKwtfVhVNnGS/T5M9ASgCW5PbEvF07CdOD678KaPF6djkJtKYu0guyMs8SfE+svaUxhO3naIbQuLK5PvQ2hN3Qa91rak1SRQq8i/rvS6Z8+OuujW35ggbYkeWjXAzAsS/xKmjcpZQUnS4zNbxHizHxTdXhnY0FH6UKjovurg8+qShdHvhVnPzBlL7LJ1PqbvBCI751kC8dL9HHAmObsy/Jn4WqboO/pu+j6qbrpUfaanqsmrbA9MrgI7ldX4urmjjVB38ypGjhCo/txDdi2uNh78XPSNlj8iikdWhtIRO0QBaWMl3AOFU18gKbTpp3NoqFiWio7VaY0DUFGiNrPAjXhIkvo+sXAGkEbzxjPwa6pcyYMCILAZNozs/fhf91HvijjftHegZSdt5MhaBRXH3+h2/QjY0yO0cqA9th+4NiRj3Qkbv2PLq3qXqA+W6ufaQgGa+Kc+zxhuoUuB63jNS4M7crTYJosw16V6dHkSsaE1r3BCpmqOPGyLDdcQFbGBIWmhf8yD4Wqf2rqeb10P1NdOMPU9RI/NZ2Ka410MrOg//Wiq38gT1+bNjZBTc66QDG2KD5s3vPeMX62UC770b9Wp91fV0nkF963sX59X66Nbza7vDrQf5CWoPnxpXrwDpg4DgboC/KLgb4B2HD56oRAa3N+bfO2aJOFkPFujj7ynfrbf/eH+8+bfXL1/e3n5+/v/1sWf7p7eHovPP/wU=);lineShape=1;fontSize=6;" vertex="1" parent="26">
                    <mxGeometry width="134.92084461743096" height="97.08304295433288" as="geometry"/>
                </mxCell>
                <mxCell id="22" value="" style="shape=stencil(lZzbkhzHDUS/hq8ddb88y/J/KEKUyTAtKij69vcGYt2z04mZM9IbtVpsd1WhgEQi0R/qD79/+um3jx9K+v37t69///jvzz9///Sh/uVDKZ9//fTx2+fv9q8P9ccP9Ydfvn77+LdvX//5689v//3bT/6b/q9/fP2X/4X/vNm1dtThViX99+0npR797Sd/fTP48vnXO4M6j9XVYGcwSMdaV4N27P7coPQj5avBODoZpCPJE/aRwSD3o7eLQS1HT2CQj319Qh1HhUXvo9TL77d0THijeWz5fduE+vz31zHn9ff3sfB91vXv93Ie4+MFl2Onq8E6Ojwgj2Nft3RUPLS8j3T1ozGOMuGUyzGuBjMdFfbIvEb8aNZjwinbLrXrGubAXa31yGKwz4N8dnnKvhisevh/PjNo+ejlamB3AZ7QbNHX+7zs7GHRPR3j6to7433uXQPAtm2AVxq2hq0GtGhzhHld9C5HhjWYI6yki6ZzmP38e3fbuuCV7FyrnEM52oILmo8hzrdP/31sYFH0ukvmfP+PUo8NxtGuazD3ppi01tGua7B9oyCzk/qSnQytwTynXMOSBYECa7BzTddXGvZMOGkzEF/q44xUz15JInfPGATMc8b1TtuVmnwO5XrSdmknnUPRuGRhoUPkmzffvBlUvg9ZfckSxoYnjBlSbsfIZ3daLpCF57YxashJW9bGQDaPfH0lyxh0cK3owZkBZaC6jjLUYMAu2a6PpGtIsGiHIWHRC8BVibtkR0kG+agCfeoZFp7l6Sx4z9wbzsGRwPVO14x52rBSvmINd2+CDiF6G1iiReeAKA3FDoZvkqfbCzSTFV8ZXsoQBGyXuhjwBcpV027f6Eu5nXtyC5UF025eiortlg9IWeZLTQBWYffuR5EMNDB6230YV9fwpAgGduP29ZUWI4EaovdqmB8MZ8/rLq2JpUC/7ckd1mjgGnau5fpKllc3bKsl2XTdJUtidHB2THmrQSGDpeHeXqlRuVHOjHa36EQ5rivWcNxKBvuEhDeDjBWTvfESgLWODIvetxLvD5YDhlLlPox1VEIz7UgCfzh671vlfBc1sKwsZ/q4C2QVcKvt0rhua2Pnc++XSrfhjTPcOgRrzGMRmtmaHww6JDJoJyFxy9MTC7+x1Vst2hLWGF3ztKWYAgc3ovMhRuwBX42TIHhWlGWp788w9TiKNa2+O3qqOUEb8v70+9Wi5NANortTQz60/EWlQ02KrfLGItGLdfG7dsacZ08QbGU/oUhv/1vKULsKiZ6QA600edFF86GVDpkRaEQ+yFD0UJws9Lw69P73W/n+LOMKAnVnh0UbThfGcdzQ1rMU3a+7ZPd1kXdvxbgWuBNc514DebUxhnXbxMBFIQdSwxoWcyBTGURbNIEAe2OJw4YPC7iGFYlDIOtEjGsGUoZ2ziVOywjsnlg62BokgZqzkGuMUHtbUUdX1Pfkukt2B2kNfSpq8PRGob7oGiy9LXhCG0ppGHInQGkxQhCoxVYMxj0kUIP6FGZC5NtcOQQ6baPrWY2qtX3GU7DSJEIAAqxmIOdslTfVAWaQQ5eiU/4JNWVZJwx/anCNGTUj3eBruO6q5R8i7Z0MkGCfkMo1zyySTsZ5Mo8Nmu6S08f0SkMBa3+ZpUtIJ41yaFPS3ilEwjLrQaCkDGcxSMLYaMjXeYq9Htx7Sfc0/wg8nFhI91jbj6PCLlldIVyXZSQiKS2H1q4GVPG1QLQOjqyxF2LbSs7nwOEalSwlFkIaI+RQ7lTYogX8mC9RwrJgL+xBv+GnpzSo8NcFmVn7e1rALeyemkGTHNqxgLMLKSft/DWlxPQg6dIrOTt3dT4/eypnQhAwg0lN6RtFfzPgrlcNN65VdD6L1XLjDMsQ8rZsIAdnJ41JdGp94pGP8kN/cOMakcUB21vUwPywFCJ6y5W2NStfNwvGJTs4aSbOikWZHVMNBojHkmINp30gA70Tt3drICQwAjiZCcsNj9VNz4HQzLh1Pu5KpkFP2LqGPrEhavmmBv66MJDu8gQLZLStofHQueyzg9NXYjbNqVwhQerJBj9LKMKydD6HGjgHyw/kGnXqOVjKqpwUVbOQuMCfZ/fmZtCRirI1SEGzEksQynnl7zh4Sllt6BVdDSVFdq4CsJw+JoN1buKdATWxLO9L88QMKNyPrgSZ7xKR9rEXsrH17Y4gsXUh92MG0oibE6ssD+7iGgOh9FhaoZgv0Y0bwZcmd73cmcMrEaqcQSAwWf9iBkLlTCaLLRu0pedAHPwMXeB5o8CeGQiaMV+iGsjzjVygzGvI4U4X3tYUui0F12CuIXWc618oP8ywhsI3bmgdZ4smRYHzYU23ddArdW3E2cFR4ecG4YoiEughGHPrewREZu5NnIBtqzAzfoFoDfsshu+vKPlSCrKijiDRecSur4TeWgKqnFixz4j5JmagP21g7i3nsBPu0ggKm83ubVVWCQYUvXtS59sv4E/VUOnNP4IOW2GoN2GJFgxs67IKhYsmCfer4H0oAejOwZRXdO9bP/JZSbNiSUNVVmwmTCQRfA1SZTUmpIIC01AlFeBWvKo6hRXVNUCHF3IWK+gFSrfNDcisAMvKY4oa3tQR0c8LYetWGGp/YhCpNh8YYELJQYc08ODeBct3i6bm2kzKwjmZQ0ig6n3o3CCctwLmzjUSgZMZCNrJ4GSdzOSdt5LzzagMb3jjZlQ6TczTllA0ZSUMApYUq+Tpiq80gubZkiJCh6JRY058Qixp5mJJQVBFTNZH9qS+5CUN0XYhobzArXUHaVRCKO39jK1r2OCt3piaapCJ8ppK27nDwxp8mCXU0+TeLjIN7A8arMD+LCT7c8B8doFoDW4Q6CKqp+2VpADvA6NGCQ3CzloKV6VeDXzAhdLuUP28eReV+D4SE0Z0KLaa8wlBWwu3UZfWD4ZvSHzVitJFlbtllm9E3vE+PPWMORFU6QwsBYGukc/ABE0Z9OAaBiaQesyBil9MUwSNp4tguCxTNW/jJ3RF95anUQ/WdJd6RdouLtrjOTfwtJdVkJvxNC7UIyPjFiDcC6Br3qqhsmANVJvqQZx8YbAuB+c8NbdENFTOU6n3LAhIaemRjxJKC6z0POHKM6ArA1kWKnFb+4nl7wwIwnnDIqkBMYmOBGITkpDxCqhyYiBzNjRUKLStIwyJeueVC/AaWub4hBaI8owSxnem/s5bsf8QtLZeWr4oaYY+gVzDlQiCNdKpjXtW+BWJGjw55GM/ocdOwjYXvYgBTwMaEpAee5/YXjNwIup2b6K/GHwI0ZvygxlIbG0sYc4htr7QzZiBnIPHQprFCOyPa3/YQMeyF0Y+MxCxemnYeXU9rsiwE8/EdBW25YE6NR81EklveeUa0i3bmHXthbUdx3PiLZTfrAlbGjL4911KKHoTLLBqCHoL+2TmxjIy7bI5yj1bQ1juCBoMHopyvnDD/70PfTPoKO1wYVPAxNRznTnMnzHvM0P/vjGIngGLWSSnc55biaLObeAVeB/L2fhKW/X27zj82RqUQyz4CYQ5w6huxwand7FCnYuihalx25UaDKJ1/oy/COBSwqwGNPzYpk4lzIYtoxYU/eaOqBCY2kIdL6rQqhSIJ1yiZrPqWVy0AE941+7eFzMUJlegNTdjgCDybKxGLF0Dd2MJZmkPJGeUSkoNCbfzaGLR9qOPubLCWKqfwo3mUlRS4PkLTtqxmIR7HnMtIwjDeYauBkpwYG1fh4bWgpyMBV6ZDcnYdmhT0Sd/DaCHjywkTD6W3uSQbxLrx7+/9X0KCoqsyBGfaCxLiWMkuP9esQQhP7YDQh2WeTBslTDNxxTumjrYUvju7zBa7bCJZh7DcF5LSE7uGZpXE5tXe2t06awOMgP5Os7g7u/eQaq5sOjZcVL6xSuFoG2ggwjWPfTgVkN96m46ZbyY41pBQr4rf9QodrAHTvPMoayynT156wjDamaAmKQrxNgTOxSWvXXae6LQvs8wvM0c1zsVebdLOOy5NY9sboS2Hj7Y0zBT1UAo2S2nOsOuvHrr4rbMUMSwWOZokV3VQZnbMiP0oiaC+lxVPerCFpr2fjTkAQ9Y+vc9vRDzHsZUuCfTg0B9oMi+hZqk8KcVlOhpC9+/qo7I6l1UsgYQyV+UqZoL6wvFgYq5asHqYujNLwsL1aXTWqUj5ZkD8i+s93cSKSRzggt5KRtuPyFAFb/Jll9QMFNl4wZIcB65KMHgqyISZp711s2A9f4+3rXUgC6+oQnBSLkiLu9xlyqPF4eh08wTZyMrILFtJeQf9c35hXQla7TwHjDJAruSVYXnX5wkkUnbgTMLlgGkYVUZzhtW1fYqf6NwJz24OpBJ3k0Fby1jDLbUrV8ba/yNkUhW8fdqdvioYU/86ceUVOHj4kWCkjt8fWJia8UBdyA9SGm1w6frRsNctcPXw8ZCSZBBIpWMFrxy/g3DQD7hySXN/5Onqg0SCQxzgEz+PRQxLCagV0i5i+U0c2nYsG3AT9cVXfQeSG9FpdVmdb2HvqoGKIEIvOSdxz+2CCNk5o/YJK7KM3q19SJpTd3XFx8CkRu0+Nt1LpSVIYSBfK/BHx3K4X5pyTrm8GICJkeCmJOW97iEgs7cdkvhC04vUop2rHwkmVrv2ggYGamJIHV5oTYogZjgSaoUAnHGWjJE+sbiz/j7rC4NMrEXjdWq7afakW7vYbC4YJTPKWDuhbRKDuqNwuJV/6yxsLwFqwCf4pWyIaEYw66+IIDMX7v2YWthPbkQa1WPLfNHg8wLengCSkuDDC0vdLx3JfadARWHLQAr3yVSsIfGpH9vlF5phhY9H1ybqs32+0rt2xm8NWOh0abeT48gZDC0w124Rf/eGb0ZVKb0e/jeaOWT/rMfpP8DBvaP9+/f//L5y5e3z+ff/3/9Xr796O1b+/XH/wE=);lineShape=1;fontSize=6;" vertex="1" parent="26">
                    <mxGeometry x="15.203148241741019" y="54.222824693620794" width="8.099472238233671" height="10.28130443500206" as="geometry"/>
                </mxCell>
                <mxCell id="23" value="" style="shape=stencil(nVnLchw3DPyavaIIvnl2nP9wleVoK4rkkuU8/j5gbTgagNweTW6rFXqHABoNEHMJn348fvn+cPHux9vry+8Pf12/vj1ewi8X76/Pjw+v1zf5dAmfL+HTt5fXh99eX34+f739/f1Lt+yf/nj5s//C3zec98Sho7z75/aNo3j74teb/dP1eW8fqbKy9xQjsC8UnLIPVAuwb+Szsk+U2n374CknZV8oeWBfyXll36iB88dIvip79lTAgZKjpgPEiRoCZIo6QtwoAEBmCvpIkoMKfM6ZWMfUZ/J8H1AcVR1UiVIEWSuRuOksS14AjUqibGiRKKIjyYkNoFDNEBC1D9GRcxCQDICp4ScYH6JwG3CpAzQ1YsJREoAmayyQGgtAIwbUKGW4uJWb8BdFqY2obwDJNHC6+hH1DRApAh+qVJzOg1RIAD7UKXGpDrKsAdX6kB0xADQm1hWXMTVaoKQznQMGxAmQyYGwCqBp3c6ibBUAErF5QoO61AHa6cJD2u4BvCZfCVSAanSA9qHLAoqSAKIGiNofPMEARFtPASqTOwfA/WEB2HL/UUAemfkoQKQSyEwHaPWuDYpx23ry1kQdpsak3s2PPn8PYOjdSwqVaKFinhChtrZKUdO7HZCv2R4nh/xv9lgC2Dkrfe0grs1mTr7J2GuXLACWXBg+7gBI79+ZsAcA9gmbi37CLg5rhJsC244ar1Gm1vAsEIjnMKFpgyl6C0ioU0uHKBYQ0CzgF09g5ENapBrOM3UwYQNI30OZC1ORVjhXdlmpZwBS9MGfOVLbmuAHnZbfm/mNwtqpNuUBJa5X5PQERA2pUStlmHy9tU+ygegt4ltPFVDNNg+HNcqUJ34jGZDGHCev4WAZyc1hQncOHsP2B8VSAG6SDXjn+B8AmzncIkQFzBXioAmJkpm730Gb6zczQ1fcSAVgyYRbtQhTMj7gYUAA5dS4IYB6aqBZAPDItADgoWwBwGPfAoAHyxlwMLouAHg47oBT43cHaNk4GPDnTB9cITrg1CWlk+/UNUgArH3oFy1UolJAOqw54r7LdkOWPQSIi1FHqV9HQQvKxc4//cKLANE26n6lBpnO2/Zmd2lHTU5ObKbpvhYAeZATp3nxAGaHVOzt8mC10QFm24KXJx1g9jl4PZOmPBwsgDpAh/VgxSQAs63sSyxQQJLXoqfEviYDJSoAQ+++iENhjbZE+6oP+cAUpmUiWtHGaU3W15XgCRJEc+XoC1HgdMiDm7uVawQiEESrdYmyqAY4kl+tjdGRuNhpnd3I/RrgBxF2i2+0VrMeJLi2ExLokIYxxa4DNF4CvL8VQEPGdDHe5OOOuZlhHOyEIiTJmHv0ysEOw27c5dZss7KCd4fZirvDez174cH1zmyrEc/xHMflZmePWCZ6Uq094D1XOz26IXnr2DtK9jwenMfzYO2OCsj+7OutQ3v58P4u7dv16en2Km7/f/vuTb66vbcLn/8F);lineShape=1;fontSize=6;" vertex="1" parent="26">
                    <mxGeometry x="9.446212356046317" y="86.05677372747294" width="1.636786201376405" height="39.733841536464304" as="geometry"/>
                </mxCell>
                <mxCell id="24" value="" style="shape=stencil(lVrJcls3EPwaXqewL2fH+Q9XWY5UUSSXrGx/n0ZYoB4aZLN8o+XXfJilZ3oGPMVPPx6/fH84Bffj/e3194e/n76+P57iL6cQnl4eH96e3vHpFD+f4qdvr28Pv729/vny9fzv71/Gk+PTH69/jW/454xL3XIeqOD+Pf8lVEvx/7/8egY8P70cAcVaWwDRWywCkMy5FZDNqTcEc30FVMvhNiB2a2kBJGepCUA1v74hRateANL0yQWAr8gC4K2sRmdnTQBCs7zakJO1KgDZSlgB3byIQwgcuBItOgFwFtYjFcRBADwyZ82l6q12AUjW1zjUPA95HRCs0Bu6dZFL3s3cnIAWrYlIt5k4l+erRXGiMvNmPt+dZfF8tkDPR/n9iTO1Z6uCC97SGrNeLCl2WnDbeYRDy8yxg71dnKdZ6OzPqiLsZsYcAtZVDl38d0gJVS18YZfWJCue7+ZWmwuYpoiDrF+zFEzL4g2IQlyPlKvMUtRot6ZRDtOq64BuZQWgjhdVUwMnRvIWhA0okY3KfLGgSmS1sBawUTRV1e7MZbghKO6ADOuRQjSnAJGNRuyTsAG9jejviyzC8Lpf+Yn8VV5Cn6G+AIZkBWhWVxuaOfU8mufa2rKMAhKNGO2tq+czd3M39cD155sV/v4mPIquV+tKNknO4pic3sukKH4zWFekAv2yngiN0as3RPNrCOAjRf+CerEmBSpIVwA0DQL0GZbrADBr5VqMsq+VLe1im/y+CqjozKuXoPuqCHQNFtd6AW5E9Qb0zvUN2Uu31sKpiuTtSQAad4aRjcKtzXHvQeyTAoRZ4Q4azCn9kjYN5mTytbIB4ozMdUDjIw2/ic4AheDW5IPfVOC6Z5UHvylR0hMXyaHyhNEdZX3NpQbRIIwGgLobrFIDAAAkbQFoIpcGYM1WuEEVegCI0z1IxgFABAKgKqPbJORBHEqjm/nAABnpOsXpARBEEYCabZlt6MqGwqIBAMU4AChbEQc1iEGQ98AAr4/ktplBafRhwwpAtjbl1jI19gFwJw5xA6gyg0i7tWWhLKg5AICyv0EZ3bkDAZDUkToLBwD6HYpmjkNR861zvMpAqKVft80Esk/6tfP8CUDRgegbg5TeA4C0w6CcIkTlyHW9NwCAGRSl2EC6Zr8ZrRn0kwDPdQZtT9V7ZHMjyoXZAa4D6jboIplEvW/Z8nokdEUlXNHS6rYsCeoNnjsKJJRX+qdzvR+qTgHq3EVcAHl2gOuAzNvGoa6V6LuozsNkrJKveh50c5R1BrN8pdVekwNQ2SayseEUcYBPyvqGqCsZ5D0VVwzXqslh4mC1rrdQGILymhqYmqKoGmO3uLo1BFn5cuUW5Nsk7XXA1rM+toO3AGFNPh/mHHVrEqUGgTAIr+J53hLLFjcSbT1Qle0E0wjLK7kiztvEBIOTeAESmbrPcKnavKOIbZNrUYCNz2NyFUFLkbfWY/elFiZ+LvMugHbvMiASebRCjGXOeBfAheE3LwNoNRbklih6Fq1wtNJvSIRItwdRVoyxhl7fkLW6GntlmivvXDd4jnS9I5a25KtFlklf+LoBDUyVeh95c4WmroS333IJgi8o+cZ0gJBRDK1zkXRYvme1u+IFRW/y3uoyuXzsAvUybderVS7T/HYbkGZNu3EgdqiXBm+3DUNnydsVcihUkwpA4+1qC1JeeMdyGyJMURkVt5GmuuzurwMyr/ark6oNvKFOC/3QFZUdCxhoKiWGQ+TlB5q1aoRDG9CKOMidb9hmt9GK1OVB4EVa0opnv20Yy371hspFe+wnhVvjtleOWZaj5FmfxyjJAxNpign65gpdg/aTqCDqXmksSCMD1CUOACUxQNpQZyIc+rlidNrGzwEQfEiNr1iGDFNx6Dx+DhvUG/p2pDwL/y0ADSUjDhrA6/cspeR+KTM4qI1ugQFVA6hqfHSvm0b/3A9F7gPw4eN3Kd+enp/PP2s5/j//jgV/Ov8GJn7+Dw==);lineShape=1;fontSize=6;" vertex="1" parent="26">
                    <mxGeometry x="5.001916818864174" y="85.39902124670755" width="13.35697577787609" height="12.377517831534158" as="geometry"/>
                </mxCell>
                <mxCell id="25" value="" style="shape=stencil(lVnZbhxHDPyafSX6YF/PjvMfBixHiyiSIcs5/j7VWPRoyNkpwW+rVddO86oiOZf86cfjl+8PlxR+vL2+/Pnwz/Xr2+Ml/3ZJ6fr8+PB6fcOnS/58yZ++vbw+/PH68vP56+3v71/myfnpr5e/5y/8e8ONKq1OVAr/3b5RGbcvfr+df7o+7873LiWZ80VCIueT9OzON/L7TaXZ800S+f1aZag5PyR2cj5LiOZ8DJLaOaAUGcUCkiixQLsM66GoopkAksRhAXU57S4gF+nuStzo1KV1A0hRKvFqgpdsViAtYjkHxCbFhi1VqcStcGJ1Vxqi8RwwpFqbc5JEbJ5htSbAbZkB4PRmAVUysRkuSckDipK4IdAHQCdhyHCJAzRRYoPiAtaruYuSK5W8wroBhnQShjJk2GTVKIk8obblxA2QJQfKANnGQQstuB59pFGCnQSuZ18/JVIO6LDBkkapEkiFgiWzjQP8FomXAOjBAGqiuTQB9gn1wyt166U6pDCj+7rAxsR55e8ZIFobWqXZCrdW69Y2FlHdB0CsbPIhlIF5SaXYJ+CSjSRfDzIsj41M0xsmBhuHqaikgKbX7ZUGBIMpVvSKGEOQQIwozdPGQNUSgA7JBwAjV9S8K2oYUUjJ5bxybQM0WnKQj9a8XyMDBK+iiFwlBQFVTtaGhqrlAN+aNA4oS2R3BVFIHN51fwOU1UzcB/SVnDtAZToNGR0e0FgnEBer7GxgLJAgcgcAUxQAHDHBrfRKoCEHQFEzoU5esybPDArI9gnghUZYIB3qAaLEIo1sdQ0WAIwFEGmXS+ismaKgI3P1MJ9AZBTZOqIHKMsl9VwJL1Vmg65y2ceBpbd6GxDpD57gphPkEq2Hsnhul61sPkGJ6kHkAsklxMENWLPiSD2gRFP0gEquhFzyMlpopJGt/WBDYYC0evmdW5WlN0rUXal/CHBXGjT5fh1QlwRu2bqp3n3JiodWAI5m7f1YibABIqUZdOuOZkaiTyjqB4jZnRCja/BdIgCFXAlNpBMUANh835Lv1sf2zPuA4puT2SyzjUBb8rEBlPYaSIR8oHvWOuDfvh54AYHn3NQEN9DGNUi2bq2D8hIAyc0DlfehB2GvGy3cB3TfuGKmYVPTDJwbgjK1oQW/CMGYldmoqL7XQGOaSBzKYeugjY6KJSwm3QCVDhCqom4Y3brA+yTQD8NoXnuFM5pxggIA7YzhpeYBgYliOYzsaIjYbiYevMR5SddAv50PdOuwjS+7PUggFwq+8c5h9Son9/G7pbpY6mS3NKxH5/6LN/Z+nxaW4J0qrtvYtbWpOd3Y2drBM9kT8oFW54aNVCdC6hI1BtqyavV5x5eOYAd3vtGkAF8Ve6FCdQFs4bOUrutqP+z36D6wZa/OSZRIJ7pllxSRJt1cl9j7gJyI/zH/up0S3wLMATv688T/mOBdVQa6eR/bJuX9fCFFM1cKw51nIovzzW3qFxefnXeL+kTt3W1R3gGM5fAAV8Qgam5wcTS3dhpnDvU8TSUf511ToVTxR/PLYaWC/6uvhj4+jw/v76G+XZ+ebq+x9v/3763w1e2dV/78Pw==);lineShape=1;fontSize=6;" vertex="1" parent="26">
                    <mxGeometry x="9.840256064216987" y="125.5940270111904" width="7.668875401414548" height="10.603455277622642" as="geometry"/>
                </mxCell>
                <mxCell id="46" value="s=mid+1 karna&amp;nbsp;" style="text;html=1;align=center;verticalAlign=middle;resizable=0;points=[];autosize=1;strokeColor=none;fillColor=none;fontSize=6;" vertex="1" parent="26">
                    <mxGeometry x="37.46344796501046" y="97.77313384589097" width="60" height="20" as="geometry"/>
                </mxCell>
                <mxCell id="33" value="" style="group" vertex="1" connectable="0" parent="1">
                    <mxGeometry x="529.9965520349896" y="17.226866154109025" width="134.92084461743093" height="136.19748228881303" as="geometry"/>
                </mxCell>
                <mxCell id="34" value="" style="shape=stencil(lZzJkh23EUW/prcVmIe1LP+HIkSZHaZJBUV5+Hsn3K7Xr25WnYreyTRuvwKQ481MvOSf/vj8y++fXlL448f3b3//9K/XX398fsl/eUnp9evnT99ff9h/veSfX/JPv337/ulv37/9+fXXt//9+y9r5fqvf3z75/oL/37DhS2EBUrhP2//MOfW+//+5a9v67+8fj2sj0XXh0rrcz+uH/tfuFhf03F93wp+T5f1bWu4ftbj+rr1dr0+bknOp2x90voq6/PWYb9xG/L9aWvwPWmL47g+7id2sb7J94QtwffnLR7Xj7HNQev//7WP9X2r8P1lS/m4vm0B/n7ZxvG+RtkqnGfdpeWxPm8B1tuvz+P6iH/fpOt4/sM0Il6v77rfPrYRaL3Ic+/7DZ6uN206nk9vKA9jv53H+or7HaovvWwN9H1uOR7XZ9zvVPnpCeVt7v/v0/pI+mgGSC4g7ibpCtCOEtHNJmUAxF3AdkCbqMIGKEcda2PrcKYG6MdDah0PNaZdJh+Atg3aQ9rK8ZpbvQMM+YWyW7JzgBmWo2C3vP+JK0ARQLr7BVGdFnkPZQuyh8CfZMbrKHx1svMoqm3Vbpp/YRxlqXZ0Z7HqsVbTf9AfA5SjPtS6ZVKgqsJXC1rs2LYov2BOiFxg2y3QAxB3L3QFECNQ5u52zwFdN1367leuAOO46WK7opseu1d9AOzu6aaHmpliho+kdapnLhEjIwMUOaXAxzo1FskDT2kFg8dTyiatsIcV3R01Lrddy68A43hKuW6JABavHf1/fmj5FaAdRSMntK0WUUnEnO1P0C+kLR9taw54cStmO16ceb1Cn5T1k8xt3wDEkFncQdJqgHo8JQuEOv9CP96DRWaTNl3cHuoeSlwB0lGW7F86iUbZigNEEu+y3+sDkNG2rmBVAKbTYFttiyErAC/OpP8oSya/lI74eNgAuOm63+sDEDjBsHs9ApYdoZtu6rIMkOimmypQHJhjGKAKoKNtXcLcFZBp084DxRt96Jq3xccxXAGyACpv2jS4KyDwL3Q5JU6tDDCTAigSMCskyZXFaBTNGECypfiwVFcAoRcsMJ206aEeyACVFMj8dFJA4j30YzRj4fskjRsa8xmg8R4kJzMA5fTmPoLIUmB9mMp6GKDSpqdmWQZAnZ5qlyYG9ytPjLKeotY0VaPt0Ph7pq6nv28uPEqWiN+/XH6Q9ZFolaBi1zDCtfXCk5gdp78fVSTMWMAF23rJ6wufT9SYPmOKa+u7hGFb5O8Rr5OQlrCgLojjxDjS1kcxLJhL2nqJ/+MefV+tV8PF8pA0mA/oZG29uPGADi1nzYUfxPDVeglEwh7KXK0vTdYnXt90PXk/Wz/0PCnst6xAsqmINJutFzYiMY3qeMuMNKGlNWIfCtKWljcFycp3X3u1fgjntCU6z672trM8D8e7Yhkhm/kWpxf2HZ3zwM7gmtPLcEIlqkQvTw8mwgBdvCTbLEvYhetf9A1sumRNWSxEo9DAAFPcakexKEVTRwuVibcoVe1KfLjyc4AF40fBM80kzSkWyIqljpgJluEAGX1NmWpLTXkoCKxB2U7TBsrIa9Sq1AptQZ1r0mA8MUNVH5nlE0mAeyiOSuG4dNF8woxkTOxqU40zo9ZBNKpLisyqDTAa1WUgZqYoX67DRRUDs6jqzEyeyCq0oJGvGR6yGi1qNlsiRoItqeU2LacsqmUlCUzLM+h0c7y2aTkFRwaYwkU2FL5mZkv2MDB8aU0NmSktEX+ta3xnSkskchsOEFH4mqskmQ6SAvWoIYPpIJV2e9pd7BM3j7+Q1Ymahgz6haJRswl8AdHozZU8IipQ78qnmvySY+9DnaJJF1FafSoR3pgpHC7VadwiMJIq0BIWMDPDBOFoNW5KgKO47C5hOjWqWm+7e4pvR1OH0gvvoSsH1htajTE0EliVZxCNMTXlsbunapgBxGrY3ZNDmeanpTjPXKQB5vHiRsQ0ckblLQxAJLIBmsS5afcYVwAxMyNhvDSTZlYGIH0wgHDzJr+U6xmgTwUQLTezkgWDsxMDSKyxNAREY2Z3rAX5GgOIyxqPwuY5oOxn8gQgBZoulB4N6dFZlWIwHaSczwCSUw4u9q5WJfmFgVn0bLsVegKQy5ouuh+TxbtpnmgAMmQG0IaeiczK7NpeYVpOqa4BpFxgALy4rsL3bkeuALIH03LKsuZQ0TAAhT8GEA80I5vKoRXumZDAmY7Xnpw/zKEMwjI8vAexfMvw0ClN11uYeQ/TbTrzsU71D6blkY7VBYkGSPALMfiGyoLW+Bxxt4uuALyJqYWbBSAVmtr+MG+6vqZyJwtA0jT3PphnAAtHc1dHZXcD1Ok2TVo9tVln3QNvWkKsddU3APcL6Qbg9oCGZu7X9ARAY3l2D9TPuwDuk4j5PZUlYvpOpRX96Jk+cE/gmcol6mk6V2s+WG85yg3ACTjV3NbBep27uYmP6lz3Oncjfu4mbj5Jy3q3m/4gYDjhyPxJQ+O+yaWo6UrKkzu5DJCdr0ZjObSjzgAofN3JUsLWLwNIuXQyi2UAtUyR76GfRDQ3nyRJh0Vl4yayTAog5mHFri5QxGigaQfRmNgwagCpIg6mvSzCl3631X5Pm67KC6w8nux3dQ34D6rtKg8S+20AKrwshZQRgoa16GWtkwIoyFojFS75a/QLrvpoAOIrl8oLoGAtyPRruBQZTympAlkSjjedHFWR74gEIZoXr0XHGtU/jIT043TDLgbAJDy6Y+XeGFNIbeOIrNPBpfkBM97h4pk+8ZMMINLab9jE4UYiuPl46Zd8UsNw3dRF6UfukjXplxT5ZkrDhFkZ0YR1lOEoox6QNx5RFahN5DaGm9NoHXvr7V6FJ2sNuQ27VykeNY5mendjFxnLhHZNSmVHzCB6UXO/JhBoD1mFrw6sNvXkqhwNW4O741xrwQme5trMV/GTanJDaa+a0E83V1esjz7yc4Dr/yw8wrOmY6RMOLieVXaS6wHomMmt6ZjjHkrlPSTtgFnNACAazbVQFeaNm5udLAlzxRZc5TJgJGDCLPFSnlh4qa7/Mw9UoNpdnb2jqTTpF6eYG8atBghH8c4FHXutWnLO3HdSiytqp7vmAolbMzeBm35pqzxXampUh5IeDOY5ILgJBG6gLq4lNVXcQ3FJ05pVhZteCuma8ck/FNcgsZryqHemqjGOTJYXF0rHsbeFnwOyDmvFjqxucc0FsWG2ayovAVbkzrMSdQI5Zu7/CWoqY0KrYQDt9OJc1IyKhKFrSpS6/4ZK6+Tuwq6VnY5VxeyqKOxzs4sbKiYbuer0QeH9usmXjLXj1U15tEjcapddAhe5mzVr/xX3/uWsQhowps9u6p3r/WZvp3bL3nQHN90vzSBn1z4WMb9d3cF6/iifybXYcTd38vdLvEeOGilwZJHdgHPG6q/vLi98X657nfOj7Ft9kNFb3feSvGD4uLr7pZuD5Tlobwa3H+agrRmDu5uD5rQTA2w/LTF5BHI6k87dvsk1BcWbmUlXWok8y70GUNzUDTk+/7LB8jJ8SL5jGcdpp1brI79tsGZaigJwjHNoMBuZ4VlyI8eaMW05ma/KWPZILsk2AOU568ULOaXCA1ndzeoVJApS1+QuMluYugtx6t00oDA8kdvx17SQA+DFNe2PWTPwPDOpI5ADW9hWiNIUgJtu7qYnWj0/KHozlLKsdFQAPqZT3aT1zSRdVSJ5NbPTHqoSZzeh0clIcGZb7JiFlO/moGXi/SYaTH72heccTkazKwtfVhVNnGS/T5M9ASgCW5PbEvF07CdOD678KaPF6djkJtKYu0guyMs8SfE+svaUxhO3naIbQuLK5PvQ2hN3Qa91rak1SRQq8i/rvS6Z8+OuujW35ggbYkeWjXAzAsS/xKmjcpZQUnS4zNbxHizHxTdXhnY0FH6UKjovurg8+qShdHvhVnPzBlL7LJ1PqbvBCI751kC8dL9HHAmObsy/Jn4WqboO/pu+j6qbrpUfaanqsmrbA9MrgI7ldX4urmjjVB38ypGjhCo/txDdi2uNh78XPSNlj8iikdWhtIRO0QBaWMl3AOFU18gKbTpp3NoqFiWio7VaY0DUFGiNrPAjXhIkvo+sXAGkEbzxjPwa6pcyYMCILAZNozs/fhf91HvijjftHegZSdt5MhaBRXH3+h2/QjY0yO0cqA9th+4NiRj3Qkbv2PLq3qXqA+W6ufaQgGa+Kc+zxhuoUuB63jNS4M7crTYJosw16V6dHkSsaE1r3BCpmqOPGyLDdcQFbGBIWmhf8yD4Wqf2rqeb10P1NdOMPU9RI/NZ2Ka410MrOg//Wiq38gT1+bNjZBTc66QDG2KD5s3vPeMX62UC770b9Wp91fV0nkF963sX59X66Nbza7vDrQf5CWoPnxpXrwDpg4DgboC/KLgb4B2HD56oRAa3N+bfO2aJOFkPFujj7ynfrbf/eH+8+bfXL1/e3n5+/v/1sWf7p7eHovPP/wU=);lineShape=1;fontSize=6;" vertex="1" parent="33">
                    <mxGeometry width="134.92084461743096" height="97.08304295433288" as="geometry"/>
                </mxCell>
                <mxCell id="35" value="" style="shape=stencil(lZzbkhzHDUS/hq8ddb88y/J/KEKUyTAtKij69vcGYt2z04mZM9IbtVpsd1WhgEQi0R/qD79/+um3jx9K+v37t69///jvzz9///Sh/uVDKZ9//fTx2+fv9q8P9ccP9Ydfvn77+LdvX//5689v//3bT/6b/q9/fP2X/4X/vNm1dtThViX99+0npR797Sd/fTP48vnXO4M6j9XVYGcwSMdaV4N27P7coPQj5avBODoZpCPJE/aRwSD3o7eLQS1HT2CQj319Qh1HhUXvo9TL77d0THijeWz5fduE+vz31zHn9ff3sfB91vXv93Ie4+MFl2Onq8E6Ojwgj2Nft3RUPLS8j3T1ozGOMuGUyzGuBjMdFfbIvEb8aNZjwinbLrXrGubAXa31yGKwz4N8dnnKvhisevh/PjNo+ejlamB3AZ7QbNHX+7zs7GHRPR3j6to7433uXQPAtm2AVxq2hq0GtGhzhHld9C5HhjWYI6yki6ZzmP38e3fbuuCV7FyrnEM52oILmo8hzrdP/31sYFH0ukvmfP+PUo8NxtGuazD3ppi01tGua7B9oyCzk/qSnQytwTynXMOSBYECa7BzTddXGvZMOGkzEF/q44xUz15JInfPGATMc8b1TtuVmnwO5XrSdmknnUPRuGRhoUPkmzffvBlUvg9ZfckSxoYnjBlSbsfIZ3daLpCF57YxashJW9bGQDaPfH0lyxh0cK3owZkBZaC6jjLUYMAu2a6PpGtIsGiHIWHRC8BVibtkR0kG+agCfeoZFp7l6Sx4z9wbzsGRwPVO14x52rBSvmINd2+CDiF6G1iiReeAKA3FDoZvkqfbCzSTFV8ZXsoQBGyXuhjwBcpV027f6Eu5nXtyC5UF025eiortlg9IWeZLTQBWYffuR5EMNDB6230YV9fwpAgGduP29ZUWI4EaovdqmB8MZ8/rLq2JpUC/7ckd1mjgGnau5fpKllc3bKsl2XTdJUtidHB2THmrQSGDpeHeXqlRuVHOjHa36EQ5rivWcNxKBvuEhDeDjBWTvfESgLWODIvetxLvD5YDhlLlPox1VEIz7UgCfzh671vlfBc1sKwsZ/q4C2QVcKvt0rhua2Pnc++XSrfhjTPcOgRrzGMRmtmaHww6JDJoJyFxy9MTC7+x1Vst2hLWGF3ztKWYAgc3ovMhRuwBX42TIHhWlGWp788w9TiKNa2+O3qqOUEb8v70+9Wi5NANortTQz60/EWlQ02KrfLGItGLdfG7dsacZ08QbGU/oUhv/1vKULsKiZ6QA600edFF86GVDpkRaEQ+yFD0UJws9Lw69P73W/n+LOMKAnVnh0UbThfGcdzQ1rMU3a+7ZPd1kXdvxbgWuBNc514DebUxhnXbxMBFIQdSwxoWcyBTGURbNIEAe2OJw4YPC7iGFYlDIOtEjGsGUoZ2ziVOywjsnlg62BokgZqzkGuMUHtbUUdX1Pfkukt2B2kNfSpq8PRGob7oGiy9LXhCG0ppGHInQGkxQhCoxVYMxj0kUIP6FGZC5NtcOQQ6baPrWY2qtX3GU7DSJEIAAqxmIOdslTfVAWaQQ5eiU/4JNWVZJwx/anCNGTUj3eBruO6q5R8i7Z0MkGCfkMo1zyySTsZ5Mo8Nmu6S08f0SkMBa3+ZpUtIJ41yaFPS3ilEwjLrQaCkDGcxSMLYaMjXeYq9Htx7Sfc0/wg8nFhI91jbj6PCLlldIVyXZSQiKS2H1q4GVPG1QLQOjqyxF2LbSs7nwOEalSwlFkIaI+RQ7lTYogX8mC9RwrJgL+xBv+GnpzSo8NcFmVn7e1rALeyemkGTHNqxgLMLKSft/DWlxPQg6dIrOTt3dT4/eypnQhAwg0lN6RtFfzPgrlcNN65VdD6L1XLjDMsQ8rZsIAdnJ41JdGp94pGP8kN/cOMakcUB21vUwPywFCJ6y5W2NStfNwvGJTs4aSbOikWZHVMNBojHkmINp30gA70Tt3drICQwAjiZCcsNj9VNz4HQzLh1Pu5KpkFP2LqGPrEhavmmBv66MJDu8gQLZLStofHQueyzg9NXYjbNqVwhQerJBj9LKMKydD6HGjgHyw/kGnXqOVjKqpwUVbOQuMCfZ/fmZtCRirI1SEGzEksQynnl7zh4Sllt6BVdDSVFdq4CsJw+JoN1buKdATWxLO9L88QMKNyPrgSZ7xKR9rEXsrH17Y4gsXUh92MG0oibE6ssD+7iGgOh9FhaoZgv0Y0bwZcmd73cmcMrEaqcQSAwWf9iBkLlTCaLLRu0pedAHPwMXeB5o8CeGQiaMV+iGsjzjVygzGvI4U4X3tYUui0F12CuIXWc618oP8ywhsI3bmgdZ4smRYHzYU23ddArdW3E2cFR4ecG4YoiEughGHPrewREZu5NnIBtqzAzfoFoDfsshu+vKPlSCrKijiDRecSur4TeWgKqnFixz4j5JmagP21g7i3nsBPu0ggKm83ubVVWCQYUvXtS59sv4E/VUOnNP4IOW2GoN2GJFgxs67IKhYsmCfer4H0oAejOwZRXdO9bP/JZSbNiSUNVVmwmTCQRfA1SZTUmpIIC01AlFeBWvKo6hRXVNUCHF3IWK+gFSrfNDcisAMvKY4oa3tQR0c8LYetWGGp/YhCpNh8YYELJQYc08ODeBct3i6bm2kzKwjmZQ0ig6n3o3CCctwLmzjUSgZMZCNrJ4GSdzOSdt5LzzagMb3jjZlQ6TczTllA0ZSUMApYUq+Tpiq80gubZkiJCh6JRY058Qixp5mJJQVBFTNZH9qS+5CUN0XYhobzArXUHaVRCKO39jK1r2OCt3piaapCJ8ppK27nDwxp8mCXU0+TeLjIN7A8arMD+LCT7c8B8doFoDW4Q6CKqp+2VpADvA6NGCQ3CzloKV6VeDXzAhdLuUP28eReV+D4SE0Z0KLaa8wlBWwu3UZfWD4ZvSHzVitJFlbtllm9E3vE+PPWMORFU6QwsBYGukc/ABE0Z9OAaBiaQesyBil9MUwSNp4tguCxTNW/jJ3RF95anUQ/WdJd6RdouLtrjOTfwtJdVkJvxNC7UIyPjFiDcC6Br3qqhsmANVJvqQZx8YbAuB+c8NbdENFTOU6n3LAhIaemRjxJKC6z0POHKM6ArA1kWKnFb+4nl7wwIwnnDIqkBMYmOBGITkpDxCqhyYiBzNjRUKLStIwyJeueVC/AaWub4hBaI8owSxnem/s5bsf8QtLZeWr4oaYY+gVzDlQiCNdKpjXtW+BWJGjw55GM/ocdOwjYXvYgBTwMaEpAee5/YXjNwIup2b6K/GHwI0ZvygxlIbG0sYc4htr7QzZiBnIPHQprFCOyPa3/YQMeyF0Y+MxCxemnYeXU9rsiwE8/EdBW25YE6NR81EklveeUa0i3bmHXthbUdx3PiLZTfrAlbGjL4911KKHoTLLBqCHoL+2TmxjIy7bI5yj1bQ1juCBoMHopyvnDD/70PfTPoKO1wYVPAxNRznTnMnzHvM0P/vjGIngGLWSSnc55biaLObeAVeB/L2fhKW/X27zj82RqUQyz4CYQ5w6huxwand7FCnYuihalx25UaDKJ1/oy/COBSwqwGNPzYpk4lzIYtoxYU/eaOqBCY2kIdL6rQqhSIJ1yiZrPqWVy0AE941+7eFzMUJlegNTdjgCDybKxGLF0Dd2MJZmkPJGeUSkoNCbfzaGLR9qOPubLCWKqfwo3mUlRS4PkLTtqxmIR7HnMtIwjDeYauBkpwYG1fh4bWgpyMBV6ZDcnYdmhT0Sd/DaCHjywkTD6W3uSQbxLrx7+/9X0KCoqsyBGfaCxLiWMkuP9esQQhP7YDQh2WeTBslTDNxxTumjrYUvju7zBa7bCJZh7DcF5LSE7uGZpXE5tXe2t06awOMgP5Os7g7u/eQaq5sOjZcVL6xSuFoG2ggwjWPfTgVkN96m46ZbyY41pBQr4rf9QodrAHTvPMoayynT156wjDamaAmKQrxNgTOxSWvXXae6LQvs8wvM0c1zsVebdLOOy5NY9sboS2Hj7Y0zBT1UAo2S2nOsOuvHrr4rbMUMSwWOZokV3VQZnbMiP0oiaC+lxVPerCFpr2fjTkAQ9Y+vc9vRDzHsZUuCfTg0B9oMi+hZqk8KcVlOhpC9+/qo7I6l1UsgYQyV+UqZoL6wvFgYq5asHqYujNLwsL1aXTWqUj5ZkD8i+s93cSKSRzggt5KRtuPyFAFb/Jll9QMFNl4wZIcB65KMHgqyISZp711s2A9f4+3rXUgC6+oQnBSLkiLu9xlyqPF4eh08wTZyMrILFtJeQf9c35hXQla7TwHjDJAruSVYXnX5wkkUnbgTMLlgGkYVUZzhtW1fYqf6NwJz24OpBJ3k0Fby1jDLbUrV8ba/yNkUhW8fdqdvioYU/86ceUVOHj4kWCkjt8fWJia8UBdyA9SGm1w6frRsNctcPXw8ZCSZBBIpWMFrxy/g3DQD7hySXN/5Onqg0SCQxzgEz+PRQxLCagV0i5i+U0c2nYsG3AT9cVXfQeSG9FpdVmdb2HvqoGKIEIvOSdxz+2CCNk5o/YJK7KM3q19SJpTd3XFx8CkRu0+Nt1LpSVIYSBfK/BHx3K4X5pyTrm8GICJkeCmJOW97iEgs7cdkvhC04vUop2rHwkmVrv2ggYGamJIHV5oTYogZjgSaoUAnHGWjJE+sbiz/j7rC4NMrEXjdWq7afakW7vYbC4YJTPKWDuhbRKDuqNwuJV/6yxsLwFqwCf4pWyIaEYw66+IIDMX7v2YWthPbkQa1WPLfNHg8wLengCSkuDDC0vdLx3JfadARWHLQAr3yVSsIfGpH9vlF5phhY9H1ybqs32+0rt2xm8NWOh0abeT48gZDC0w124Rf/eGb0ZVKb0e/jeaOWT/rMfpP8DBvaP9+/f//L5y5e3z+ff/3/9Xr796O1b+/XH/wE=);lineShape=1;fontSize=6;" vertex="1" parent="33">
                    <mxGeometry x="90.00314824174102" y="43.40282469362079" width="8.099472238233671" height="10.28130443500206" as="geometry"/>
                </mxCell>
                <mxCell id="47" value="" style="group" vertex="1" connectable="0" parent="33">
                    <mxGeometry x="100.00191681886417" y="72.76902124670755" width="13.356975777876087" height="50.79846104210549" as="geometry"/>
                </mxCell>
                <mxCell id="36" value="" style="shape=stencil(nVnLchw3DPyavaIIvnl2nP9wleVoK4rkkuU8/j5gbTgagNweTW6rFXqHABoNEHMJn348fvn+cPHux9vry+8Pf12/vj1ewi8X76/Pjw+v1zf5dAmfL+HTt5fXh99eX34+f739/f1Lt+yf/nj5s//C3zec98Sho7z75/aNo3j74teb/dP1eW8fqbKy9xQjsC8UnLIPVAuwb+Szsk+U2n374CknZV8oeWBfyXll36iB88dIvip79lTAgZKjpgPEiRoCZIo6QtwoAEBmCvpIkoMKfM6ZWMfUZ/J8H1AcVR1UiVIEWSuRuOksS14AjUqibGiRKKIjyYkNoFDNEBC1D9GRcxCQDICp4ScYH6JwG3CpAzQ1YsJREoAmayyQGgtAIwbUKGW4uJWb8BdFqY2obwDJNHC6+hH1DRApAh+qVJzOg1RIAD7UKXGpDrKsAdX6kB0xADQm1hWXMTVaoKQznQMGxAmQyYGwCqBp3c6ibBUAErF5QoO61AHa6cJD2u4BvCZfCVSAanSA9qHLAoqSAKIGiNofPMEARFtPASqTOwfA/WEB2HL/UUAemfkoQKQSyEwHaPWuDYpx23ry1kQdpsak3s2PPn8PYOjdSwqVaKFinhChtrZKUdO7HZCv2R4nh/xv9lgC2Dkrfe0grs1mTr7J2GuXLACWXBg+7gBI79+ZsAcA9gmbi37CLg5rhJsC244ar1Gm1vAsEIjnMKFpgyl6C0ioU0uHKBYQ0CzgF09g5ENapBrOM3UwYQNI30OZC1ORVjhXdlmpZwBS9MGfOVLbmuAHnZbfm/mNwtqpNuUBJa5X5PQERA2pUStlmHy9tU+ygegt4ltPFVDNNg+HNcqUJ34jGZDGHCev4WAZyc1hQncOHsP2B8VSAG6SDXjn+B8AmzncIkQFzBXioAmJkpm730Gb6zczQ1fcSAVgyYRbtQhTMj7gYUAA5dS4IYB6aqBZAPDItADgoWwBwGPfAoAHyxlwMLouAHg47oBT43cHaNk4GPDnTB9cITrg1CWlk+/UNUgArH3oFy1UolJAOqw54r7LdkOWPQSIi1FHqV9HQQvKxc4//cKLANE26n6lBpnO2/Zmd2lHTU5ObKbpvhYAeZATp3nxAGaHVOzt8mC10QFm24KXJx1g9jl4PZOmPBwsgDpAh/VgxSQAs63sSyxQQJLXoqfEviYDJSoAQ+++iENhjbZE+6oP+cAUpmUiWtHGaU3W15XgCRJEc+XoC1HgdMiDm7uVawQiEESrdYmyqAY4kl+tjdGRuNhpnd3I/RrgBxF2i2+0VrMeJLi2ExLokIYxxa4DNF4CvL8VQEPGdDHe5OOOuZlhHOyEIiTJmHv0ysEOw27c5dZss7KCd4fZirvDez174cH1zmyrEc/xHMflZmePWCZ6Uq094D1XOz26IXnr2DtK9jwenMfzYO2OCsj+7OutQ3v58P4u7dv16en2Km7/f/vuTb66vbcLn/8F);lineShape=1;fontSize=6;" vertex="1" parent="47">
                    <mxGeometry x="4.444295537182143" y="0.6577524807653958" width="1.636786201376405" height="39.733841536464304" as="geometry"/>
                </mxCell>
                <mxCell id="37" value="" style="shape=stencil(lVrJcls3EPwaXqewL2fH+Q9XWY5UUSSXrGx/n0ZYoB4aZLN8o+XXfJilZ3oGPMVPPx6/fH84Bffj/e3194e/n76+P57iL6cQnl4eH96e3vHpFD+f4qdvr28Pv729/vny9fzv71/Gk+PTH69/jW/454xL3XIeqOD+Pf8lVEvx/7/8egY8P70cAcVaWwDRWywCkMy5FZDNqTcEc30FVMvhNiB2a2kBJGepCUA1v74hRateANL0yQWAr8gC4K2sRmdnTQBCs7zakJO1KgDZSlgB3byIQwgcuBItOgFwFtYjFcRBADwyZ82l6q12AUjW1zjUPA95HRCs0Bu6dZFL3s3cnIAWrYlIt5k4l+erRXGiMvNmPt+dZfF8tkDPR/n9iTO1Z6uCC97SGrNeLCl2WnDbeYRDy8yxg71dnKdZ6OzPqiLsZsYcAtZVDl38d0gJVS18YZfWJCue7+ZWmwuYpoiDrF+zFEzL4g2IQlyPlKvMUtRot6ZRDtOq64BuZQWgjhdVUwMnRvIWhA0okY3KfLGgSmS1sBawUTRV1e7MZbghKO6ADOuRQjSnAJGNRuyTsAG9jejviyzC8Lpf+Yn8VV5Cn6G+AIZkBWhWVxuaOfU8mufa2rKMAhKNGO2tq+czd3M39cD155sV/v4mPIquV+tKNknO4pic3sukKH4zWFekAv2yngiN0as3RPNrCOAjRf+CerEmBSpIVwA0DQL0GZbrADBr5VqMsq+VLe1im/y+CqjozKuXoPuqCHQNFtd6AW5E9Qb0zvUN2Uu31sKpiuTtSQAad4aRjcKtzXHvQeyTAoRZ4Q4azCn9kjYN5mTytbIB4ozMdUDjIw2/ic4AheDW5IPfVOC6Z5UHvylR0hMXyaHyhNEdZX3NpQbRIIwGgLobrFIDAAAkbQFoIpcGYM1WuEEVegCI0z1IxgFABAKgKqPbJORBHEqjm/nAABnpOsXpARBEEYCabZlt6MqGwqIBAMU4AChbEQc1iEGQ98AAr4/ktplBafRhwwpAtjbl1jI19gFwJw5xA6gyg0i7tWWhLKg5AICyv0EZ3bkDAZDUkToLBwD6HYpmjkNR861zvMpAqKVft80Esk/6tfP8CUDRgegbg5TeA4C0w6CcIkTlyHW9NwCAGRSl2EC6Zr8ZrRn0kwDPdQZtT9V7ZHMjyoXZAa4D6jboIplEvW/Z8nokdEUlXNHS6rYsCeoNnjsKJJRX+qdzvR+qTgHq3EVcAHl2gOuAzNvGoa6V6LuozsNkrJKveh50c5R1BrN8pdVekwNQ2SayseEUcYBPyvqGqCsZ5D0VVwzXqslh4mC1rrdQGILymhqYmqKoGmO3uLo1BFn5cuUW5Nsk7XXA1rM+toO3AGFNPh/mHHVrEqUGgTAIr+J53hLLFjcSbT1Qle0E0wjLK7kiztvEBIOTeAESmbrPcKnavKOIbZNrUYCNz2NyFUFLkbfWY/elFiZ+LvMugHbvMiASebRCjGXOeBfAheE3LwNoNRbklih6Fq1wtNJvSIRItwdRVoyxhl7fkLW6GntlmivvXDd4jnS9I5a25KtFlklf+LoBDUyVeh95c4WmroS333IJgi8o+cZ0gJBRDK1zkXRYvme1u+IFRW/y3uoyuXzsAvUybderVS7T/HYbkGZNu3EgdqiXBm+3DUNnydsVcihUkwpA4+1qC1JeeMdyGyJMURkVt5GmuuzurwMyr/ark6oNvKFOC/3QFZUdCxhoKiWGQ+TlB5q1aoRDG9CKOMidb9hmt9GK1OVB4EVa0opnv20Yy371hspFe+wnhVvjtleOWZaj5FmfxyjJAxNpign65gpdg/aTqCDqXmksSCMD1CUOACUxQNpQZyIc+rlidNrGzwEQfEiNr1iGDFNx6Dx+DhvUG/p2pDwL/y0ADSUjDhrA6/cspeR+KTM4qI1ugQFVA6hqfHSvm0b/3A9F7gPw4eN3Kd+enp/PP2s5/j//jgV/Ov8GJn7+Dw==);lineShape=1;fontSize=6;" vertex="1" parent="47">
                    <mxGeometry width="13.35697577787609" height="12.377517831534158" as="geometry"/>
                </mxCell>
                <mxCell id="51" value="e=mid-1 karna&amp;nbsp;" style="text;html=1;align=center;verticalAlign=middle;resizable=0;points=[];autosize=1;strokeColor=none;fillColor=none;fontSize=6;" vertex="1" parent="33">
                    <mxGeometry x="30.003447965010423" y="116.19313384589097" width="60" height="20" as="geometry"/>
                </mxCell>
                <mxCell id="39" value="" style="group" vertex="1" connectable="0" parent="1">
                    <mxGeometry x="709.9965520349896" y="10.976866154109029" width="134.92084461743093" height="136.19748228881303" as="geometry"/>
                </mxCell>
                <mxCell id="40" value="" style="shape=stencil(lZzJkh23EUW/prcVmIe1LP+HIkSZHaZJBUV5+Hsn3K7Xr25WnYreyTRuvwKQ481MvOSf/vj8y++fXlL448f3b3//9K/XX398fsl/eUnp9evnT99ff9h/veSfX/JPv337/ulv37/9+fXXt//9+y9r5fqvf3z75/oL/37DhS2EBUrhP2//MOfW+//+5a9v67+8fj2sj0XXh0rrcz+uH/tfuFhf03F93wp+T5f1bWu4ftbj+rr1dr0+bknOp2x90voq6/PWYb9xG/L9aWvwPWmL47g+7id2sb7J94QtwffnLR7Xj7HNQev//7WP9X2r8P1lS/m4vm0B/n7ZxvG+RtkqnGfdpeWxPm8B1tuvz+P6iH/fpOt4/sM0Il6v77rfPrYRaL3Ic+/7DZ6uN206nk9vKA9jv53H+or7HaovvWwN9H1uOR7XZ9zvVPnpCeVt7v/v0/pI+mgGSC4g7ibpCtCOEtHNJmUAxF3AdkCbqMIGKEcda2PrcKYG6MdDah0PNaZdJh+Atg3aQ9rK8ZpbvQMM+YWyW7JzgBmWo2C3vP+JK0ARQLr7BVGdFnkPZQuyh8CfZMbrKHx1svMoqm3Vbpp/YRxlqXZ0Z7HqsVbTf9AfA5SjPtS6ZVKgqsJXC1rs2LYov2BOiFxg2y3QAxB3L3QFECNQ5u52zwFdN1367leuAOO46WK7opseu1d9AOzu6aaHmpliho+kdapnLhEjIwMUOaXAxzo1FskDT2kFg8dTyiatsIcV3R01Lrddy68A43hKuW6JABavHf1/fmj5FaAdRSMntK0WUUnEnO1P0C+kLR9taw54cStmO16ceb1Cn5T1k8xt3wDEkFncQdJqgHo8JQuEOv9CP96DRWaTNl3cHuoeSlwB0lGW7F86iUbZigNEEu+y3+sDkNG2rmBVAKbTYFttiyErAC/OpP8oSya/lI74eNgAuOm63+sDEDjBsHs9ApYdoZtu6rIMkOimmypQHJhjGKAKoKNtXcLcFZBp084DxRt96Jq3xccxXAGyACpv2jS4KyDwL3Q5JU6tDDCTAigSMCskyZXFaBTNGECypfiwVFcAoRcsMJ206aEeyACVFMj8dFJA4j30YzRj4fskjRsa8xmg8R4kJzMA5fTmPoLIUmB9mMp6GKDSpqdmWQZAnZ5qlyYG9ytPjLKeotY0VaPt0Ph7pq6nv28uPEqWiN+/XH6Q9ZFolaBi1zDCtfXCk5gdp78fVSTMWMAF23rJ6wufT9SYPmOKa+u7hGFb5O8Rr5OQlrCgLojjxDjS1kcxLJhL2nqJ/+MefV+tV8PF8pA0mA/oZG29uPGADi1nzYUfxPDVeglEwh7KXK0vTdYnXt90PXk/Wz/0PCnst6xAsqmINJutFzYiMY3qeMuMNKGlNWIfCtKWljcFycp3X3u1fgjntCU6z672trM8D8e7Yhkhm/kWpxf2HZ3zwM7gmtPLcEIlqkQvTw8mwgBdvCTbLEvYhetf9A1sumRNWSxEo9DAAFPcakexKEVTRwuVibcoVe1KfLjyc4AF40fBM80kzSkWyIqljpgJluEAGX1NmWpLTXkoCKxB2U7TBsrIa9Sq1AptQZ1r0mA8MUNVH5nlE0mAeyiOSuG4dNF8woxkTOxqU40zo9ZBNKpLisyqDTAa1WUgZqYoX67DRRUDs6jqzEyeyCq0oJGvGR6yGi1qNlsiRoItqeU2LacsqmUlCUzLM+h0c7y2aTkFRwaYwkU2FL5mZkv2MDB8aU0NmSktEX+ta3xnSkskchsOEFH4mqskmQ6SAvWoIYPpIJV2e9pd7BM3j7+Q1Ymahgz6haJRswl8AdHozZU8IipQ78qnmvySY+9DnaJJF1FafSoR3pgpHC7VadwiMJIq0BIWMDPDBOFoNW5KgKO47C5hOjWqWm+7e4pvR1OH0gvvoSsH1htajTE0EliVZxCNMTXlsbunapgBxGrY3ZNDmeanpTjPXKQB5vHiRsQ0ckblLQxAJLIBmsS5afcYVwAxMyNhvDSTZlYGIH0wgHDzJr+U6xmgTwUQLTezkgWDsxMDSKyxNAREY2Z3rAX5GgOIyxqPwuY5oOxn8gQgBZoulB4N6dFZlWIwHaSczwCSUw4u9q5WJfmFgVn0bLsVegKQy5ouuh+TxbtpnmgAMmQG0IaeiczK7NpeYVpOqa4BpFxgALy4rsL3bkeuALIH03LKsuZQ0TAAhT8GEA80I5vKoRXumZDAmY7Xnpw/zKEMwjI8vAexfMvw0ClN11uYeQ/TbTrzsU71D6blkY7VBYkGSPALMfiGyoLW+Bxxt4uuALyJqYWbBSAVmtr+MG+6vqZyJwtA0jT3PphnAAtHc1dHZXcD1Ok2TVo9tVln3QNvWkKsddU3APcL6Qbg9oCGZu7X9ARAY3l2D9TPuwDuk4j5PZUlYvpOpRX96Jk+cE/gmcol6mk6V2s+WG85yg3ACTjV3NbBep27uYmP6lz3Oncjfu4mbj5Jy3q3m/4gYDjhyPxJQ+O+yaWo6UrKkzu5DJCdr0ZjObSjzgAofN3JUsLWLwNIuXQyi2UAtUyR76GfRDQ3nyRJh0Vl4yayTAog5mHFri5QxGigaQfRmNgwagCpIg6mvSzCl3631X5Pm67KC6w8nux3dQ34D6rtKg8S+20AKrwshZQRgoa16GWtkwIoyFojFS75a/QLrvpoAOIrl8oLoGAtyPRruBQZTympAlkSjjedHFWR74gEIZoXr0XHGtU/jIT043TDLgbAJDy6Y+XeGFNIbeOIrNPBpfkBM97h4pk+8ZMMINLab9jE4UYiuPl46Zd8UsNw3dRF6UfukjXplxT5ZkrDhFkZ0YR1lOEoox6QNx5RFahN5DaGm9NoHXvr7V6FJ2sNuQ27VykeNY5mendjFxnLhHZNSmVHzCB6UXO/JhBoD1mFrw6sNvXkqhwNW4O741xrwQme5trMV/GTanJDaa+a0E83V1esjz7yc4Dr/yw8wrOmY6RMOLieVXaS6wHomMmt6ZjjHkrlPSTtgFnNACAazbVQFeaNm5udLAlzxRZc5TJgJGDCLPFSnlh4qa7/Mw9UoNpdnb2jqTTpF6eYG8atBghH8c4FHXutWnLO3HdSiytqp7vmAolbMzeBm35pqzxXampUh5IeDOY5ILgJBG6gLq4lNVXcQ3FJ05pVhZteCuma8ck/FNcgsZryqHemqjGOTJYXF0rHsbeFnwOyDmvFjqxucc0FsWG2ayovAVbkzrMSdQI5Zu7/CWoqY0KrYQDt9OJc1IyKhKFrSpS6/4ZK6+Tuwq6VnY5VxeyqKOxzs4sbKiYbuer0QeH9usmXjLXj1U15tEjcapddAhe5mzVr/xX3/uWsQhowps9u6p3r/WZvp3bL3nQHN90vzSBn1z4WMb9d3cF6/iifybXYcTd38vdLvEeOGilwZJHdgHPG6q/vLi98X657nfOj7Ft9kNFb3feSvGD4uLr7pZuD5Tlobwa3H+agrRmDu5uD5rQTA2w/LTF5BHI6k87dvsk1BcWbmUlXWok8y70GUNzUDTk+/7LB8jJ8SL5jGcdpp1brI79tsGZaigJwjHNoMBuZ4VlyI8eaMW05ma/KWPZILsk2AOU568ULOaXCA1ndzeoVJApS1+QuMluYugtx6t00oDA8kdvx17SQA+DFNe2PWTPwPDOpI5ADW9hWiNIUgJtu7qYnWj0/KHozlLKsdFQAPqZT3aT1zSRdVSJ5NbPTHqoSZzeh0clIcGZb7JiFlO/moGXi/SYaTH72heccTkazKwtfVhVNnGS/T5M9ASgCW5PbEvF07CdOD678KaPF6djkJtKYu0guyMs8SfE+svaUxhO3naIbQuLK5PvQ2hN3Qa91rak1SRQq8i/rvS6Z8+OuujW35ggbYkeWjXAzAsS/xKmjcpZQUnS4zNbxHizHxTdXhnY0FH6UKjovurg8+qShdHvhVnPzBlL7LJ1PqbvBCI751kC8dL9HHAmObsy/Jn4WqboO/pu+j6qbrpUfaanqsmrbA9MrgI7ldX4urmjjVB38ypGjhCo/txDdi2uNh78XPSNlj8iikdWhtIRO0QBaWMl3AOFU18gKbTpp3NoqFiWio7VaY0DUFGiNrPAjXhIkvo+sXAGkEbzxjPwa6pcyYMCILAZNozs/fhf91HvijjftHegZSdt5MhaBRXH3+h2/QjY0yO0cqA9th+4NiRj3Qkbv2PLq3qXqA+W6ufaQgGa+Kc+zxhuoUuB63jNS4M7crTYJosw16V6dHkSsaE1r3BCpmqOPGyLDdcQFbGBIWmhf8yD4Wqf2rqeb10P1NdOMPU9RI/NZ2Ka410MrOg//Wiq38gT1+bNjZBTc66QDG2KD5s3vPeMX62UC770b9Wp91fV0nkF963sX59X66Nbza7vDrQf5CWoPnxpXrwDpg4DgboC/KLgb4B2HD56oRAa3N+bfO2aJOFkPFujj7ynfrbf/eH+8+bfXL1/e3n5+/v/1sWf7p7eHovPP/wU=);lineShape=1;fontSize=6;" vertex="1" parent="39">
                    <mxGeometry width="134.92084461743096" height="97.08304295433288" as="geometry"/>
                </mxCell>
                <mxCell id="41" value="" style="shape=stencil(lZzbkhzHDUS/hq8ddb88y/J/KEKUyTAtKij69vcGYt2z04mZM9IbtVpsd1WhgEQi0R/qD79/+um3jx9K+v37t69///jvzz9///Sh/uVDKZ9//fTx2+fv9q8P9ccP9Ydfvn77+LdvX//5689v//3bT/6b/q9/fP2X/4X/vNm1dtThViX99+0npR797Sd/fTP48vnXO4M6j9XVYGcwSMdaV4N27P7coPQj5avBODoZpCPJE/aRwSD3o7eLQS1HT2CQj319Qh1HhUXvo9TL77d0THijeWz5fduE+vz31zHn9ff3sfB91vXv93Ie4+MFl2Onq8E6Ojwgj2Nft3RUPLS8j3T1ozGOMuGUyzGuBjMdFfbIvEb8aNZjwinbLrXrGubAXa31yGKwz4N8dnnKvhisevh/PjNo+ejlamB3AZ7QbNHX+7zs7GHRPR3j6to7433uXQPAtm2AVxq2hq0GtGhzhHld9C5HhjWYI6yki6ZzmP38e3fbuuCV7FyrnEM52oILmo8hzrdP/31sYFH0ukvmfP+PUo8NxtGuazD3ppi01tGua7B9oyCzk/qSnQytwTynXMOSBYECa7BzTddXGvZMOGkzEF/q44xUz15JInfPGATMc8b1TtuVmnwO5XrSdmknnUPRuGRhoUPkmzffvBlUvg9ZfckSxoYnjBlSbsfIZ3daLpCF57YxashJW9bGQDaPfH0lyxh0cK3owZkBZaC6jjLUYMAu2a6PpGtIsGiHIWHRC8BVibtkR0kG+agCfeoZFp7l6Sx4z9wbzsGRwPVO14x52rBSvmINd2+CDiF6G1iiReeAKA3FDoZvkqfbCzSTFV8ZXsoQBGyXuhjwBcpV027f6Eu5nXtyC5UF025eiortlg9IWeZLTQBWYffuR5EMNDB6230YV9fwpAgGduP29ZUWI4EaovdqmB8MZ8/rLq2JpUC/7ckd1mjgGnau5fpKllc3bKsl2XTdJUtidHB2THmrQSGDpeHeXqlRuVHOjHa36EQ5rivWcNxKBvuEhDeDjBWTvfESgLWODIvetxLvD5YDhlLlPox1VEIz7UgCfzh671vlfBc1sKwsZ/q4C2QVcKvt0rhua2Pnc++XSrfhjTPcOgRrzGMRmtmaHww6JDJoJyFxy9MTC7+x1Vst2hLWGF3ztKWYAgc3ovMhRuwBX42TIHhWlGWp788w9TiKNa2+O3qqOUEb8v70+9Wi5NANortTQz60/EWlQ02KrfLGItGLdfG7dsacZ08QbGU/oUhv/1vKULsKiZ6QA600edFF86GVDpkRaEQ+yFD0UJws9Lw69P73W/n+LOMKAnVnh0UbThfGcdzQ1rMU3a+7ZPd1kXdvxbgWuBNc514DebUxhnXbxMBFIQdSwxoWcyBTGURbNIEAe2OJw4YPC7iGFYlDIOtEjGsGUoZ2ziVOywjsnlg62BokgZqzkGuMUHtbUUdX1Pfkukt2B2kNfSpq8PRGob7oGiy9LXhCG0ppGHInQGkxQhCoxVYMxj0kUIP6FGZC5NtcOQQ6baPrWY2qtX3GU7DSJEIAAqxmIOdslTfVAWaQQ5eiU/4JNWVZJwx/anCNGTUj3eBruO6q5R8i7Z0MkGCfkMo1zyySTsZ5Mo8Nmu6S08f0SkMBa3+ZpUtIJ41yaFPS3ilEwjLrQaCkDGcxSMLYaMjXeYq9Htx7Sfc0/wg8nFhI91jbj6PCLlldIVyXZSQiKS2H1q4GVPG1QLQOjqyxF2LbSs7nwOEalSwlFkIaI+RQ7lTYogX8mC9RwrJgL+xBv+GnpzSo8NcFmVn7e1rALeyemkGTHNqxgLMLKSft/DWlxPQg6dIrOTt3dT4/eypnQhAwg0lN6RtFfzPgrlcNN65VdD6L1XLjDMsQ8rZsIAdnJ41JdGp94pGP8kN/cOMakcUB21vUwPywFCJ6y5W2NStfNwvGJTs4aSbOikWZHVMNBojHkmINp30gA70Tt3drICQwAjiZCcsNj9VNz4HQzLh1Pu5KpkFP2LqGPrEhavmmBv66MJDu8gQLZLStofHQueyzg9NXYjbNqVwhQerJBj9LKMKydD6HGjgHyw/kGnXqOVjKqpwUVbOQuMCfZ/fmZtCRirI1SEGzEksQynnl7zh4Sllt6BVdDSVFdq4CsJw+JoN1buKdATWxLO9L88QMKNyPrgSZ7xKR9rEXsrH17Y4gsXUh92MG0oibE6ssD+7iGgOh9FhaoZgv0Y0bwZcmd73cmcMrEaqcQSAwWf9iBkLlTCaLLRu0pedAHPwMXeB5o8CeGQiaMV+iGsjzjVygzGvI4U4X3tYUui0F12CuIXWc618oP8ywhsI3bmgdZ4smRYHzYU23ddArdW3E2cFR4ecG4YoiEughGHPrewREZu5NnIBtqzAzfoFoDfsshu+vKPlSCrKijiDRecSur4TeWgKqnFixz4j5JmagP21g7i3nsBPu0ggKm83ubVVWCQYUvXtS59sv4E/VUOnNP4IOW2GoN2GJFgxs67IKhYsmCfer4H0oAejOwZRXdO9bP/JZSbNiSUNVVmwmTCQRfA1SZTUmpIIC01AlFeBWvKo6hRXVNUCHF3IWK+gFSrfNDcisAMvKY4oa3tQR0c8LYetWGGp/YhCpNh8YYELJQYc08ODeBct3i6bm2kzKwjmZQ0ig6n3o3CCctwLmzjUSgZMZCNrJ4GSdzOSdt5LzzagMb3jjZlQ6TczTllA0ZSUMApYUq+Tpiq80gubZkiJCh6JRY058Qixp5mJJQVBFTNZH9qS+5CUN0XYhobzArXUHaVRCKO39jK1r2OCt3piaapCJ8ppK27nDwxp8mCXU0+TeLjIN7A8arMD+LCT7c8B8doFoDW4Q6CKqp+2VpADvA6NGCQ3CzloKV6VeDXzAhdLuUP28eReV+D4SE0Z0KLaa8wlBWwu3UZfWD4ZvSHzVitJFlbtllm9E3vE+PPWMORFU6QwsBYGukc/ABE0Z9OAaBiaQesyBil9MUwSNp4tguCxTNW/jJ3RF95anUQ/WdJd6RdouLtrjOTfwtJdVkJvxNC7UIyPjFiDcC6Br3qqhsmANVJvqQZx8YbAuB+c8NbdENFTOU6n3LAhIaemRjxJKC6z0POHKM6ArA1kWKnFb+4nl7wwIwnnDIqkBMYmOBGITkpDxCqhyYiBzNjRUKLStIwyJeueVC/AaWub4hBaI8owSxnem/s5bsf8QtLZeWr4oaYY+gVzDlQiCNdKpjXtW+BWJGjw55GM/ocdOwjYXvYgBTwMaEpAee5/YXjNwIup2b6K/GHwI0ZvygxlIbG0sYc4htr7QzZiBnIPHQprFCOyPa3/YQMeyF0Y+MxCxemnYeXU9rsiwE8/EdBW25YE6NR81EklveeUa0i3bmHXthbUdx3PiLZTfrAlbGjL4911KKHoTLLBqCHoL+2TmxjIy7bI5yj1bQ1juCBoMHopyvnDD/70PfTPoKO1wYVPAxNRznTnMnzHvM0P/vjGIngGLWSSnc55biaLObeAVeB/L2fhKW/X27zj82RqUQyz4CYQ5w6huxwand7FCnYuihalx25UaDKJ1/oy/COBSwqwGNPzYpk4lzIYtoxYU/eaOqBCY2kIdL6rQqhSIJ1yiZrPqWVy0AE941+7eFzMUJlegNTdjgCDybKxGLF0Dd2MJZmkPJGeUSkoNCbfzaGLR9qOPubLCWKqfwo3mUlRS4PkLTtqxmIR7HnMtIwjDeYauBkpwYG1fh4bWgpyMBV6ZDcnYdmhT0Sd/DaCHjywkTD6W3uSQbxLrx7+/9X0KCoqsyBGfaCxLiWMkuP9esQQhP7YDQh2WeTBslTDNxxTumjrYUvju7zBa7bCJZh7DcF5LSE7uGZpXE5tXe2t06awOMgP5Os7g7u/eQaq5sOjZcVL6xSuFoG2ggwjWPfTgVkN96m46ZbyY41pBQr4rf9QodrAHTvPMoayynT156wjDamaAmKQrxNgTOxSWvXXae6LQvs8wvM0c1zsVebdLOOy5NY9sboS2Hj7Y0zBT1UAo2S2nOsOuvHrr4rbMUMSwWOZokV3VQZnbMiP0oiaC+lxVPerCFpr2fjTkAQ9Y+vc9vRDzHsZUuCfTg0B9oMi+hZqk8KcVlOhpC9+/qo7I6l1UsgYQyV+UqZoL6wvFgYq5asHqYujNLwsL1aXTWqUj5ZkD8i+s93cSKSRzggt5KRtuPyFAFb/Jll9QMFNl4wZIcB65KMHgqyISZp711s2A9f4+3rXUgC6+oQnBSLkiLu9xlyqPF4eh08wTZyMrILFtJeQf9c35hXQla7TwHjDJAruSVYXnX5wkkUnbgTMLlgGkYVUZzhtW1fYqf6NwJz24OpBJ3k0Fby1jDLbUrV8ba/yNkUhW8fdqdvioYU/86ceUVOHj4kWCkjt8fWJia8UBdyA9SGm1w6frRsNctcPXw8ZCSZBBIpWMFrxy/g3DQD7hySXN/5Onqg0SCQxzgEz+PRQxLCagV0i5i+U0c2nYsG3AT9cVXfQeSG9FpdVmdb2HvqoGKIEIvOSdxz+2CCNk5o/YJK7KM3q19SJpTd3XFx8CkRu0+Nt1LpSVIYSBfK/BHx3K4X5pyTrm8GICJkeCmJOW97iEgs7cdkvhC04vUop2rHwkmVrv2ggYGamJIHV5oTYogZjgSaoUAnHGWjJE+sbiz/j7rC4NMrEXjdWq7afakW7vYbC4YJTPKWDuhbRKDuqNwuJV/6yxsLwFqwCf4pWyIaEYw66+IIDMX7v2YWthPbkQa1WPLfNHg8wLengCSkuDDC0vdLx3JfadARWHLQAr3yVSsIfGpH9vlF5phhY9H1ybqs32+0rt2xm8NWOh0abeT48gZDC0w124Rf/eGb0ZVKb0e/jeaOWT/rMfpP8DBvaP9+/f//L5y5e3z+ff/3/9Xr796O1b+/XH/wE=);lineShape=1;fontSize=6;" vertex="1" parent="39">
                    <mxGeometry x="40.003148241741016" y="0.0028246936207949602" width="8.099472238233671" height="10.28130443500206" as="geometry"/>
                </mxCell>
                <mxCell id="45" value="" style="shape=stencil(lVnbUhsxDP2avGpsy9dnSv+DGaBkSoEBevv7apvxZiXHZ+ENEp2sJR1JR94DX7093LzcHYJ7e399/n73+3j7/nDgL4cQjk8Pd6/Hd/nrwNcHvrp/fr379vr88+n29P/LzWK5/PXj+dfyC39OOE8cF1Bwf08fcCLn/n/y9WT/eHza2CdKXtszuTy3r1RY23uqbW7vPbWgAY4qA0Ci7BQgNGoRABqFagG+zAEhWB/Eq5gAIFPRQQ2FGvBBXIzOAhj4IEGv5gnyTJA2ztSyBbgAABLEogGJGPgQJQ/mCUwJ+JAccdIATwE8ISWKOg++UgJ5yI6CPpKQBZEvR4o6rJ4pIkAjZ47kyfs5oAiXmgLIL1RgL1nS9ZZ75i/bN2LNpAgdqKGzYE0CeWSfesS7vYP+VqGRtUftpQWqujiF6YCmi73OWKUAalnsvaFEgN2iST/SAfVSy8BjAVSdMXG5YkAxKeBeezNANoDSeTsDRE06xpUmADZZSD1uM0DQaZb+gRrY8gQdpcg9DFMf9JGiZBowdQmrTlzaz7TueKlQRlEKnWprbQbYIgVQtA859/K4DGA7F8qa+8uAaMu/4DbfJK+mfhwuoGQHSY3kQQdrMph0lGrpP3EZUChpwJJ7dKRq2SphyAjQ+mBaAa232VlYs2Zr2ynRSCVZAOqrLdm+JGRBjVsAdpB4TO9MaQBk5HTpImcDSIje1ZLvXIOzPLhknUbTRACm8y0lhQEt2jzAVimAgUuwVbYh01hAC8CIEgFk1ATqUA+ZPDpSsfJTAIxLtA5P2AG44QnwSMlqvT2nI9Vs89BQPcTeqz+aOAGYTO9QY83rR8knWmmoaY+oke1Q3CugMnSN3RI1enWvCdQuv7ZtBiWuDV1jp5G1IdO4VXrnhkTgbvx5hJDDrhpuR7hy5/OG4QmNuWDlxllPTOWGbuC1UsYKKGmGy6hG609zNhUiBmCyJSbah7KuvrN1wGuGy0LkgT4RF1k7nUv/5DJgaH4iypBkEoCZWiL7GgJkG6XEFJDT2aq4uLb02ZJlNJaIY3ik4Q5kR34LIOrE7Qj8OjTwnRVCAMFcmpReUzOAUaLLGgTIJwBDPlm0CvbBTC1Z5Qpedo0+8bGvp9Ow2u2+IhdKP/B5u3cobesMPG+70N5b3eodMWBeqb0aN+sxWstKJKdP5CWP6E6m9Ra0SQLaH7Jw22RN5Ds4UnY2SAGPrJTsjAuxd87ZzZW9ciwUwBSNxSqB5QYRUDVGSyRhUkRP8HY4sIPrMdce9Q0A3lHGfu2x6QBowMnXbK5+ZYKBESpBTM4CKgKwvZth7uL6MsBZcSIA5LTP/esVEOE08YMM4LVzXi6g3iBW+wIvBNmON25wZWKrEJfJAOyDvd9b7MF5vF2wdn5fSDGcBwkAN8SnQk44e4PLFZ7f9W61iT/SSIOSZHxTP9rnfgn0wfNkKC6cFarCN6TAnL0vXfiJCP3J90P79vLH+WXU/fHx8fQua/u9fXklH51efPH1Pw==);lineShape=1;fontSize=6;" vertex="1" parent="1">
                    <mxGeometry x="371.64105465026546" y="90.71252462812356" width="8.004209103132164" height="8.821784893533968" as="geometry"/>
                </mxCell>
                <mxCell id="48" value="" style="shape=stencil(lVnZchQxDPyafVX5tvXM8R9UkZAtQkKFcP09bbY8WcszHXjbTNxjS2q1JM8pvvl29+HrzSm4b89Pj59vfp4/Pt+d4ttTCOeHu5un8zN+neK7U3xz+/h08+np8fvDx8vfXz/0lf3Xl8cf/Q2/LrgoyXVQcL8vD1KSqn+fvL+svz8/XK33XlyZAVlcI4AsUZcdAgGo1GgBIR8DQl12CFLIDhEHMDY4qf4YkLyE+UixjSf7gColz4AszR0Dchon3gBRMrEhq6gBONFyDChRdI40/MbiULKUNAOiNAZIw8QB8E18IgAnoc2AOCKzb3SW7GeAp15KKqFOAJVCwgDipDluTRKxAFHNatbHSqiqNswqjfAoJIkz8TyoTdIzOGuAL5IItREiN3sIr1BiAvK5zDEAjxwJGmKqc5RBbZbPMLEt6RmZYnhpM1N7/jFNAmtmL/X846qXZhtKEMds8FLnI5Umje0Ao2e31jT8tg/YVHSjnqPc9nUI+wZINHlCGFzeAJXaEJYdFBnOhTjOXlI4muUzqo+zgEbIByL4aI/E3Jo3bm5Gt8GufUAbzNkAXOqhq+ZILQyV2gXUMNi/UUMlEdXAv+vM1lqH+O8CNI/ydwVgO2gdNf8KUIiXFLo4B642KgIK5S7W6MBsUCsCyIfE8sE5S6bmaRuALYybWhyvOALYHRKtiPCrGvZlvkORUi0g81CHha6ZsE/jaCuuAKz30UXJYHQisoEU1mrdyqqubkX/KoM838ECnDRmtLdxqEpbShhtU65JJsLU3WqSug6/HQYuW0BiGQRqRAtget/JF6wNlHzNVnYAGk9qo5VwKy1yuznKxLLLgKFrGD3aodDMRoB9bALqUmaEBqWYWY0aZNiHmYhY3eV4STlW2v8bgDjZGlRGa31Ug7yRDbyCGF2K+NmtvfAS2egDjekFEi0pOdg5USsNXGpWmDqBGcDbwF3xcb+hCcPGbQsdneN+y9TsVKY8hTARlGKtpk0ZlM4EolB1RWMZTCDQgJAjNRsHcKmyFkuSIaujNwjRdpUgIwtbFD+HGR1XZUOcjTJaukDPYy4DshtF+GC9sTcVuj6N1mublyBRJDdRv+d4RT84sp/L9jx9yqQibB3aR4lXJr55h35rRCoPZlSrX3S6WkMQacvdJ1Qzs9L3w4FurrWOJmXMozV9We8Zg9SGjMsKpphq17ObmLwMxJ7WQBDeFM1IKxoSyry/0ma++nEHcX2NQQyocWT4BlA6GGJYNuMCTIgk6evSdEbEgPgIBc0odb/SI2lclquYHnZWAeNy8elpGEALY3SKvKA5Ky2QIhY41DNTPFBE2VUMEtcClPYJ0B5D7bTdbB7Vs7jILxtgfLb1AwB2Z7BecSOfHC0g5g4d6yO71ZPc7Ho2UXnbt8AAZZdPtrnrHiIFxNnzvBICZ9WuX7PS9aaHB4nY5LKur7Sgrecp9LpjtbfQq4XFn2m7A/23eGG9J+df+JDSyKJ/49sr32xeX48fLx+Ibs/395fvS9f/tx+U8OjyMSq++wM=);lineShape=1;fontSize=6;" vertex="1" parent="1">
                    <mxGeometry x="635.6965815182675" y="135.24156665540482" width="6.100300294126808" height="6.379541459269705" as="geometry"/>
                </mxCell>
                <mxCell id="49" value="" style="shape=stencil(lZbdUttADIWfxrdnpNX+XlN4D2YIjYc0YUKg5e3R1mOIlkSd3vnv88pHR8c7yc3L9v55MwV6OR0PT5vf88NpO8mPKYR5v90c55MeTXI7yc3j4bj5eTy87h+W8+f7/mQ/+nV462/4s3CNUEKnAr0vV2JCan+v3C3Abt6fAxmlGCAJWnWAhsoGyIKaXSCJAUoEeyUltGyAqis4QG2IFmiMFh1AVbIltYLE14FCyFYlJgLRdSITJNolGtiRKRGq7ZzqQE4jooBtI2oFO4BUkAVK84EMsrrmBhIHKGMjUkV1VIphXCGqW5zO6W1pFggITklaQK4G0CKzs0KuaMkCGSE53lARrZlU6OB8dG+TXUFbGfyBoGFG6V8zykPjCLFcB87c/OkNWoPh8hI6MBbQofJa3UdysGtbX3FZJh36YUg1GJySeqzYkr6i53KrBeXbjFYnBjQa6wBofHozmhCHoVZZHTN1QP4HkDima09Dx0whrm7+BBKyE0yc1rQ+i43ofHRBtW4tDHHaEMYwzrym7cXn1ar2AxKvKXLteWuLSODg1ZNsYgRfUc0TWz831xQcR4GYkZweBxmBBHEmRz0x/Bm0AY6garpBofHfpgdfO47HebdbNizn98cdil5adjdy+wE=);lineShape=1;fontSize=6;" vertex="1" parent="1">
                    <mxGeometry x="581.104535603398" y="135.65446062936553" width="0.6208945037624402" height="0.6227992003962272" as="geometry"/>
                </mxCell>
                <mxCell id="50" value="" style="shape=stencil(7VnJUhwxDP2aubq8yNuZkP+giiFMhQA1kO3vo87EPSPZ/Qy3HLgNjeRFenp+lnfh6uX+5nm/8/bl9fj0df/zcPt6vwufdt4fHu/3x8Mr/9qF6124uns67r8cn74/3p7+fr5ZLJdf355+LCP8Ovklk+zi5O3v04fojPV/v3w+2T8cHoV9VPbJFAftg7BPzlBE9lmOn4pxcD3/Zm/2OZoA7ascv3gT4fprkva1rXBon40twr6SKQnZuyjtk/EBjk/SnkcgGM/OvlZk79V6iskgX1Hjp1YTwH45GqTtc0H2Vo7vrG2fhg6hheOtDt4E954VORO7HaAdW424SUStIbUenDFrnNX2CBFWR3SCOGuiQoRvGNnar7QvpXHARjxJVkwJJoGK9MZWWfEcH2ivGCU7U0B+g/Fy/BRNBuMHU+R+YzWUEaJVvmIwEVaAl/bE+8X2Ej/kId54PXK/IZsE8Ea6wIJvHLlVwTK/vpgEGJrt5fr5C8HxVXyWioD2WebLpdmJp/BsKoKz1XgOLeFje2boLOwndGXb9G+0p4ausz0KP29P4ZkLDsA5hMZ+K95agY7tSxtura9GwON0eVOCir9H8Mytus8HQGPs8QnG8PXSwbdDauyQdYQctTWOEeQ7B046csg6Z443DWqeKU3vgQ8l5BA1Sy+wAJvOtf17dXCQdgunVeb5zHxDh/OxuBaOg8jmc5eSdijYoSiq89DhQjqsHqEd51tTqGoOZCooH3bwEt4htlxuhYkU/yZY0CwHSC2JRSRAH+sBPcOqascOcbAkJKFYE8eqHRBn16BlOEfJo7AGDVfOA1I5AwfmbexQFc97HCVqsuYCrh5U0BJWlTjb1PZm4joHxK0Mjeg6B7SHMpghAzZe4N0VNbpvncX3RVjRhXFco0hwLjSgpuDUYAeN74hLjqlM0jHjm3CNqmssOyCVUVMXpozZlUVs6mZASyJ9aLFDQKkeORBYUnHtTFtPiAqlBgt9JeX5OlyQA2lyXdQcQF9mqSCjxBdcVKOpP0dD+zJ2WNsrq4OH18cY9aG13MgANKJt15UL8RCRYmIwy02zPIkAGsQ0pOQJtbiNNV/UfM8SK4MZmFWK0jOYZzjqQc5Q2jVizBocEklkGbaZXGhCYb0Fm4BYyXUKLkCo8v5cn2Z0JOq2wuSaVLWMXq5hiGE6NeaxkNG1yYSErs2sJ+X4yzUV0YtuNBFnGO5XtWn4mp2hPcn4xIqVnr4GJyxhii7j7JtA3rBXRZkLPAc7WVgItmmKbjwWjOiPRuVHo/J/b1SqxsKk9c7rUY1H3Nq3GnGTpwOW0pJRJk8TttX3yij46WPt46z2+GnFasadPN10jd/J05DVNyhWIh7GXzEi1UmjWOGfVk7dsFd6lO3R5cbrp63lhEEipWu0ZtgGYmFI77Gn7oTE64m6cT3Zb9QMN4lnx7iTfCV9uZzg4f1PkTN7/nF+97w7PDycnk0v/6/fSfnT6Y01XP8B);lineShape=1;fontSize=6;" vertex="1" parent="1">
                    <mxGeometry x="631.8606231196514" y="74.73463458372436" width="7.012786640019683" height="6.595590745602277" as="geometry"/>
                </mxCell>
                <mxCell id="52" value="return mid" style="text;html=1;align=center;verticalAlign=middle;resizable=0;points=[];autosize=1;strokeColor=none;fillColor=none;fontSize=6;" vertex="1" parent="1">
                    <mxGeometry x="735" y="120" width="50" height="20" as="geometry"/>
                </mxCell>
            </root>
        </mxGraphModel>
    </diagram>
</mxfile>